<svg id="Group_1146" data-name="Group 1146" xmlns="http://www.w3.org/2000/svg" width="749.108" height="470.32" viewBox="0 0 749.108 470.32">
  <g id="Group_724" data-name="Group 724" transform="translate(465.722 444.628)">
    <g id="Group_705" data-name="Group 705" transform="translate(7.41)">
      <g id="Group_703" data-name="Group 703" transform="translate(0.951 0.965)">
        <path id="Path_1937" data-name="Path 1937" d="M330.2,337.471c-1.005-3.289-3.31-6.366-6.584-7.422s-7.425.543-8.445,3.826c-3.012-2.514-7.627-.517-10.045,2.571-3.914,4.994-.889,13.172-.237,13.7a5.2,5.2,0,0,0,2.618.472l29.285-.162s5.372-.392,7.852-1.38c4.988-1.99,8.382-10.575,5.171-14.882-2.189-2.935-6.508-3.558-9.995-2.443a28.052,28.052,0,0,0-9.62,5.715" transform="translate(-303.157 -329.727)" fill="#6cdd6c"/>
      </g>
      <g id="Group_704" data-name="Group 704">
        <path id="Path_1938" data-name="Path 1938" d="M307.529,352.047a4.875,4.875,0,0,1-2.81-.7c-1.149-.934-4.067-9.752.084-15.05a10.574,10.574,0,0,1,6.841-4.041,6.079,6.079,0,0,1,3.541.627,6.908,6.908,0,0,1,2.888-2.736,8.348,8.348,0,0,1,6.28-.571,11.361,11.361,0,0,1,6.724,6.705,28.2,28.2,0,0,1,8.885-5c3.5-1.119,8.451-.72,11.067,2.788,1.5,2.019,1.855,5.007.955,8.192-1.076,3.8-3.644,7.009-6.543,8.164-2.588,1.033-7.914,1.43-8.141,1.447l-29.349.164C307.855,352.042,307.709,352.047,307.529,352.047Zm4.865-17.9a5.042,5.042,0,0,0-.548.03,8.706,8.706,0,0,0-5.52,3.312c-3.435,4.384-.869,11.7-.308,12.434a5.562,5.562,0,0,0,1.876.179l29.332-.164c-.013,0,5.188-.39,7.5-1.313,2.327-.925,4.5-3.7,5.4-6.892.737-2.6.5-4.975-.641-6.512-2.047-2.749-6.066-3.015-8.928-2.1a27.134,27.134,0,0,0-9.273,5.52.968.968,0,0,1-1.564-.442c-1.033-3.381-3.259-5.915-5.954-6.784a6.378,6.378,0,0,0-4.8.448,4.737,4.737,0,0,0-2.43,2.745.966.966,0,0,1-1.544.455A3.94,3.94,0,0,0,312.394,334.15Z" transform="translate(-302.647 -329.21)" fill="#50aa50"/>
      </g>
    </g>
    <g id="Group_708" data-name="Group 708" transform="translate(3.553 7.234)">
      <g id="Group_707" data-name="Group 707">
        <g id="Group_706" data-name="Group 706">
          <path id="Path_1939" data-name="Path 1939" d="M301.631,333.455a9.148,9.148,0,0,0-1,5.229c.1.917,1.551.927,1.449,0a7.789,7.789,0,0,1,.8-4.5c.425-.828-.826-1.563-1.253-.731Z" transform="translate(-300.579 -333.089)" fill="#50aa50"/>
        </g>
      </g>
    </g>
    <g id="Group_711" data-name="Group 711" transform="translate(0 8.249)">
      <g id="Group_710" data-name="Group 710">
        <g id="Group_709" data-name="Group 709">
          <path id="Path_1940" data-name="Path 1940" d="M299.047,334.145a10.056,10.056,0,0,0-.125,4.942c.2.912,1.6.526,1.4-.386a8.466,8.466,0,0,1,.125-4.17.726.726,0,0,0-1.4-.386Z" transform="translate(-298.674 -333.634)" fill="#50aa50"/>
        </g>
      </g>
    </g>
    <g id="Group_714" data-name="Group 714" transform="translate(7.808 4.368)">
      <g id="Group_713" data-name="Group 713">
        <g id="Group_712" data-name="Group 712">
          <path id="Path_1941" data-name="Path 1941" d="M303.562,333a.726.726,0,0,0,0-1.451.726.726,0,0,0,0,1.451Z" transform="translate(-302.861 -331.552)" fill="#50aa50"/>
        </g>
      </g>
    </g>
    <g id="Group_717" data-name="Group 717" transform="translate(12.617 12.128)">
      <g id="Group_716" data-name="Group 716">
        <g id="Group_715" data-name="Group 715">
          <path id="Path_1942" data-name="Path 1942" d="M305.44,336.415V337.7a.726.726,0,0,0,1.451,0v-1.289a.726.726,0,0,0-1.451,0Z" transform="translate(-305.44 -335.714)" fill="#50aa50"/>
        </g>
      </g>
    </g>
    <g id="Group_720" data-name="Group 720" transform="translate(37.114 14.384)">
      <g id="Group_719" data-name="Group 719">
        <g id="Group_718" data-name="Group 718">
          <path id="Path_1943" data-name="Path 1943" d="M318.577,337.624v.645a.726.726,0,0,0,1.451,0v-.645a.726.726,0,0,0-1.451,0Z" transform="translate(-318.577 -336.924)" fill="#50aa50"/>
        </g>
      </g>
    </g>
    <g id="Group_723" data-name="Group 723" transform="translate(34.211 12.103)">
      <g id="Group_722" data-name="Group 722">
        <g id="Group_721" data-name="Group 721">
          <path id="Path_1944" data-name="Path 1944" d="M317.234,336.94l.323.321a.726.726,0,0,0,1.026-1.026l-.323-.321a.726.726,0,0,0-1.026,1.026Z" transform="translate(-317.02 -335.7)" fill="#50aa50"/>
        </g>
      </g>
    </g>
  </g>
  <g id="Group_725" data-name="Group 725" transform="translate(35.405 422.132)">
    <path id="Path_1945" data-name="Path 1945" d="M119.78,321.013h-49.1a1.934,1.934,0,0,1,0-3.867h49.1a1.934,1.934,0,0,1,0,3.867Z" transform="translate(-68.751 -317.146)" fill="#405b91"/>
  </g>
  <g id="Group_727" data-name="Group 727" transform="translate(513.365 252.04)">
    <g id="Group_726" data-name="Group 726">
      <path id="Path_1946" data-name="Path 1946" d="M331.211,229.533h-1.4a2.1,2.1,0,1,0-4.2,0h-1.4a3.506,3.506,0,1,1,7.011,0Z" transform="translate(-324.2 -226.027)" fill="#fff"/>
    </g>
  </g>
  <g id="Group_729" data-name="Group 729" transform="translate(518.397 170.323)">
    <g id="Group_728" data-name="Group 728">
      <path id="Path_1947" data-name="Path 1947" d="M333.9,185.747h-1.4a2.1,2.1,0,1,0-4.2,0h-1.4a3.506,3.506,0,1,1,7.011,0Z" transform="translate(-326.89 -182.241)" fill="#fff"/>
    </g>
  </g>
  <g id="Group_732" data-name="Group 732" transform="translate(283.466 423.47)">
    <g id="Group_731" data-name="Group 731">
      <g id="Group_730" data-name="Group 730">
        <path id="Path_1948" data-name="Path 1948" d="M267.986,352.194H201.258l1.132-2.685c4.376-10.381,4.828-19.268,4.162-29.419l-.134-2.055,56.26-.172.013,1.924c.049,6.562,1.824,21.466,4.5,29.887Zm-60.97-3.867h55.756a146.833,146.833,0,0,1-3.9-26.585l-48.344.149C210.99,330.894,210.438,339.083,207.016,348.327Z" transform="translate(-201.258 -317.863)" fill="#415b91"/>
      </g>
    </g>
  </g>
  <g id="Group_735" data-name="Group 735" transform="translate(157.547 230.208)">
    <g id="Group_734" data-name="Group 734">
      <g id="Group_733" data-name="Group 733">
        <path id="Path_1949" data-name="Path 1949" d="M240.409,411.323c-50.66,0-91.7-.276-93.5-.919-4.335-1.546-10-7.554-10.081-11.817-.164-9.232-.561-21.8-1.02-36.362-1.389-43.889-3.287-104-.824-137.262a11.542,11.542,0,0,1,11.44-10.743h.194l292.07.434a11.516,11.516,0,0,1,11.274,11.35c.224,9.715.541,19.645.858,29.71,1.339,42.137,2.721,85.713-1.947,126.917-.185,1.624-.265,3.42-.349,5.277-.393,8.645-.882,19.406-12.025,21.6C431.051,410.589,322.96,411.323,240.409,411.323Zm-93.96-193.994a8.438,8.438,0,0,0-8.363,7.865c-2.452,33.1-.556,93.114.828,136.934.462,14.569.86,27.152,1.024,36.4.048,2.691,4.544,7.707,8.016,8.945,6.219,1.27,280.805.332,287.943-1.011,8.749-1.729,9.143-10.355,9.523-18.7.088-1.932.173-3.8.364-5.488,4.643-40.977,3.263-84.439,1.93-126.468-.319-10.071-.634-20.01-.86-29.734a8.415,8.415,0,0,0-8.208-8.315l-292.057-.434Z" transform="translate(-133.793 -214.221)" fill="#415b91"/>
      </g>
    </g>
  </g>
  <g id="Group_737" data-name="Group 737" transform="translate(168.51 240.334)">
    <g id="Group_736" data-name="Group 736" transform="translate(0)">
      <path id="Path_1950" data-name="Path 1950" d="M425.441,220.014l-275.185-.362c-4.949-.075-9.1,3.319-9.475,7.753-3.084,36.832,1.119,113.68,1.742,144.607.06,3.015,4.981,7.535,8.525,8.654,4.171,1.318,265.682.323,272.073-.793,11.479-2,9.525-13.76,10.489-21.282,5.445-42.539,2.1-88.778,1.016-130.385C434.509,223.7,430.457,220.089,425.441,220.014Z" transform="translate(-139.663 -219.651)" fill="#b6d0fb" fill-rule="evenodd"/>
    </g>
  </g>
  <g id="Group_740" data-name="Group 740" transform="translate(252.627 454.168)">
    <g id="Group_739" data-name="Group 739">
      <g id="Group_738" data-name="Group 738">
        <path id="Path_1951" data-name="Path 1951" d="M306.15,348.544H191.65c-4.544,0-6.92-3.573-6.92-7.1s2.376-7.114,6.92-7.114h114.5a6.8,6.8,0,0,1,6.922,7.1C313.072,344.966,310.694,348.544,306.15,348.544Zm-114.5-11.108a4,4,0,0,0,0,8h114.5a4,4,0,0,0,0-8Z" transform="translate(-184.73 -334.326)" fill="#415b91"/>
      </g>
    </g>
  </g>
  <g id="Group_765" data-name="Group 765" transform="translate(175.573 408.485)">
    <g id="Group_748" data-name="Group 748" transform="translate(0)">
      <g id="Group_743" data-name="Group 743" transform="translate(3.352 3.996)">
        <g id="Group_742" data-name="Group 742">
          <g id="Group_741" data-name="Group 741">
            <path id="Path_1952" data-name="Path 1952" d="M145.913,311.97h0" transform="translate(-145.406 -311.97)" fill="#415b91" fill-rule="evenodd"/>
          </g>
        </g>
      </g>
      <g id="Group_747" data-name="Group 747">
        <g id="Group_746" data-name="Group 746">
          <g id="Group_745" data-name="Group 745">
            <g id="Group_744" data-name="Group 744">
              <path id="Path_1953" data-name="Path 1953" d="M147.468,317.819c5.143,0,5.15-7.992,0-7.992s-5.15,7.992,0,7.992Z" transform="translate(-143.608 -309.827)" fill="#415b91"/>
            </g>
          </g>
        </g>
      </g>
    </g>
    <g id="Group_756" data-name="Group 756" transform="translate(16.111)">
      <g id="Group_751" data-name="Group 751" transform="translate(3.352 3.996)">
        <g id="Group_750" data-name="Group 750">
          <g id="Group_749" data-name="Group 749">
            <path id="Path_1954" data-name="Path 1954" d="M154.553,311.97h0" transform="translate(-154.046 -311.97)" fill="#415b91" fill-rule="evenodd"/>
          </g>
        </g>
      </g>
      <g id="Group_755" data-name="Group 755">
        <g id="Group_754" data-name="Group 754">
          <g id="Group_753" data-name="Group 753">
            <g id="Group_752" data-name="Group 752">
              <path id="Path_1955" data-name="Path 1955" d="M156.108,317.819c5.143,0,5.15-7.992,0-7.992s-5.15,7.992,0,7.992Z" transform="translate(-152.248 -309.827)" fill="#415b91"/>
            </g>
          </g>
        </g>
      </g>
    </g>
    <g id="Group_764" data-name="Group 764" transform="translate(32.221)">
      <g id="Group_759" data-name="Group 759" transform="translate(3.352 3.996)">
        <g id="Group_758" data-name="Group 758">
          <g id="Group_757" data-name="Group 757">
            <path id="Path_1956" data-name="Path 1956" d="M163.193,311.97h0" transform="translate(-162.686 -311.97)" fill="#415b91" fill-rule="evenodd"/>
          </g>
        </g>
      </g>
      <g id="Group_763" data-name="Group 763">
        <g id="Group_762" data-name="Group 762">
          <g id="Group_761" data-name="Group 761">
            <g id="Group_760" data-name="Group 760">
              <path id="Path_1957" data-name="Path 1957" d="M164.748,317.819c5.143,0,5.15-7.992,0-7.992s-5.15,7.992,0,7.992Z" transform="translate(-160.888 -309.827)" fill="#415b91"/>
            </g>
          </g>
        </g>
      </g>
    </g>
  </g>
  <g id="Group_773" data-name="Group 773" transform="translate(315.024 234.374)">
    <g id="Group_768" data-name="Group 768" transform="translate(1.572 1.874)">
      <g id="Group_767" data-name="Group 767">
        <g id="Group_766" data-name="Group 766">
          <path id="Path_1958" data-name="Path 1958" d="M219.253,217.566h0" transform="translate(-219.015 -217.566)" fill="#415b91" fill-rule="evenodd"/>
        </g>
      </g>
    </g>
    <g id="Group_772" data-name="Group 772">
      <g id="Group_771" data-name="Group 771">
        <g id="Group_770" data-name="Group 770">
          <g id="Group_769" data-name="Group 769">
            <path id="Path_1959" data-name="Path 1959" d="M219.982,220.309a1.875,1.875,0,0,0,0-3.748,1.875,1.875,0,0,0,0,3.748Z" transform="translate(-218.173 -216.561)" fill="#415b91"/>
          </g>
        </g>
      </g>
    </g>
  </g>
  <g id="Group_778" data-name="Group 778" transform="translate(598.392 410.953)">
    <g id="Group_774" data-name="Group 774" transform="translate(3.26)">
      <path id="Path_1960" data-name="Path 1960" d="M410.612,360.99H371.158l15.175-49.84h9.1Z" transform="translate(-371.158 -311.151)" fill="#b6d0fb"/>
    </g>
    <g id="Group_775" data-name="Group 775" transform="translate(0 49.84)">
      <rect id="Rectangle_1954" data-name="Rectangle 1954" width="45.974" height="5.694" fill="#b6d0fb"/>
    </g>
    <g id="Group_776" data-name="Group 776" transform="translate(3.26 37.38)">
      <path id="Path_1961" data-name="Path 1961" d="M374.952,331.2l-3.794,12.46h39.454l-3.794-12.46Z" transform="translate(-371.158 -331.197)" fill="#415b91"/>
    </g>
    <g id="Group_777" data-name="Group 777" transform="translate(10.847 12.46)">
      <path id="Path_1962" data-name="Path 1962" d="M375.227,330.293h24.279l-3.794-12.46H379.021Z" transform="translate(-375.227 -317.833)" fill="#415b91"/>
    </g>
  </g>
  <g id="Group_780" data-name="Group 780" transform="translate(648.12 402.7)">
    <g id="Group_779" data-name="Group 779">
      <path id="Path_1963" data-name="Path 1963" d="M405.2,370.19h8.755v-33.9h44.939v33.9h8.755v-33.9h9.271V309.226h-7.4v-2.5H456.766v2.5H416.953v-2.5H404.2v2.5h-8.119v27.066h9.12Zm68.893-58.138v.114l-5.4,21.3h-9.629l5.424-21.412Zm-25.116,21.412h-9.629l5.424-21.412H454.4Zm-19.717,0h-9.631l5.424-21.412h9.631Zm-23.924-21.412h9.629l-5.424,21.412H399.91Z" transform="translate(-396.078 -306.725)" fill="#b6d0fb"/>
    </g>
  </g>
  <g id="Group_785" data-name="Group 785" transform="translate(185.867 92.807)">
    <g id="Group_782" data-name="Group 782" transform="translate(0)">
      <g id="Group_781" data-name="Group 781">
        <path id="Path_1964" data-name="Path 1964" d="M188.157,182.379l2.624-2.624a1.36,1.36,0,0,0,0-1.926l-2.286-2.28a1.931,1.931,0,0,1-.3-2.156l1.861-4.52a1.932,1.932,0,0,1,1.747-1.311h3.233a1.362,1.362,0,0,0,1.361-1.356v-3.718a1.357,1.357,0,0,0-1.361-1.357H191.8a1.934,1.934,0,0,1-1.747-1.307l-1.861-4.518a1.939,1.939,0,0,1,.3-2.161l2.286-2.281a1.351,1.351,0,0,0,0-1.919l-2.624-2.635a1.362,1.362,0,0,0-1.922,0l-2.288,2.286a1.934,1.934,0,0,1-2.152.313l-4.526-1.865a1.937,1.937,0,0,1-1.305-1.749v-3.233A1.366,1.366,0,0,0,174.6,140.7h-3.711a1.367,1.367,0,0,0-1.363,1.363V145.3a1.937,1.937,0,0,1-1.305,1.749l-4.526,1.865a1.932,1.932,0,0,1-2.152-.313l-2.29-2.282a1.346,1.346,0,0,0-1.915,0l-2.633,2.631a1.354,1.354,0,0,0,0,1.919l2.284,2.281a1.937,1.937,0,0,1,.31,2.161l-1.861,4.518a1.938,1.938,0,0,1-1.747,1.307h-3.237a1.358,1.358,0,0,0-1.359,1.357v3.718a1.362,1.362,0,0,0,1.359,1.356H153.7a1.936,1.936,0,0,1,1.747,1.311l1.861,4.52a1.928,1.928,0,0,1-.31,2.156l-2.284,2.28a1.363,1.363,0,0,0,0,1.926l2.633,2.624a1.343,1.343,0,0,0,1.915,0l2.29-2.282a1.922,1.922,0,0,1,2.156-.306l4.522,1.861a1.926,1.926,0,0,1,1.305,1.743v3.241a1.364,1.364,0,0,0,1.363,1.358H174.6a1.363,1.363,0,0,0,1.359-1.358V183.4a1.926,1.926,0,0,1,1.305-1.743l4.526-1.861a1.919,1.919,0,0,1,2.152.306l2.288,2.282A1.352,1.352,0,0,0,188.157,182.379ZM172.749,175.2A10.85,10.85,0,1,1,183.6,164.345,10.856,10.856,0,0,1,172.749,175.2Z" transform="translate(-149.099 -140.699)" fill="#b6d0fb"/>
      </g>
    </g>
    <g id="Group_784" data-name="Group 784" transform="translate(35.394 40.675)">
      <g id="Group_783" data-name="Group 783">
        <path id="Path_1965" data-name="Path 1965" d="M196.836,173.771l-.662-2.2a.849.849,0,0,0-1.052-.567l-1.913.582a1.2,1.2,0,0,1-1.274-.468l-1.926-2.336a1.208,1.208,0,0,1-.2-1.337l.944-1.764a.849.849,0,0,0-.338-1.145l-2.031-1.085a.842.842,0,0,0-1.139.347l-.949,1.764a1.206,1.206,0,0,1-1.223.572l-3.017-.3a1.19,1.19,0,0,1-1.085-.8l-.582-1.917a.835.835,0,0,0-1.048-.558l-2.2.658a.851.851,0,0,0-.565,1.057l.586,1.913a1.191,1.191,0,0,1-.472,1.268l-2.34,1.93a1.2,1.2,0,0,1-1.335.2l-1.766-.947a.836.836,0,0,0-1.137.345L169.018,171a.848.848,0,0,0,.345,1.143l1.766.953a1.187,1.187,0,0,1,.572,1.219l-.3,3.013a1.186,1.186,0,0,1-.8,1.085l-1.917.586a.838.838,0,0,0-.563,1.05l.666,2.2a.84.84,0,0,0,1.054.563l1.917-.578a1.2,1.2,0,0,1,1.264.464l1.926,2.342a1.212,1.212,0,0,1,.2,1.339l-.949,1.764a.854.854,0,0,0,.349,1.143l2.025,1.083a.848.848,0,0,0,1.141-.343l.951-1.768a1.193,1.193,0,0,1,1.221-.574l3.011.306a1.2,1.2,0,0,1,1.091.806l.578,1.911a.841.841,0,0,0,1.052.563l2.2-.666a.85.85,0,0,0,.569-1.046l-.582-1.917a1.193,1.193,0,0,1,.459-1.27l2.342-1.924a1.209,1.209,0,0,1,1.339-.205l1.764.947a.838.838,0,0,0,1.143-.343l1.087-2.029a.845.845,0,0,0-.349-1.141l-1.766-.949a1.18,1.18,0,0,1-.569-1.214l.306-3.025a1.2,1.2,0,0,1,.8-1.085l1.919-.578A.845.845,0,0,0,196.836,173.771Zm-8.43,6.31a6.724,6.724,0,1,1-2.749-9.1A6.724,6.724,0,0,1,188.405,180.081Z" transform="translate(-168.08 -162.512)" fill="#b6d0fb"/>
      </g>
    </g>
  </g>
  <g id="Group_786" data-name="Group 786" transform="translate(297.485 183.415)">
    <path id="Path_1966" data-name="Path 1966" d="M271.473,193.123H210.686a1.934,1.934,0,0,1,0-3.867h60.787a1.934,1.934,0,1,1,0,3.867Z" transform="translate(-208.752 -189.256)" fill="#405b91"/>
  </g>
  <g id="Group_787" data-name="Group 787" transform="translate(135.799 211.053)">
    <path id="Path_1967" data-name="Path 1967" d="M222.451,207.932H124.26a1.934,1.934,0,1,1,0-3.867h98.191a1.934,1.934,0,0,1,0,3.867Z" transform="translate(-122.326 -204.065)" fill="#405b91"/>
  </g>
  <g id="Group_788" data-name="Group 788" transform="translate(608.45 263.382)">
    <path id="Path_1968" data-name="Path 1968" d="M474.927,235.971H376.738a1.934,1.934,0,1,1,0-3.867h98.189a1.934,1.934,0,1,1,0,3.867Z" transform="translate(-374.804 -232.104)" fill="#405b91"/>
  </g>
  <g id="Group_789" data-name="Group 789" transform="translate(0 466.453)">
    <path id="Path_1969" data-name="Path 1969" d="M796.932,344.781H51.7a1.934,1.934,0,1,1,0-3.867H796.932a1.934,1.934,0,1,1,0,3.867Z" transform="translate(-49.764 -340.914)" fill="#405b91"/>
  </g>
  <g id="Group_794" data-name="Group 794" transform="translate(444.04 162.991)">
    <g id="Group_791" data-name="Group 791">
      <g id="Group_790" data-name="Group 790">
        <path id="Path_1970" data-name="Path 1970" d="M316.863,178.305a15.6,15.6,0,0,0-13.454,23.49l.257.434-15.79,15.788a2.766,2.766,0,0,0-.778,1.8,3.427,3.427,0,0,0,1.192,2.4,3.774,3.774,0,0,0,2.639,1.277,3.193,3.193,0,0,0,1.859-.632L308.539,207.1l.436.259a15.6,15.6,0,1,0,7.888-29.052Zm0,26.561a10.965,10.965,0,1,1,0-21.931h0a10.965,10.965,0,1,1,0,21.931Z" transform="translate(-287.099 -178.305)" fill="#b6d0fb"/>
      </g>
    </g>
    <g id="Group_793" data-name="Group 793" transform="translate(23.986 14.987)">
      <g id="Group_792" data-name="Group 792">
        <path id="Path_1971" data-name="Path 1971" d="M299.962,189.232h11.294v-2.89H299.962Z" transform="translate(-299.962 -186.342)" fill="#b6d0fb"/>
      </g>
    </g>
  </g>
  <g id="Group_805" data-name="Group 805" transform="translate(181.376 313.931)">
    <g id="Group_795" data-name="Group 795" transform="translate(0)">
      <path id="Path_1972" data-name="Path 1972" d="M148.645,411.927a1.934,1.934,0,0,1-1.934-1.934V261.054a1.935,1.935,0,0,1,3.869,0V409.993A1.935,1.935,0,0,1,148.645,411.927Z" transform="translate(-146.711 -259.12)" fill="#405b91"/>
    </g>
    <g id="Group_796" data-name="Group 796" transform="translate(34.613)">
      <path id="Path_1973" data-name="Path 1973" d="M167.207,411.927a1.933,1.933,0,0,1-1.934-1.934V261.054a1.934,1.934,0,0,1,3.867,0V409.993A1.933,1.933,0,0,1,167.207,411.927Z" transform="translate(-165.273 -259.12)" fill="#405b91"/>
    </g>
    <g id="Group_797" data-name="Group 797" transform="translate(0 10.179)">
      <path id="Path_1974" data-name="Path 1974" d="M183.257,268.446H148.645a1.934,1.934,0,0,1,0-3.867h34.613a1.934,1.934,0,1,1,0,3.867Z" transform="translate(-146.711 -264.579)" fill="#405b91"/>
    </g>
    <g id="Group_798" data-name="Group 798" transform="translate(0 27.195)">
      <path id="Path_1975" data-name="Path 1975" d="M183.257,277.571H148.645a1.934,1.934,0,1,1,0-3.867h34.613a1.934,1.934,0,1,1,0,3.867Z" transform="translate(-146.711 -273.704)" fill="#405b91"/>
    </g>
    <g id="Group_799" data-name="Group 799" transform="translate(0 44.21)">
      <path id="Path_1976" data-name="Path 1976" d="M183.257,286.7H148.645a1.934,1.934,0,0,1,0-3.867h34.613a1.934,1.934,0,0,1,0,3.867Z" transform="translate(-146.711 -282.829)" fill="#405b91"/>
    </g>
    <g id="Group_800" data-name="Group 800" transform="translate(0 61.226)">
      <path id="Path_1977" data-name="Path 1977" d="M183.257,295.821H148.645a1.934,1.934,0,1,1,0-3.867h34.613a1.934,1.934,0,1,1,0,3.867Z" transform="translate(-146.711 -291.954)" fill="#405b91"/>
    </g>
    <g id="Group_801" data-name="Group 801" transform="translate(0 78.241)">
      <path id="Path_1978" data-name="Path 1978" d="M183.257,304.946H148.645a1.934,1.934,0,1,1,0-3.867h34.613a1.934,1.934,0,1,1,0,3.867Z" transform="translate(-146.711 -301.079)" fill="#405b91"/>
    </g>
    <g id="Group_802" data-name="Group 802" transform="translate(0 95.256)">
      <path id="Path_1979" data-name="Path 1979" d="M183.257,314.071H148.645a1.934,1.934,0,0,1,0-3.867h34.613a1.934,1.934,0,0,1,0,3.867Z" transform="translate(-146.711 -310.204)" fill="#405b91"/>
    </g>
    <g id="Group_803" data-name="Group 803" transform="translate(0 112.272)">
      <path id="Path_1980" data-name="Path 1980" d="M183.257,323.2H148.645a1.934,1.934,0,0,1,0-3.867h34.613a1.934,1.934,0,0,1,0,3.867Z" transform="translate(-146.711 -319.329)" fill="#405b91"/>
    </g>
    <g id="Group_804" data-name="Group 804" transform="translate(0 129.285)">
      <path id="Path_1981" data-name="Path 1981" d="M183.257,332.32H148.645a1.934,1.934,0,0,1,0-3.867h34.613a1.934,1.934,0,0,1,0,3.867Z" transform="translate(-146.711 -328.453)" fill="#405b91"/>
    </g>
  </g>
  <g id="Group_808" data-name="Group 808" transform="translate(129.876 311.566)">
    <g id="Group_806" data-name="Group 806" transform="translate(3.763)">
      <path id="Path_1982" data-name="Path 1982" d="M123.366,269.317a1.934,1.934,0,0,1-1.934-1.934v-7.53a1.934,1.934,0,0,1,3.867,0v7.53A1.934,1.934,0,0,1,123.366,269.317Z" transform="translate(-121.432 -257.92)" fill="#405b91"/>
    </g>
    <g id="Group_807" data-name="Group 807" transform="translate(0 3.765)">
      <path id="Path_1983" data-name="Path 1983" d="M128.875,263.806h-7.528a1.934,1.934,0,0,1,0-3.867h7.528a1.934,1.934,0,1,1,0,3.867Z" transform="translate(-119.414 -259.939)" fill="#405b91"/>
    </g>
  </g>
  <g id="Group_811" data-name="Group 811" transform="translate(304.759 41.967)">
    <g id="Group_809" data-name="Group 809" transform="translate(3.765)">
      <path id="Path_1984" data-name="Path 1984" d="M216.633,124.881a1.934,1.934,0,0,1-1.934-1.934v-7.532a1.934,1.934,0,0,1,3.867,0v7.532A1.934,1.934,0,0,1,216.633,124.881Z" transform="translate(-214.699 -113.484)" fill="#405b91"/>
    </g>
    <g id="Group_810" data-name="Group 810" transform="translate(0 3.763)">
      <path id="Path_1985" data-name="Path 1985" d="M222.143,119.371h-7.528a1.935,1.935,0,1,1,0-3.869h7.528a1.935,1.935,0,0,1,0,3.869Z" transform="translate(-212.68 -115.502)" fill="#405b91"/>
    </g>
  </g>
  <g id="Group_814" data-name="Group 814" transform="translate(362.43 435.087)">
    <g id="Group_812" data-name="Group 812" transform="translate(0 2.586)">
      <path id="Path_1986" data-name="Path 1986" d="M252.685,331.411a1.934,1.934,0,0,1-.531-.075l-7.241-2.066a1.934,1.934,0,0,1,1.061-3.72l7.241,2.066a1.935,1.935,0,0,1-.53,3.795Z" transform="translate(-243.51 -325.48)" fill="#405b91"/>
    </g>
    <g id="Group_813" data-name="Group 813" transform="translate(2.585)">
      <path id="Path_1987" data-name="Path 1987" d="M246.832,335.2a2.007,2.007,0,0,1-.531-.073,1.935,1.935,0,0,1-1.33-2.391l2.068-7.241a1.933,1.933,0,1,1,3.718,1.061l-2.068,7.241A1.932,1.932,0,0,1,246.832,335.2Z" transform="translate(-244.896 -324.093)" fill="#405b91"/>
    </g>
  </g>
  <g id="Group_817" data-name="Group 817" transform="translate(324.27 207.431)">
    <g id="Group_815" data-name="Group 815" transform="translate(0 2.587)">
      <path id="Path_1988" data-name="Path 1988" d="M232.284,209.447a1.956,1.956,0,0,1-.531-.075l-7.239-2.068a1.933,1.933,0,1,1,1.061-3.718l7.241,2.066a1.935,1.935,0,0,1-.531,3.795Z" transform="translate(-223.11 -203.511)" fill="#405b91"/>
    </g>
    <g id="Group_816" data-name="Group 816" transform="translate(2.586)">
      <path id="Path_1989" data-name="Path 1989" d="M226.433,213.233a1.879,1.879,0,0,1-.531-.076,1.934,1.934,0,0,1-1.33-2.391l2.068-7.239a1.933,1.933,0,1,1,3.718,1.061l-2.068,7.241A1.936,1.936,0,0,1,226.433,213.233Z" transform="translate(-224.497 -202.123)" fill="#405b91"/>
    </g>
  </g>
  <g id="Group_855" data-name="Group 855" transform="translate(290.387 106.621)">
    <g id="Group_819" data-name="Group 819" transform="translate(0 0)">
      <g id="Group_818" data-name="Group 818" transform="translate(0 0)">
        <circle id="Ellipse_101" data-name="Ellipse 101" cx="26.865" cy="26.865" r="26.865" transform="translate(0 37.992) rotate(-45)" fill="#b6d0fb"/>
      </g>
    </g>
    <g id="Group_825" data-name="Group 825" transform="translate(17.089 17.089)">
      <g id="Group_821" data-name="Group 821" transform="translate(0.779 0.778)">
        <g id="Group_820" data-name="Group 820">
          <circle id="Ellipse_102" data-name="Ellipse 102" cx="20.125" cy="20.125" r="20.125" fill="#fff"/>
        </g>
      </g>
      <g id="Group_824" data-name="Group 824">
        <g id="Group_823" data-name="Group 823">
          <g id="Group_822" data-name="Group 822">
            <path id="Path_1990" data-name="Path 1990" d="M235,199.071a20.9,20.9,0,1,1,20.9-20.9A20.927,20.927,0,0,1,235,199.071Zm0-40.25a19.346,19.346,0,1,0,19.346,19.346A19.368,19.368,0,0,0,235,158.821Z" transform="translate(-214.1 -157.264)" fill="#405b91"/>
          </g>
        </g>
      </g>
    </g>
    <g id="Group_830" data-name="Group 830" transform="translate(37.214 26.967)">
      <g id="Group_827" data-name="Group 827">
        <g id="Group_826" data-name="Group 826">
          <path id="Path_1991" data-name="Path 1991" d="M225.671,174.365a.777.777,0,0,1-.778-.778V163.34a.778.778,0,1,1,1.557,0v10.247A.779.779,0,0,1,225.671,174.365Z" transform="translate(-224.893 -162.561)" fill="#405b91"/>
        </g>
      </g>
      <g id="Group_829" data-name="Group 829" transform="translate(0 10.247)">
        <g id="Group_828" data-name="Group 828">
          <path id="Path_1992" data-name="Path 1992" d="M237.675,169.613h-12a.779.779,0,0,1,0-1.557h12a.779.779,0,1,1,0,1.557Z" transform="translate(-224.893 -168.056)" fill="#405b91"/>
        </g>
      </g>
    </g>
    <g id="Group_847" data-name="Group 847" transform="translate(19.345 19.346)">
      <g id="Group_832" data-name="Group 832" transform="translate(17.852)">
        <g id="Group_831" data-name="Group 831">
          <path id="Path_1993" data-name="Path 1993" d="M226.473,159.268a.794.794,0,1,1-.794-.794A.794.794,0,0,1,226.473,159.268Z" transform="translate(-224.884 -158.474)" fill="#405b91"/>
        </g>
      </g>
      <g id="Group_834" data-name="Group 834" transform="translate(30.476 5.228)">
        <g id="Group_833" data-name="Group 833">
          <circle id="Ellipse_103" data-name="Ellipse 103" cx="0.795" cy="0.795" r="0.795" fill="#405b91"/>
        </g>
      </g>
      <g id="Group_836" data-name="Group 836" transform="translate(35.705 17.853)">
        <g id="Group_835" data-name="Group 835">
          <path id="Path_1994" data-name="Path 1994" d="M235.252,169.637a.794.794,0,1,1,.794-.794A.8.8,0,0,1,235.252,169.637Z" transform="translate(-234.458 -168.048)" fill="#405b91"/>
        </g>
      </g>
      <g id="Group_838" data-name="Group 838" transform="translate(30.476 30.476)">
        <g id="Group_837" data-name="Group 837">
          <circle id="Ellipse_104" data-name="Ellipse 104" cx="0.795" cy="0.795" r="0.795" fill="#405b91"/>
        </g>
      </g>
      <g id="Group_840" data-name="Group 840" transform="translate(17.852 35.705)">
        <g id="Group_839" data-name="Group 839">
          <path id="Path_1995" data-name="Path 1995" d="M224.884,178.416a.794.794,0,1,1,.794.794A.794.794,0,0,1,224.884,178.416Z" transform="translate(-224.884 -177.622)" fill="#405b91"/>
        </g>
      </g>
      <g id="Group_842" data-name="Group 842" transform="translate(5.229 30.476)">
        <g id="Group_841" data-name="Group 841">
          <path id="Path_1996" data-name="Path 1996" d="M218.347,175.05a.8.8,0,1,1,0,1.124A.8.8,0,0,1,218.347,175.05Z" transform="translate(-218.115 -174.817)" fill="#405b91"/>
        </g>
      </g>
      <g id="Group_844" data-name="Group 844" transform="translate(0 17.852)">
        <g id="Group_843" data-name="Group 843">
          <circle id="Ellipse_105" data-name="Ellipse 105" cx="0.795" cy="0.795" r="0.795" fill="#405b91"/>
        </g>
      </g>
      <g id="Group_846" data-name="Group 846" transform="translate(5.229 5.228)">
        <g id="Group_845" data-name="Group 845">
          <path id="Path_1997" data-name="Path 1997" d="M219.471,161.511a.794.794,0,1,1-1.124,0A.795.795,0,0,1,219.471,161.511Z" transform="translate(-218.115 -161.278)" fill="#405b91"/>
        </g>
      </g>
    </g>
    <g id="Group_854" data-name="Group 854" transform="translate(65.231 26.176)">
      <g id="Group_849" data-name="Group 849">
        <g id="Group_848" data-name="Group 848">
          <path id="Path_1998" data-name="Path 1998" d="M251.977,163.694H240.7a.779.779,0,1,1,0-1.557h11.28a.779.779,0,1,1,0,1.557Z" transform="translate(-239.918 -162.137)" fill="#405b91"/>
        </g>
      </g>
      <g id="Group_851" data-name="Group 851" transform="translate(0 22.076)">
        <g id="Group_850" data-name="Group 850">
          <path id="Path_1999" data-name="Path 1999" d="M251.977,175.533H240.7a.779.779,0,1,1,0-1.557h11.28a.779.779,0,1,1,0,1.557Z" transform="translate(-239.918 -173.976)" fill="#405b91"/>
        </g>
      </g>
      <g id="Group_853" data-name="Group 853" transform="translate(4.233 11.041)">
        <g id="Group_852" data-name="Group 852">
          <path id="Path_2000" data-name="Path 2000" d="M264.037,169.615H242.967a.779.779,0,1,1,0-1.557h21.069a.779.779,0,1,1,0,1.557Z" transform="translate(-242.188 -168.058)" fill="#405b91"/>
        </g>
      </g>
    </g>
  </g>
  <g id="Group_864" data-name="Group 864" transform="translate(405.34 434.906)">
    <g id="Group_856" data-name="Group 856">
      <rect id="Rectangle_1955" data-name="Rectangle 1955" width="12.46" height="12.46" transform="translate(0.968 0.967)" fill="#fff"/>
      <path id="Path_2001" data-name="Path 2001" d="M280.814,338.39H266.42V324h14.394Zm-12.46-1.934H278.88V325.93H268.354Z" transform="translate(-266.42 -323.996)" fill="#415b91"/>
    </g>
    <g id="Group_863" data-name="Group 863" transform="translate(17.138 2.148)">
      <g id="Group_858" data-name="Group 858">
        <g id="Group_857" data-name="Group 857">
          <path id="Path_2002" data-name="Path 2002" d="M287.67,326.707H276.39a.779.779,0,1,1,0-1.559h11.28a.779.779,0,0,1,0,1.559Z" transform="translate(-275.611 -325.148)" fill="#405b91"/>
        </g>
      </g>
      <g id="Group_860" data-name="Group 860" transform="translate(0 8.54)">
        <g id="Group_859" data-name="Group 859">
          <path id="Path_2003" data-name="Path 2003" d="M291.908,331.285H276.663c-.58,0-1.052-.349-1.052-.779s.472-.778,1.052-.778h15.246c.582,0,1.052.347,1.052.778S292.49,331.285,291.908,331.285Z" transform="translate(-275.611 -329.728)" fill="#405b91"/>
        </g>
      </g>
      <g id="Group_862" data-name="Group 862" transform="translate(0 4.03)">
        <g id="Group_861" data-name="Group 861">
          <path id="Path_2004" data-name="Path 2004" d="M297.46,328.866H276.39a.779.779,0,1,1,0-1.557H297.46a.779.779,0,0,1,0,1.557Z" transform="translate(-275.611 -327.309)" fill="#405b91"/>
        </g>
      </g>
    </g>
  </g>
  <g id="Group_873" data-name="Group 873" transform="translate(105.031 251.885)">
    <g id="Group_865" data-name="Group 865" transform="translate(25.371)">
      <rect id="Rectangle_1956" data-name="Rectangle 1956" width="12.46" height="12.46" transform="translate(13.427 13.426) rotate(180)" fill="#fff"/>
      <path id="Path_2005" data-name="Path 2005" d="M134.09,240.335H119.7V225.941H134.09ZM121.63,238.4h10.526V227.875H121.63Z" transform="translate(-119.696 -225.941)" fill="#415b91"/>
    </g>
    <g id="Group_872" data-name="Group 872" transform="translate(0 2.148)">
      <g id="Group_867" data-name="Group 867" transform="translate(9.79)">
        <g id="Group_866" data-name="Group 866">
          <path id="Path_2006" data-name="Path 2006" d="M112.118,228.65H123.4a.779.779,0,0,0,0-1.557H112.118a.779.779,0,0,0,0,1.557Z" transform="translate(-111.34 -227.093)" fill="#405b91"/>
        </g>
      </g>
      <g id="Group_869" data-name="Group 869" transform="translate(5.277 8.538)">
        <g id="Group_868" data-name="Group 868">
          <path id="Path_2007" data-name="Path 2007" d="M109.974,233.229h15.244c.582,0,1.052-.347,1.052-.778s-.47-.779-1.052-.779H109.974c-.582,0-1.054.349-1.054.779S109.392,233.229,109.974,233.229Z" transform="translate(-108.92 -231.672)" fill="#405b91"/>
        </g>
      </g>
      <g id="Group_871" data-name="Group 871" transform="translate(0 4.03)">
        <g id="Group_870" data-name="Group 870">
          <path id="Path_2008" data-name="Path 2008" d="M106.868,230.811h21.071a.779.779,0,0,0,0-1.557H106.868a.779.779,0,0,0,0,1.557Z" transform="translate(-106.09 -229.254)" fill="#405b91"/>
        </g>
      </g>
    </g>
  </g>
  <g id="Group_889" data-name="Group 889" transform="translate(491.797 281.659)">
    <g id="Group_874" data-name="Group 874" transform="translate(21.22 18.19)">
      <rect id="Rectangle_1957" data-name="Rectangle 1957" width="3.868" height="166.318" fill="#3f5b91"/>
    </g>
    <g id="Group_875" data-name="Group 875" transform="translate(11.254)">
      <rect id="Rectangle_1958" data-name="Rectangle 1958" width="23.798" height="38.314" rx="6.153" fill="#b6d0fb"/>
    </g>
    <g id="Group_877" data-name="Group 877" transform="translate(38.203 25.777)">
      <g id="Group_876" data-name="Group 876">
        <path id="Path_2009" data-name="Path 2009" d="M333.638,257.046l4.082.656c.914.145,1.307-1.251.386-1.4l-4.082-.656c-.912-.147-1.305,1.251-.386,1.4Z" transform="translate(-333.114 -255.636)" fill="#3f5b91"/>
      </g>
    </g>
    <g id="Group_879" data-name="Group 879" transform="translate(37.677 16.705)">
      <g id="Group_878" data-name="Group 878">
        <path id="Path_2010" data-name="Path 2010" d="M333.742,252.389a11.835,11.835,0,0,1,3.205-.112c.929.088.923-1.363,0-1.451a13.251,13.251,0,0,0-3.591.164c-.917.162-.528,1.559.386,1.4Z" transform="translate(-332.832 -250.771)" fill="#3f5b91"/>
      </g>
    </g>
    <g id="Group_881" data-name="Group 881" transform="translate(37.274 7.554)">
      <g id="Group_880" data-name="Group 880">
        <path id="Path_2011" data-name="Path 2011" d="M333.487,248.559l3.129-1.242c.858-.339.483-1.744-.386-1.4L333.1,247.16c-.858.339-.483,1.743.386,1.4Z" transform="translate(-332.616 -245.864)" fill="#3f5b91"/>
      </g>
    </g>
    <g id="Group_883" data-name="Group 883" transform="translate(1.672 26.349)">
      <g id="Group_882" data-name="Group 882">
        <path id="Path_2012" data-name="Path 2012" d="M314.435,258.128a16.546,16.546,0,0,0,3.129-.744c.878-.3.5-1.7-.386-1.4a16.543,16.543,0,0,1-3.129.744c-.921.129-.53,1.525.386,1.4Z" transform="translate(-313.523 -255.943)" fill="#3f5b91"/>
      </g>
    </g>
    <g id="Group_885" data-name="Group 885" transform="translate(0 16.775)">
      <g id="Group_884" data-name="Group 884">
        <path id="Path_2013" data-name="Path 2013" d="M313.327,252.26a15.985,15.985,0,0,1,3.936.6.726.726,0,0,0,.384-1.4,17.646,17.646,0,0,0-4.32-.654.726.726,0,0,0,0,1.451Z" transform="translate(-312.627 -250.809)" fill="#3f5b91"/>
      </g>
    </g>
    <g id="Group_887" data-name="Group 887" transform="translate(1.462 4.858)">
      <g id="Group_886" data-name="Group 886">
        <path id="Path_2014" data-name="Path 2014" d="M313.915,245.856l3.133,1c.891.285,1.274-1.115.386-1.4q-1.566-.5-3.133-1c-.891-.283-1.274,1.117-.386,1.4Z" transform="translate(-313.411 -244.418)" fill="#3f5b91"/>
      </g>
    </g>
    <g id="Group_888" data-name="Group 888" transform="translate(14.129 164.532)">
      <path id="Path_2015" data-name="Path 2015" d="M320.2,352.278l2.579-22.23h12.57l2.9,21.908Z" transform="translate(-320.204 -330.048)" fill="#405b91"/>
    </g>
  </g>
  <g id="Group_958" data-name="Group 958" transform="translate(96.066 348.783)">
    <g id="Group_903" data-name="Group 903" transform="translate(0 2.06)">
      <g id="Group_892" data-name="Group 892" transform="translate(4.707)">
        <g id="Group_890" data-name="Group 890" transform="translate(0.822 0.826)">
          <path id="Path_2016" data-name="Path 2016" d="M152.022,289.683c-.571-3.535-3.075-12.656-8.583-9.769-8.913,4.675,1.839,22.414-8.9,25.541-.574-7.071-2.094-11.942-5.286-11.653-6.584.6-4.835,15.915-4.943,19.361s-.278,6.953-.433,10.508c-7.748,1.389-6.217-18.819-10.929-21.614-7.326-4.345-8.883,5.339-8.682,9.814.343,7.612,2.391,16.721,9.54,20.763,2.359,1.333,6.515,2.838,9.752,2.566a101.609,101.609,0,0,0,1.231,17.912.065.065,0,0,0,.125,0l0-.013,4.339.233,0,.08c-.041,1.909,2.941,1.911,2.967,0,.052-3.674,2.31-21.709,2.581-36.994,3.466.517,7.824-1.1,10.319-2.926C152.515,308.065,153.382,298.083,152.022,289.683Z" transform="translate(-104.247 -279.358)" fill="#6cdd6c"/>
        </g>
        <g id="Group_891" data-name="Group 891">
          <path id="Path_2017" data-name="Path 2017" d="M131.09,356.052a2.422,2.422,0,0,1-1.251-.339,2.081,2.081,0,0,1-.938-1.212l-3.2-.173-1.165.039-.177-.731a98.943,98.943,0,0,1-1.247-17.2,21.3,21.3,0,0,1-9.331-2.706c-7.627-4.313-9.624-14.041-9.957-21.442-.132-2.978.494-9.137,3.826-11.134,1.691-1.014,3.744-.82,6.1.576,2.279,1.35,3.146,5.5,4.153,10.3,1.359,6.5,2.583,11.19,5.566,11.263l.071-1.6c.125-2.762.248-5.5.33-8.179.017-.526-.011-1.335-.047-2.327-.207-6.029-.595-17.256,5.738-17.828a3.472,3.472,0,0,1,2.644.847c1.766,1.486,2.9,4.923,3.442,10.487,4-1.783,3.793-6.42,3.558-11.731-.239-5.37-.487-10.923,4.237-13.4a4.565,4.565,0,0,1,4.35-.19c3.936,1.969,5.286,9.681,5.428,10.554h0c1.042,6.443,1.488,18.209-7.231,24.607a17.153,17.153,0,0,1-10,3.166c-.226,9.98-1.247,20.972-1.932,28.317-.343,3.683-.613,6.588-.63,7.783a2.2,2.2,0,0,1-1.132,1.941A2.492,2.492,0,0,1,131.09,356.052Zm-5.223-3.364,4.613.25-.022.8c-.011.382.127.5.231.563a.843.843,0,0,0,.8,0,.549.549,0,0,0,.285-.522c.017-1.259.278-4.05.638-7.912.7-7.541,1.762-18.936,1.941-29.086l.017-.938.929.138c3.2.477,7.392-1.074,9.711-2.775,8.013-5.878,7.561-16.943,6.579-23.016h0c-.429-2.661-1.932-8.041-4.539-9.344a2.968,2.968,0,0,0-2.849.173c-3.8,1.991-3.584,6.791-3.356,11.871.248,5.587.53,11.919-5.7,13.734l-.97.281L134.1,305.9c-.572-7.047-1.924-9.564-2.957-10.431a1.841,1.841,0,0,0-1.434-.468c-4.783.433-4.417,11.037-4.24,16.133.035,1.037.063,1.885.047,2.435-.084,2.687-.207,5.432-.332,8.2l-.132,2.974-.647.116c-5.3.949-6.795-6.189-8.113-12.492-.848-4.052-1.727-8.244-3.381-9.225-1.8-1.063-3.28-1.261-4.412-.582-2.456,1.473-3.161,6.7-3.028,9.65.315,6.987,2.152,16.143,9.124,20.083,2.405,1.359,6.338,2.7,9.277,2.463l.9-.074-.006.9A101.879,101.879,0,0,0,125.867,352.688Z" transform="translate(-103.806 -278.915)" fill="#50aa50"/>
        </g>
      </g>
      <g id="Group_895" data-name="Group 895" transform="translate(2.81 75.675)">
        <g id="Group_894" data-name="Group 894">
          <g id="Group_893" data-name="Group 893">
            <path id="Path_2018" data-name="Path 2018" d="M144.756,359.5H113.274a3.314,3.314,0,0,1-3.338-2.732l-7.147-36.692,2.965-.58,7.149,36.694a.335.335,0,0,0,.371.287h31.482a.335.335,0,0,0,.371-.285l7.091-36.694,2.967.572-7.091,36.7A3.312,3.312,0,0,1,144.756,359.5Z" transform="translate(-102.789 -319.498)" fill="#415b91"/>
          </g>
        </g>
      </g>
      <g id="Group_902" data-name="Group 902" transform="translate(0 62.935)">
        <g id="Group_898" data-name="Group 898" transform="translate(0.688 0.688)">
          <g id="Group_896" data-name="Group 896" transform="translate(0.822 0.824)">
            <path id="Path_2019" data-name="Path 2019" d="M103.711,313.477h52.254c.891,0,1.62.983,1.62,2.189v7.944c0,1.206-.729,2.191-1.62,2.191H103.711c-.889,0-1.619-.985-1.619-2.191v-7.944C102.092,314.46,102.821,313.477,103.711,313.477Z" transform="translate(-102.092 -313.477)" fill="#b6d0fb"/>
          </g>
          <g id="Group_897" data-name="Group 897">
            <path id="Path_2020" data-name="Path 2020" d="M156.346,327.005H104.092a2.775,2.775,0,0,1-2.441-3.012v-7.945a2.776,2.776,0,0,1,2.441-3.013h52.254a2.776,2.776,0,0,1,2.443,3.013v7.945A2.775,2.775,0,0,1,156.346,327.005Zm-52.254-12.324c-.375,0-.8.586-.8,1.367v7.945c0,.781.421,1.365.8,1.365h52.254c.377,0,.8-.584.8-1.365v-7.945c0-.781-.421-1.367-.8-1.367Z" transform="translate(-101.651 -313.035)" fill="#405b91"/>
          </g>
        </g>
        <g id="Group_901" data-name="Group 901">
          <g id="Group_899" data-name="Group 899" transform="translate(0.822 0.824)">
            <path id="Path_2021" data-name="Path 2021" d="M156.284,326.808H104.03a2.643,2.643,0,0,1-2.307-2.877v-7.945a2.643,2.643,0,0,1,2.307-2.877h52.254a2.643,2.643,0,0,1,2.309,2.877v7.945A2.643,2.643,0,0,1,156.284,326.808ZM104.03,314.484c-.44,0-.93.615-.93,1.5v7.945c0,.884.49,1.5.93,1.5h52.254c.442,0,.932-.617.932-1.5v-7.945c0-.886-.49-1.5-.932-1.5Z" transform="translate(-101.723 -313.108)" fill="#b6d0fb"/>
          </g>
          <g id="Group_900" data-name="Group 900">
            <path id="Path_2022" data-name="Path 2022" d="M156.665,328.012H104.411a3.455,3.455,0,0,1-3.129-3.7v-7.944a3.457,3.457,0,0,1,3.129-3.7h52.254a3.457,3.457,0,0,1,3.131,3.7v7.944A3.455,3.455,0,0,1,156.665,328.012Zm-52.159-12.324a1.054,1.054,0,0,0-.2.681v7.944a.948.948,0,0,0,.233.7l52.13-.028c-.062-.013.108-.257.108-.677v-7.944a.966.966,0,0,0-.231-.709Z" transform="translate(-101.282 -312.666)" fill="#405b91"/>
          </g>
        </g>
      </g>
    </g>
    <g id="Group_905" data-name="Group 905" transform="translate(8.138 33.856)">
      <g id="Group_904" data-name="Group 904">
        <path id="Path_2023" data-name="Path 2023" d="M106.336,297.424l2.577.328c.923.117.916-1.333,0-1.449l-2.577-.33c-.923-.117-.916,1.333,0,1.451Z" transform="translate(-105.646 -295.966)" fill="#50aa50"/>
      </g>
    </g>
    <g id="Group_907" data-name="Group 907" transform="translate(12.62 23.206)">
      <g id="Group_906" data-name="Group 906">
        <path id="Path_2024" data-name="Path 2024" d="M108.05,290.956v1.288a.726.726,0,0,0,1.451,0v-1.288a.726.726,0,0,0-1.451,0Z" transform="translate(-108.05 -290.255)" fill="#50aa50"/>
      </g>
    </g>
    <g id="Group_909" data-name="Group 909" transform="translate(16.548 34.805)">
      <g id="Group_908" data-name="Group 908">
        <path id="Path_2025" data-name="Path 2025" d="M111.244,298.876l1.887-1.05c.817-.455.086-1.708-.731-1.253l-1.887,1.052c-.817.453-.086,1.706.731,1.251Z" transform="translate(-110.157 -296.476)" fill="#50aa50"/>
      </g>
    </g>
    <g id="Group_911" data-name="Group 911" transform="translate(9.134 50.923)">
      <g id="Group_910" data-name="Group 910">
        <path id="Path_2026" data-name="Path 2026" d="M107.233,308.089l2.273-1.589c.759-.53.035-1.788-.733-1.251l-2.271,1.589c-.759.531-.035,1.788.731,1.251Z" transform="translate(-106.181 -305.119)" fill="#50aa50"/>
      </g>
    </g>
    <g id="Group_913" data-name="Group 913" transform="translate(4.264 39.97)">
      <g id="Group_912" data-name="Group 912">
        <path id="Path_2027" data-name="Path 2027" d="M104.056,300.7l1.615.634c.869.341,1.246-1.061.386-1.4l-1.617-.634c-.869-.341-1.246,1.061-.384,1.4Z" transform="translate(-103.569 -299.246)" fill="#50aa50"/>
      </g>
    </g>
    <g id="Group_915" data-name="Group 915" transform="translate(14.582 46.704)">
      <g id="Group_914" data-name="Group 914">
        <path id="Path_2028" data-name="Path 2028" d="M109.8,304.31a1.024,1.024,0,0,1,.763.444c.595.722,1.617-.31,1.026-1.026a2.414,2.414,0,0,0-1.788-.869c-.932-.067-.927,1.384,0,1.451Z" transform="translate(-109.102 -302.857)" fill="#50aa50"/>
      </g>
    </g>
    <g id="Group_917" data-name="Group 917" transform="translate(18.392 54.455)">
      <g id="Group_916" data-name="Group 916">
        <path id="Path_2029" data-name="Path 2029" d="M111.214,307.539a4.928,4.928,0,0,0,.354,2.825c.362.858,1.613.119,1.253-.731a3.067,3.067,0,0,1-.209-1.708c.142-.914-1.255-1.307-1.4-.386Z" transform="translate(-111.145 -307.013)" fill="#50aa50"/>
      </g>
    </g>
    <g id="Group_919" data-name="Group 919" transform="translate(25.525 53.821)">
      <g id="Group_918" data-name="Group 918">
        <path id="Path_2030" data-name="Path 2030" d="M115.484,308.1l1.285.343a.726.726,0,0,0,.384-1.4l-1.283-.343a.726.726,0,0,0-.386,1.4Z" transform="translate(-114.97 -306.673)" fill="#50aa50"/>
      </g>
    </g>
    <g id="Group_921" data-name="Group 921" transform="translate(30.658 40.294)">
      <g id="Group_920" data-name="Group 920">
        <path id="Path_2031" data-name="Path 2031" d="M117.734,300.114a2.411,2.411,0,0,0,.867,2.109c.71.6,1.742-.421,1.026-1.026a1.112,1.112,0,0,1-.442-1.083c.084-.93-1.367-.923-1.451,0Z" transform="translate(-117.723 -299.419)" fill="#50aa50"/>
      </g>
    </g>
    <g id="Group_923" data-name="Group 923" transform="translate(28.401 30.313)">
      <g id="Group_922" data-name="Group 922">
        <path id="Path_2032" data-name="Path 2032" d="M116.94,294.379a2.247,2.247,0,0,0-.375,1.85c.162.917,1.561.53,1.4-.386a.8.8,0,0,1,.229-.731c.552-.753-.7-1.477-1.253-.733Z" transform="translate(-116.513 -294.066)" fill="#50aa50"/>
      </g>
    </g>
    <g id="Group_925" data-name="Group 925" transform="translate(36.792 34.164)">
      <g id="Group_924" data-name="Group 924">
        <path id="Path_2033" data-name="Path 2033" d="M121.013,296.833v1.288a.726.726,0,0,0,1.451,0v-1.288a.726.726,0,0,0-1.451,0Z" transform="translate(-121.013 -296.132)" fill="#50aa50"/>
      </g>
    </g>
    <g id="Group_927" data-name="Group 927" transform="translate(22.963 31.215)">
      <g id="Group_926" data-name="Group 926">
        <path id="Path_2034" data-name="Path 2034" d="M113.927,295.926l.966.645c.779.518,1.507-.737.733-1.253q-.484-.322-.968-.645c-.779-.518-1.5.736-.731,1.253Z" transform="translate(-113.597 -294.55)" fill="#50aa50"/>
      </g>
    </g>
    <g id="Group_929" data-name="Group 929" transform="translate(25.535 19.292)">
      <g id="Group_928" data-name="Group 928">
        <path id="Path_2035" data-name="Path 2035" d="M115.161,289.422a1.786,1.786,0,0,1,.451,1.093c.073.925,1.523.932,1.451,0a3.488,3.488,0,0,0-.876-2.12c-.608-.709-1.63.321-1.026,1.027Z" transform="translate(-114.976 -288.156)" fill="#50aa50"/>
      </g>
    </g>
    <g id="Group_931" data-name="Group 931" transform="translate(29.38 15.471)">
      <g id="Group_930" data-name="Group 930">
        <path id="Path_2036" data-name="Path 2036" d="M117.038,286.808v1.934a.726.726,0,0,0,1.451,0v-1.934a.726.726,0,0,0-1.451,0Z" transform="translate(-117.038 -286.107)" fill="#50aa50"/>
      </g>
    </g>
    <g id="Group_933" data-name="Group 933" transform="translate(38.142 23.445)">
      <g id="Group_932" data-name="Group 932">
        <path id="Path_2037" data-name="Path 2037" d="M121.942,291.63q.313.33.628.66c.645.677,1.669-.349,1.026-1.026l-.628-.66c-.645-.677-1.671.349-1.026,1.026Z" transform="translate(-121.737 -290.383)" fill="#50aa50"/>
      </g>
    </g>
    <g id="Group_935" data-name="Group 935" transform="translate(39.087 14.597)">
      <g id="Group_934" data-name="Group 934">
        <path id="Path_2038" data-name="Path 2038" d="M122.942,287.09l1.928.11c.932.054.93-1.4,0-1.451l-1.928-.11c-.932-.052-.929,1.4,0,1.451Z" transform="translate(-122.244 -285.638)" fill="#50aa50"/>
      </g>
    </g>
    <g id="Group_937" data-name="Group 937" transform="translate(41.626 3.197)">
      <g id="Group_936" data-name="Group 936">
        <path id="Path_2039" data-name="Path 2039" d="M123.819,280.765q.643.643,1.289,1.288a.726.726,0,0,0,1.026-1.026q-.643-.646-1.289-1.29a.726.726,0,0,0-1.026,1.027Z" transform="translate(-123.605 -279.525)" fill="#50aa50"/>
      </g>
    </g>
    <g id="Group_939" data-name="Group 939" transform="translate(47.429)">
      <g id="Group_938" data-name="Group 938">
        <path id="Path_2040" data-name="Path 2040" d="M126.717,278.511v2.256a.726.726,0,0,0,1.451,0v-2.256a.726.726,0,0,0-1.451,0Z" transform="translate(-126.717 -277.81)" fill="#50aa50"/>
      </g>
    </g>
    <g id="Group_941" data-name="Group 941" transform="translate(48.683 12.239)">
      <g id="Group_940" data-name="Group 940">
        <path id="Path_2041" data-name="Path 2041" d="M128.764,286.409l.64-.972c.515-.781-.74-1.509-1.253-.731-.213.323-.425.647-.64.97-.515.781.74,1.509,1.253.733Z" transform="translate(-127.39 -284.374)" fill="#50aa50"/>
      </g>
    </g>
    <g id="Group_943" data-name="Group 943" transform="translate(44.268 26.437)">
      <g id="Group_942" data-name="Group 942">
        <path id="Path_2042" data-name="Path 2042" d="M125.895,294.067c.539-.209,1.078-.42,1.619-.628.86-.336.485-1.738-.386-1.4l-1.619.628c-.86.336-.487,1.738.386,1.4Z" transform="translate(-125.022 -291.988)" fill="#50aa50"/>
      </g>
    </g>
    <g id="Group_945" data-name="Group 945" transform="translate(50.653 24.743)">
      <g id="Group_944" data-name="Group 944">
        <path id="Path_2043" data-name="Path 2043" d="M129.354,292.829l1.609-.334c.914-.188.526-1.587-.386-1.4l-1.609.334c-.914.19-.526,1.589.386,1.4Z" transform="translate(-128.446 -291.08)" fill="#50aa50"/>
      </g>
    </g>
    <g id="Group_947" data-name="Group 947" transform="translate(47.429 32.553)">
      <g id="Group_946" data-name="Group 946">
        <path id="Path_2044" data-name="Path 2044" d="M126.717,295.969v.321a.726.726,0,0,0,1.451,0v-.321a.726.726,0,0,0-1.451,0Z" transform="translate(-126.717 -295.268)" fill="#50aa50"/>
      </g>
    </g>
    <g id="Group_949" data-name="Group 949" transform="translate(33.912 53.44)">
      <g id="Group_948" data-name="Group 948">
        <path id="Path_2045" data-name="Path 2045" d="M120.531,308.49l.968-.645c.772-.515.047-1.771-.733-1.253l-.968.645c-.772.515-.047,1.771.733,1.253Z" transform="translate(-119.468 -306.469)" fill="#50aa50"/>
      </g>
    </g>
    <g id="Group_951" data-name="Group 951" transform="translate(32.882 58.33)">
      <g id="Group_950" data-name="Group 950">
        <path id="Path_2046" data-name="Path 2046" d="M120.162,311.569a4.019,4.019,0,0,1,1.975-1.057c.908-.213.524-1.611-.386-1.4a5.511,5.511,0,0,0-2.614,1.43c-.675.645.352,1.671,1.026,1.026Z" transform="translate(-118.916 -309.091)" fill="#50aa50"/>
      </g>
    </g>
    <g id="Group_953" data-name="Group 953" transform="translate(28.069 60.58)">
      <g id="Group_952" data-name="Group 952">
        <path id="Path_2047" data-name="Path 2047" d="M116.421,311.4l.326.642c.423.834,1.676.1,1.253-.731-.11-.214-.218-.429-.328-.641-.423-.834-1.675-.1-1.251.731Z" transform="translate(-116.335 -310.298)" fill="#50aa50"/>
      </g>
    </g>
    <g id="Group_955" data-name="Group 955" transform="translate(22.267 61.897)">
      <g id="Group_954" data-name="Group 954">
        <path id="Path_2048" data-name="Path 2048" d="M113.588,312.346a3.617,3.617,0,0,0,2.5.347c.914-.185.528-1.583-.386-1.4a1.963,1.963,0,0,1-1.387-.2c-.826-.431-1.561.82-.731,1.253Z" transform="translate(-113.223 -311.004)" fill="#50aa50"/>
      </g>
    </g>
    <g id="Group_957" data-name="Group 957" transform="translate(33.932 47.662)">
      <g id="Group_956" data-name="Group 956">
        <path id="Path_2049" data-name="Path 2049" d="M120.169,305.19l2.9-.362c.914-.114.925-1.566,0-1.451l-2.9.364c-.914.114-.925,1.564,0,1.449Z" transform="translate(-119.479 -303.37)" fill="#50aa50"/>
      </g>
    </g>
  </g>
  <g id="Group_965" data-name="Group 965" transform="translate(252.782 272.366)">
    <g id="Group_960" data-name="Group 960" transform="translate(4.542 15.831)">
      <g id="Group_959" data-name="Group 959">
        <path id="Path_2050" data-name="Path 2050" d="M191.45,291.781q23.417-21.171,46.832-42.338c2.312-2.09-1.115-5.5-3.42-3.418l-46.83,42.336c-2.312,2.09,1.115,5.5,3.418,3.42Z" transform="translate(-187.264 -245.376)" fill="#d7e7ff"/>
      </g>
    </g>
    <g id="Group_962" data-name="Group 962" transform="translate(57.467 37.424)">
      <g id="Group_961" data-name="Group 961">
        <path id="Path_2051" data-name="Path 2051" d="M219.833,303.361l46.832-42.336c2.312-2.092-1.115-5.5-3.42-3.42l-46.83,42.338c-2.312,2.09,1.115,5.5,3.418,3.418Z" transform="translate(-215.647 -256.956)" fill="#d7e7ff"/>
      </g>
    </g>
    <g id="Group_964" data-name="Group 964">
      <g id="Group_963" data-name="Group 963">
        <path id="Path_2052" data-name="Path 2052" d="M188.973,336.711,287.127,241c2.23-2.176-1.19-5.594-3.42-3.42q-49.074,47.858-98.152,95.711c-2.232,2.176,1.188,5.592,3.418,3.418Z" transform="translate(-184.828 -236.886)" fill="#d7e7ff"/>
      </g>
    </g>
  </g>
  <g id="Group_1135" data-name="Group 1135" transform="translate(323.566)">
    <g id="Group_1134" data-name="Group 1134" transform="translate(0)">
      <g id="Group_972" data-name="Group 972" transform="translate(75.174 74.379)">
        <g id="Group_967" data-name="Group 967" transform="translate(7.521)">
          <g id="Group_966" data-name="Group 966">
            <rect id="Rectangle_1959" data-name="Rectangle 1959" width="2.104" height="135.075" fill="#415b91"/>
          </g>
        </g>
        <g id="Group_969" data-name="Group 969" transform="translate(0 126.502)">
          <g id="Group_968" data-name="Group 968">
            <path id="Path_2053" data-name="Path 2053" d="M279.489,207.226a8.574,8.574,0,1,1-8.574-8.572A8.574,8.574,0,0,1,279.489,207.226Z" transform="translate(-262.341 -198.654)" fill="#415b91"/>
          </g>
        </g>
        <g id="Group_971" data-name="Group 971" transform="translate(1.654 141.395)">
          <g id="Group_970" data-name="Group 970">
            <path id="Path_2054" data-name="Path 2054" d="M270.267,229.086a7.079,7.079,0,0,1-7.039-7.684,1.135,1.135,0,0,1,2.269,0,5.45,5.45,0,0,0,1.389,4.011,5.373,5.373,0,0,0,3.381,1.4,5.8,5.8,0,1,0,0-11.6,1.134,1.134,0,0,1-1.134-1.136v-6.3a1.135,1.135,0,1,1,2.269,0v5.247a8.071,8.071,0,0,1-1.136,16.063Z" transform="translate(-263.228 -206.641)" fill="#415b91"/>
          </g>
        </g>
      </g>
      <g id="Group_982" data-name="Group 982" transform="translate(0 234.74)">
        <g id="Group_974" data-name="Group 974" transform="translate(37.969 0.001)">
          <g id="Group_973" data-name="Group 973">
            <path id="Path_2055" data-name="Path 2055" d="M243.26,225.648a1.052,1.052,0,0,1,.026-2.077l46.412-6.836a1.052,1.052,0,1,1,.306,2.081l-46.411,6.836A1,1,0,0,1,243.26,225.648Z" transform="translate(-242.389 -216.723)" fill="#415b91"/>
          </g>
        </g>
        <g id="Group_976" data-name="Group 976" transform="translate(84.38)">
          <g id="Group_975" data-name="Group 975">
            <path id="Path_2056" data-name="Path 2056" d="M310.826,241.094a1.071,1.071,0,0,1-.308-.1l-42.676-22.281a1.052,1.052,0,1,1,.973-1.865l42.677,22.281a1.052,1.052,0,0,1-.668,1.969Z" transform="translate(-267.278 -216.722)" fill="#415b91"/>
          </g>
        </g>
        <g id="Group_977" data-name="Group 977" transform="translate(0 4.83)">
          <rect id="Rectangle_1960" data-name="Rectangle 1960" width="137.256" height="88.316" rx="5.869" transform="translate(15.12 0) rotate(9.857)" fill="#fff"/>
          <path id="Path_2057" data-name="Path 2057" d="M347.873,329.348a12.837,12.837,0,0,1-2.2-.19L232.812,309.547a12.8,12.8,0,0,1-10.42-14.806L233.625,230.1a12.817,12.817,0,0,1,14.8-10.42L361.29,239.287a12.8,12.8,0,0,1,10.424,14.8l-11.233,64.645A12.828,12.828,0,0,1,347.873,329.348ZM246.231,222.387a9.915,9.915,0,0,0-9.749,8.207l-11.233,64.645a9.9,9.9,0,0,0,8.059,11.449L346.173,326.3a9.907,9.907,0,0,0,11.447-8.057l11.233-64.645a9.9,9.9,0,0,0-8.057-11.449L247.931,222.533A9.955,9.955,0,0,0,246.231,222.387Z" transform="translate(-221.877 -219.161)" fill="#415b91"/>
        </g>
        <g id="Group_978" data-name="Group 978" transform="translate(6.769 12.276)">
          <rect id="Rectangle_1961" data-name="Rectangle 1961" width="125.246" height="74.644" rx="3.75" transform="matrix(0.985, 0.171, -0.171, 0.985, 13.097, 0.318)" fill="#b6d0fb"/>
          <path id="Path_2058" data-name="Path 2058" d="M343.486,318.925a8.94,8.94,0,0,1-1.507-.131l-109.107-18.96a8.7,8.7,0,0,1-7.084-10.062l10.295-59.253a8.705,8.705,0,0,1,10.064-7.084l109.105,18.958a8.712,8.712,0,0,1,7.086,10.064l-10.295,59.251a8.709,8.709,0,0,1-8.557,7.216Zm-1.013-2.989a5.8,5.8,0,0,0,6.709-4.721l10.3-59.255a5.807,5.807,0,0,0-4.721-6.707l-109.107-18.96a5.819,5.819,0,0,0-6.711,4.723l-10.3,59.253a5.806,5.806,0,0,0,4.723,6.709Z" transform="translate(-225.657 -223.305)" fill="#405b91"/>
        </g>
        <g id="Group_979" data-name="Group 979" transform="translate(69.489 69.746)">
          <path id="Path_2059" data-name="Path 2059" d="M260.42,280.98l28.364-26,15.7,33.652Z" transform="translate(-258.316 -253.382)" fill="#fff"/>
          <path id="Path_2060" data-name="Path 2060" d="M307.118,290.649l-47.826-8.309,30.786-28.215ZM263.5,281.107l40.3,7L289.44,257.33Z" transform="translate(-259.292 -254.125)" fill="#415b91"/>
        </g>
        <g id="Group_980" data-name="Group 980" transform="translate(13.404 39.907)">
          <path id="Path_2061" data-name="Path 2061" d="M230.343,285.071l50.286-46.088,27.83,59.661Z" transform="translate(-228.24 -237.379)" fill="#fff"/>
          <path id="Path_2062" data-name="Path 2062" d="M311.1,300.658,229.215,286.43l52.708-48.307ZM233.42,285.2l74.355,12.921-26.49-56.789Z" transform="translate(-229.215 -238.123)" fill="#415b91"/>
        </g>
        <g id="Group_981" data-name="Group 981" transform="translate(110.66 41.044)">
          <path id="Path_2063" data-name="Path 2063" d="M295.851,247.489a7.032,7.032,0,1,1-5.725-8.132A7.032,7.032,0,0,1,295.851,247.489Z" transform="translate(-280.923 -238.284)" fill="#fff"/>
          <path id="Path_2064" data-name="Path 2064" d="M289.387,254.734a8.159,8.159,0,0,1-1.387-.119,7.983,7.983,0,1,1,1.387.119Zm-.028-14.067a6.065,6.065,0,1,0,5.988,7.1h0a6.075,6.075,0,0,0-5.988-7.1Z" transform="translate(-281.371 -238.733)" fill="#415b91"/>
        </g>
      </g>
      <g id="Group_984" data-name="Group 984" transform="translate(65.293 69.737)">
        <g id="Group_983" data-name="Group 983">
          <rect id="Rectangle_1962" data-name="Rectangle 1962" width="105.406" height="11.599" fill="#b6d0fb"/>
        </g>
      </g>
      <g id="Group_1133" data-name="Group 1133" transform="translate(105.004)">
        <g id="Group_1111" data-name="Group 1111">
          <g id="Group_1096" data-name="Group 1096">
            <g id="Group_1057" data-name="Group 1057" transform="translate(122.303)">
              <g id="Group_986" data-name="Group 986" transform="translate(0 0.153)">
                <g id="Group_985" data-name="Group 985">
                  <path id="Path_2065" data-name="Path 2065" d="M378.92,400.453H343.927V91.06H378.92Zm-31.532-3.463h28.071V94.521H347.388Z" transform="translate(-343.927 -91.06)" fill="#415b91"/>
                </g>
              </g>
              <g id="Group_993" data-name="Group 993" transform="translate(0.438)">
                <g id="Group_988" data-name="Group 988">
                  <g id="Group_987" data-name="Group 987">
                    <path id="Path_2066" data-name="Path 2066" d="M378.279,125.093H344.162V90.978h34.117Zm-30.609-3.508h27.1v-27.1h-27.1Z" transform="translate(-344.162 -90.978)" fill="#415b91"/>
                  </g>
                </g>
                <g id="Group_990" data-name="Group 990" transform="translate(0.514 0.513)">
                  <g id="Group_989" data-name="Group 989" transform="translate(0 0)">
                    <rect id="Rectangle_1963" data-name="Rectangle 1963" width="3.507" height="43.286" transform="translate(0 2.48) rotate(-45)" fill="#415b91"/>
                  </g>
                </g>
                <g id="Group_992" data-name="Group 992" transform="translate(0.514 0.513)">
                  <g id="Group_991" data-name="Group 991" transform="translate(0 0)">
                    <rect id="Rectangle_1964" data-name="Rectangle 1964" width="43.286" height="3.507" transform="translate(0 30.608) rotate(-45)" fill="#415b91"/>
                  </g>
                </g>
              </g>
              <g id="Group_1000" data-name="Group 1000" transform="translate(0.438 30.607)">
                <g id="Group_995" data-name="Group 995">
                  <g id="Group_994" data-name="Group 994">
                    <path id="Path_2067" data-name="Path 2067" d="M378.279,141.507H344.162V107.392h34.117ZM347.67,138h27.1V110.9h-27.1Z" transform="translate(-344.162 -107.392)" fill="#415b91"/>
                  </g>
                </g>
                <g id="Group_997" data-name="Group 997" transform="translate(0.514 0.513)">
                  <g id="Group_996" data-name="Group 996" transform="translate(0 0)">
                    <rect id="Rectangle_1965" data-name="Rectangle 1965" width="3.507" height="43.286" transform="translate(0 2.48) rotate(-45)" fill="#415b91"/>
                  </g>
                </g>
                <g id="Group_999" data-name="Group 999" transform="translate(0.514 0.513)">
                  <g id="Group_998" data-name="Group 998" transform="translate(0 0)">
                    <rect id="Rectangle_1966" data-name="Rectangle 1966" width="43.286" height="3.507" transform="translate(0 30.608) rotate(-45)" fill="#415b91"/>
                  </g>
                </g>
              </g>
              <g id="Group_1007" data-name="Group 1007" transform="translate(0.438 61.214)">
                <g id="Group_1002" data-name="Group 1002">
                  <g id="Group_1001" data-name="Group 1001">
                    <path id="Path_2068" data-name="Path 2068" d="M378.279,157.921H344.162V123.806h34.117Zm-30.609-3.506h27.1v-27.1h-27.1Z" transform="translate(-344.162 -123.806)" fill="#415b91"/>
                  </g>
                </g>
                <g id="Group_1004" data-name="Group 1004" transform="translate(0.514 0.514)">
                  <g id="Group_1003" data-name="Group 1003" transform="translate(0 0)">
                    <rect id="Rectangle_1967" data-name="Rectangle 1967" width="3.507" height="43.286" transform="translate(0 2.48) rotate(-45)" fill="#415b91"/>
                  </g>
                </g>
                <g id="Group_1006" data-name="Group 1006" transform="translate(0.515 0.513)">
                  <g id="Group_1005" data-name="Group 1005" transform="translate(0 0)">
                    <rect id="Rectangle_1968" data-name="Rectangle 1968" width="43.286" height="3.507" transform="matrix(0.707, -0.707, 0.707, 0.707, 0, 30.609)" fill="#415b91"/>
                  </g>
                </g>
              </g>
              <g id="Group_1014" data-name="Group 1014" transform="translate(0.438 91.823)">
                <g id="Group_1009" data-name="Group 1009">
                  <g id="Group_1008" data-name="Group 1008">
                    <path id="Path_2069" data-name="Path 2069" d="M378.279,174.336H344.162V140.221h34.117Zm-30.609-3.508h27.1v-27.1h-27.1Z" transform="translate(-344.162 -140.221)" fill="#415b91"/>
                  </g>
                </g>
                <g id="Group_1011" data-name="Group 1011" transform="translate(0.514 0.513)">
                  <g id="Group_1010" data-name="Group 1010" transform="translate(0 0)">
                    <rect id="Rectangle_1969" data-name="Rectangle 1969" width="3.507" height="43.286" transform="translate(0 2.48) rotate(-45)" fill="#415b91"/>
                  </g>
                </g>
                <g id="Group_1013" data-name="Group 1013" transform="translate(0.514 0.513)">
                  <g id="Group_1012" data-name="Group 1012" transform="translate(0 0)">
                    <rect id="Rectangle_1970" data-name="Rectangle 1970" width="43.286" height="3.507" transform="translate(0 30.608) rotate(-45)" fill="#415b91"/>
                  </g>
                </g>
              </g>
              <g id="Group_1021" data-name="Group 1021" transform="translate(0.438 122.431)">
                <g id="Group_1016" data-name="Group 1016">
                  <g id="Group_1015" data-name="Group 1015">
                    <path id="Path_2070" data-name="Path 2070" d="M378.279,190.75H344.162V156.635h34.117Zm-30.609-3.507h27.1v-27.1h-27.1Z" transform="translate(-344.162 -156.635)" fill="#415b91"/>
                  </g>
                </g>
                <g id="Group_1018" data-name="Group 1018" transform="translate(0.514 0.513)">
                  <g id="Group_1017" data-name="Group 1017" transform="translate(0 0)">
                    <rect id="Rectangle_1971" data-name="Rectangle 1971" width="3.507" height="43.286" transform="translate(0 2.48) rotate(-45)" fill="#415b91"/>
                  </g>
                </g>
                <g id="Group_1020" data-name="Group 1020" transform="translate(0.515 0.513)">
                  <g id="Group_1019" data-name="Group 1019" transform="translate(0 0)">
                    <rect id="Rectangle_1972" data-name="Rectangle 1972" width="43.286" height="3.507" transform="matrix(0.707, -0.707, 0.707, 0.707, 0, 30.609)" fill="#415b91"/>
                  </g>
                </g>
              </g>
              <g id="Group_1028" data-name="Group 1028" transform="translate(0.438 153.038)">
                <g id="Group_1023" data-name="Group 1023">
                  <g id="Group_1022" data-name="Group 1022">
                    <path id="Path_2071" data-name="Path 2071" d="M378.279,207.164H344.162V173.049h34.117Zm-30.609-3.506h27.1v-27.1h-27.1Z" transform="translate(-344.162 -173.049)" fill="#415b91"/>
                  </g>
                </g>
                <g id="Group_1025" data-name="Group 1025" transform="translate(0.515 0.514)">
                  <g id="Group_1024" data-name="Group 1024" transform="translate(0 0)">
                    <rect id="Rectangle_1973" data-name="Rectangle 1973" width="3.507" height="43.286" transform="translate(0 2.48) rotate(-45)" fill="#415b91"/>
                  </g>
                </g>
                <g id="Group_1027" data-name="Group 1027" transform="translate(0.515 0.513)">
                  <g id="Group_1026" data-name="Group 1026" transform="translate(0 0)">
                    <rect id="Rectangle_1974" data-name="Rectangle 1974" width="43.286" height="3.507" transform="matrix(0.707, -0.707, 0.707, 0.707, 0, 30.609)" fill="#415b91"/>
                  </g>
                </g>
              </g>
              <g id="Group_1035" data-name="Group 1035" transform="translate(0.438 183.647)">
                <g id="Group_1030" data-name="Group 1030">
                  <g id="Group_1029" data-name="Group 1029">
                    <path id="Path_2072" data-name="Path 2072" d="M378.279,223.577H344.162V189.464h34.117Zm-30.609-3.506h27.1v-27.1h-27.1Z" transform="translate(-344.162 -189.464)" fill="#415b91"/>
                  </g>
                </g>
                <g id="Group_1032" data-name="Group 1032" transform="translate(0.515 0.513)">
                  <g id="Group_1031" data-name="Group 1031" transform="translate(0 0)">
                    <rect id="Rectangle_1975" data-name="Rectangle 1975" width="3.507" height="43.286" transform="translate(0 2.48) rotate(-45)" fill="#415b91"/>
                  </g>
                </g>
                <g id="Group_1034" data-name="Group 1034" transform="translate(0.515 0.512)">
                  <g id="Group_1033" data-name="Group 1033" transform="translate(0 0)">
                    <rect id="Rectangle_1976" data-name="Rectangle 1976" width="43.286" height="3.507" transform="matrix(0.707, -0.707, 0.707, 0.707, 0, 30.609)" fill="#415b91"/>
                  </g>
                </g>
              </g>
              <g id="Group_1042" data-name="Group 1042" transform="translate(0.438 214.254)">
                <g id="Group_1037" data-name="Group 1037">
                  <g id="Group_1036" data-name="Group 1036">
                    <path id="Path_2073" data-name="Path 2073" d="M378.279,239.993H344.162V205.878h34.117Zm-30.609-3.507h27.1v-27.1h-27.1Z" transform="translate(-344.162 -205.878)" fill="#415b91"/>
                  </g>
                </g>
                <g id="Group_1039" data-name="Group 1039" transform="translate(0.515 0.513)">
                  <g id="Group_1038" data-name="Group 1038" transform="translate(0 0)">
                    <rect id="Rectangle_1977" data-name="Rectangle 1977" width="3.507" height="43.286" transform="translate(0 2.48) rotate(-45)" fill="#415b91"/>
                  </g>
                </g>
                <g id="Group_1041" data-name="Group 1041" transform="translate(0.515 0.513)">
                  <g id="Group_1040" data-name="Group 1040" transform="translate(0 0)">
                    <rect id="Rectangle_1978" data-name="Rectangle 1978" width="43.286" height="3.507" transform="matrix(0.707, -0.707, 0.707, 0.707, 0, 30.609)" fill="#415b91"/>
                  </g>
                </g>
              </g>
              <g id="Group_1049" data-name="Group 1049" transform="translate(0.438 244.861)">
                <g id="Group_1044" data-name="Group 1044">
                  <g id="Group_1043" data-name="Group 1043">
                    <path id="Path_2074" data-name="Path 2074" d="M378.279,256.407H344.162V222.292h34.117ZM347.67,252.9h27.1V225.8h-27.1Z" transform="translate(-344.162 -222.292)" fill="#415b91"/>
                  </g>
                </g>
                <g id="Group_1046" data-name="Group 1046" transform="translate(0.515 0.514)">
                  <g id="Group_1045" data-name="Group 1045" transform="translate(0 0)">
                    <rect id="Rectangle_1979" data-name="Rectangle 1979" width="3.507" height="43.286" transform="translate(0 2.48) rotate(-45)" fill="#415b91"/>
                  </g>
                </g>
                <g id="Group_1048" data-name="Group 1048" transform="translate(0.515 0.513)">
                  <g id="Group_1047" data-name="Group 1047" transform="translate(0 0)">
                    <rect id="Rectangle_1980" data-name="Rectangle 1980" width="43.286" height="3.507" transform="matrix(0.707, -0.707, 0.707, 0.707, 0, 30.609)" fill="#415b91"/>
                  </g>
                </g>
              </g>
              <g id="Group_1056" data-name="Group 1056" transform="translate(0.438 275.468)">
                <g id="Group_1051" data-name="Group 1051">
                  <g id="Group_1050" data-name="Group 1050">
                    <path id="Path_2075" data-name="Path 2075" d="M378.279,272.821H344.162V238.706h34.117Zm-30.609-3.506h27.1v-27.1h-27.1Z" transform="translate(-344.162 -238.706)" fill="#415b91"/>
                  </g>
                </g>
                <g id="Group_1053" data-name="Group 1053" transform="translate(0.514 0.514)">
                  <g id="Group_1052" data-name="Group 1052" transform="translate(0 0)">
                    <rect id="Rectangle_1981" data-name="Rectangle 1981" width="3.507" height="43.286" transform="translate(0 2.48) rotate(-44.999)" fill="#415b91"/>
                  </g>
                </g>
                <g id="Group_1055" data-name="Group 1055" transform="translate(0.512 0.517)">
                  <g id="Group_1054" data-name="Group 1054" transform="translate(0 0)">
                    <rect id="Rectangle_1982" data-name="Rectangle 1982" width="43.286" height="3.507" transform="translate(0 30.602) rotate(-44.989)" fill="#415b91"/>
                  </g>
                </g>
              </g>
            </g>
            <g id="Group_1095" data-name="Group 1095" transform="translate(0 30.147)">
              <g id="Group_1064" data-name="Group 1064" transform="translate(183.646)">
                <g id="Group_1059" data-name="Group 1059">
                  <g id="Group_1058" data-name="Group 1058">
                    <path id="Path_2076" data-name="Path 2076" d="M410.939,141.26H376.824V107.145h34.115Zm-30.609-3.508h27.1v-27.1h-27.1Z" transform="translate(-376.824 -107.145)" fill="#415b91"/>
                  </g>
                </g>
                <g id="Group_1061" data-name="Group 1061" transform="translate(0.516 0.51)">
                  <g id="Group_1060" data-name="Group 1060" transform="translate(0 0)">
                    <rect id="Rectangle_1983" data-name="Rectangle 1983" width="43.286" height="3.507" transform="translate(0 30.614) rotate(-45.011)" fill="#415b91"/>
                  </g>
                </g>
                <g id="Group_1063" data-name="Group 1063" transform="translate(0.513 0.513)">
                  <g id="Group_1062" data-name="Group 1062" transform="translate(0 0)">
                    <rect id="Rectangle_1984" data-name="Rectangle 1984" width="3.507" height="43.286" transform="translate(0 2.48) rotate(-45)" fill="#415b91"/>
                  </g>
                </g>
              </g>
              <g id="Group_1071" data-name="Group 1071" transform="translate(153.039)">
                <g id="Group_1066" data-name="Group 1066">
                  <g id="Group_1065" data-name="Group 1065">
                    <path id="Path_2077" data-name="Path 2077" d="M394.523,141.26H360.41V107.145h34.113Zm-30.607-3.508h27.1v-27.1h-27.1Z" transform="translate(-360.41 -107.145)" fill="#415b91"/>
                  </g>
                </g>
                <g id="Group_1068" data-name="Group 1068" transform="translate(0.515 0.51)">
                  <g id="Group_1067" data-name="Group 1067" transform="translate(0 0)">
                    <rect id="Rectangle_1985" data-name="Rectangle 1985" width="43.286" height="3.507" transform="translate(0 30.614) rotate(-45.011)" fill="#415b91"/>
                  </g>
                </g>
                <g id="Group_1070" data-name="Group 1070" transform="translate(0.513 0.513)">
                  <g id="Group_1069" data-name="Group 1069" transform="translate(0 0)">
                    <rect id="Rectangle_1986" data-name="Rectangle 1986" width="3.507" height="43.286" transform="translate(0 2.48) rotate(-45)" fill="#415b91"/>
                  </g>
                </g>
              </g>
              <g id="Group_1073" data-name="Group 1073" transform="translate(122.43)">
                <g id="Group_1072" data-name="Group 1072">
                  <path id="Path_2078" data-name="Path 2078" d="M378.11,141.26H344V107.145H378.11ZM347.5,137.752h27.1v-27.1H347.5Z" transform="translate(-343.995 -107.145)" fill="#415b91"/>
                </g>
              </g>
              <g id="Group_1080" data-name="Group 1080" transform="translate(91.823)">
                <g id="Group_1075" data-name="Group 1075">
                  <g id="Group_1074" data-name="Group 1074">
                    <path id="Path_2079" data-name="Path 2079" d="M361.7,141.26H327.581V107.145H361.7Zm-30.607-3.508h27.1v-27.1h-27.1Z" transform="translate(-327.581 -107.145)" fill="#415b91"/>
                  </g>
                </g>
                <g id="Group_1077" data-name="Group 1077" transform="translate(0.514 0.513)">
                  <g id="Group_1076" data-name="Group 1076" transform="translate(0 0)">
                    <rect id="Rectangle_1987" data-name="Rectangle 1987" width="43.286" height="3.507" transform="translate(0 30.608) rotate(-45)" fill="#415b91"/>
                  </g>
                </g>
                <g id="Group_1079" data-name="Group 1079" transform="translate(0.514 0.513)">
                  <g id="Group_1078" data-name="Group 1078" transform="translate(0 0)">
                    <rect id="Rectangle_1988" data-name="Rectangle 1988" width="3.507" height="43.286" transform="translate(0 2.48) rotate(-45)" fill="#415b91"/>
                  </g>
                </g>
              </g>
              <g id="Group_1087" data-name="Group 1087" transform="translate(61.216)">
                <g id="Group_1082" data-name="Group 1082">
                  <g id="Group_1081" data-name="Group 1081">
                    <path id="Path_2080" data-name="Path 2080" d="M345.282,141.26H311.167V107.145h34.115Zm-30.609-3.508h27.1v-27.1h-27.1Z" transform="translate(-311.167 -107.145)" fill="#415b91"/>
                  </g>
                </g>
                <g id="Group_1084" data-name="Group 1084" transform="translate(0.513 0.513)">
                  <g id="Group_1083" data-name="Group 1083" transform="translate(0 0)">
                    <rect id="Rectangle_1989" data-name="Rectangle 1989" width="43.286" height="3.507" transform="translate(0 30.608) rotate(-45)" fill="#415b91"/>
                  </g>
                </g>
                <g id="Group_1086" data-name="Group 1086" transform="translate(0.513 0.513)">
                  <g id="Group_1085" data-name="Group 1085" transform="translate(0 0)">
                    <rect id="Rectangle_1990" data-name="Rectangle 1990" width="3.507" height="43.286" transform="translate(0 2.48) rotate(-45)" fill="#415b91"/>
                  </g>
                </g>
              </g>
              <g id="Group_1094" data-name="Group 1094">
                <g id="Group_1089" data-name="Group 1089" transform="translate(30.607)">
                  <g id="Group_1088" data-name="Group 1088">
                    <path id="Path_2081" data-name="Path 2081" d="M328.867,141.26H294.752V107.145h34.115Zm-30.607-3.508h27.1v-27.1h-27.1Z" transform="translate(-294.752 -107.145)" fill="#415b91"/>
                  </g>
                </g>
                <g id="Group_1091" data-name="Group 1091" transform="translate(0 0.513)">
                  <g id="Group_1090" data-name="Group 1090">
                    <path id="Path_2082" data-name="Path 2082" d="M310.7,141.022H280.091a1.754,1.754,0,0,1-1.238-2.995L309.46,107.42l2.478,2.48-27.614,27.614h25.649l30.094-30.094,2.48,2.48-30.609,30.607A1.746,1.746,0,0,1,310.7,141.022Z" transform="translate(-278.338 -107.42)" fill="#415b91"/>
                  </g>
                </g>
                <g id="Group_1093" data-name="Group 1093" transform="translate(31.121 0.513)">
                  <g id="Group_1092" data-name="Group 1092" transform="translate(0 0)">
                    <rect id="Rectangle_1991" data-name="Rectangle 1991" width="3.507" height="43.286" transform="translate(0 2.48) rotate(-45)" fill="#415b91"/>
                  </g>
                </g>
              </g>
            </g>
          </g>
          <g id="Group_1103" data-name="Group 1103" transform="translate(122.303 309.83)">
            <g id="Group_1098" data-name="Group 1098">
              <g id="Group_1097" data-name="Group 1097">
                <path id="Path_2083" data-name="Path 2083" d="M378.995,291.094H343.927V256.981h35.068Zm-31.463-3.506H375.39v-27.1H347.531Z" transform="translate(-343.927 -256.981)" fill="#415b91"/>
              </g>
            </g>
            <g id="Group_1100" data-name="Group 1100" transform="translate(0.529 0.513)">
              <g id="Group_1099" data-name="Group 1099">
                <path id="Path_2084" data-name="Path 2084" d="M375.672,290.344,344.21,259.736l2.549-2.48,31.463,30.607Z" transform="translate(-344.21 -257.256)" fill="#415b91"/>
              </g>
            </g>
            <g id="Group_1102" data-name="Group 1102" transform="translate(0.529 0.513)">
              <g id="Group_1101" data-name="Group 1101">
                <path id="Path_2085" data-name="Path 2085" d="M346.759,290.344l-2.549-2.48,31.462-30.607,2.55,2.48Z" transform="translate(-344.21 -257.256)" fill="#415b91"/>
              </g>
            </g>
          </g>
          <g id="Group_1110" data-name="Group 1110" transform="translate(122.303 432.373)">
            <g id="Group_1105" data-name="Group 1105">
              <g id="Group_1104" data-name="Group 1104">
                <path id="Path_2086" data-name="Path 2086" d="M378.995,356.751H343.927V322.638h35.068Zm-31.463-3.506H375.39v-27.1H347.531Z" transform="translate(-343.927 -322.638)" fill="#415b91"/>
              </g>
            </g>
            <g id="Group_1107" data-name="Group 1107" transform="translate(0.529 0.513)">
              <g id="Group_1106" data-name="Group 1106">
                <path id="Path_2087" data-name="Path 2087" d="M375.672,356,344.21,325.393l2.549-2.48,31.463,30.607Z" transform="translate(-344.21 -322.913)" fill="#415b91"/>
              </g>
            </g>
            <g id="Group_1109" data-name="Group 1109" transform="translate(0.529 0.513)">
              <g id="Group_1108" data-name="Group 1108">
                <path id="Path_2088" data-name="Path 2088" d="M346.759,356l-2.549-2.48,31.462-30.607,2.55,2.48Z" transform="translate(-344.21 -322.913)" fill="#415b91"/>
              </g>
            </g>
          </g>
        </g>
        <g id="Group_1118" data-name="Group 1118" transform="translate(122.303 337.561)">
          <g id="Group_1113" data-name="Group 1113">
            <g id="Group_1112" data-name="Group 1112">
              <path id="Path_2089" data-name="Path 2089" d="M378.995,305.954H343.927V271.839h35.068Zm-31.463-3.506H375.39v-27.1H347.531Z" transform="translate(-343.927 -271.839)" fill="#415b91"/>
            </g>
          </g>
          <g id="Group_1115" data-name="Group 1115" transform="translate(0.529 0.514)">
            <g id="Group_1114" data-name="Group 1114">
              <path id="Path_2090" data-name="Path 2090" d="M375.672,305.2,344.21,274.594l2.549-2.48,31.463,30.607Z" transform="translate(-344.21 -272.115)" fill="#415b91"/>
            </g>
          </g>
          <g id="Group_1117" data-name="Group 1117" transform="translate(0.529 0.514)">
            <g id="Group_1116" data-name="Group 1116">
              <path id="Path_2091" data-name="Path 2091" d="M346.759,305.2l-2.549-2.48,31.462-30.607,2.55,2.48Z" transform="translate(-344.21 -272.115)" fill="#415b91"/>
            </g>
          </g>
        </g>
        <g id="Group_1125" data-name="Group 1125" transform="translate(122.303 368.258)">
          <g id="Group_1120" data-name="Group 1120">
            <g id="Group_1119" data-name="Group 1119">
              <path id="Path_2092" data-name="Path 2092" d="M378.995,322.367H343.927V288.254h35.068Zm-31.463-3.506H375.39v-27.1H347.531Z" transform="translate(-343.927 -288.254)" fill="#415b91"/>
            </g>
          </g>
          <g id="Group_1122" data-name="Group 1122" transform="translate(0.529 0.513)">
            <g id="Group_1121" data-name="Group 1121">
              <path id="Path_2093" data-name="Path 2093" d="M375.672,321.616,344.21,291.009l2.549-2.48,31.463,30.607Z" transform="translate(-344.21 -288.529)" fill="#415b91"/>
            </g>
          </g>
          <g id="Group_1124" data-name="Group 1124" transform="translate(0.529 0.513)">
            <g id="Group_1123" data-name="Group 1123">
              <path id="Path_2094" data-name="Path 2094" d="M346.759,321.616l-2.549-2.48,31.462-30.607,2.55,2.48Z" transform="translate(-344.21 -288.529)" fill="#415b91"/>
            </g>
          </g>
        </g>
        <g id="Group_1132" data-name="Group 1132" transform="translate(122.303 398.865)">
          <g id="Group_1127" data-name="Group 1127">
            <g id="Group_1126" data-name="Group 1126">
              <path id="Path_2095" data-name="Path 2095" d="M378.995,338.781H343.927V304.668h35.068Zm-31.463-3.506H375.39v-27.1H347.531Z" transform="translate(-343.927 -304.668)" fill="#415b91"/>
            </g>
          </g>
          <g id="Group_1129" data-name="Group 1129" transform="translate(0.529 0.513)">
            <g id="Group_1128" data-name="Group 1128">
              <path id="Path_2096" data-name="Path 2096" d="M375.672,338.031,344.21,307.423l2.549-2.48,31.463,30.607Z" transform="translate(-344.21 -304.943)" fill="#415b91"/>
            </g>
          </g>
          <g id="Group_1131" data-name="Group 1131" transform="translate(0.529 0.513)">
            <g id="Group_1130" data-name="Group 1130">
              <path id="Path_2097" data-name="Path 2097" d="M346.759,338.031l-2.549-2.48,31.462-30.607,2.55,2.48Z" transform="translate(-344.21 -304.943)" fill="#415b91"/>
            </g>
          </g>
        </g>
      </g>
    </g>
  </g>
  <g id="Group_1137" data-name="Group 1137" transform="translate(190.041 179.991)">
    <path id="Path_2098" data-name="Path 2098" d="M152.86,188.976" transform="translate(-150.058 -186.076)" fill="#405b91"/>
    <g id="Group_1136" data-name="Group 1136">
      <path id="Path_2099" data-name="Path 2099" d="M154.159,193.222c3.733,0,3.741-5.8,0-5.8s-3.739,5.8,0,5.8Z" transform="translate(-151.357 -187.421)" fill="#405b91"/>
    </g>
  </g>
  <g id="Group_1139" data-name="Group 1139" transform="translate(505.609 119.346)">
    <path id="Path_2100" data-name="Path 2100" d="M321.558,156.481" transform="translate(-318.756 -153.581)" fill="#405b91"/>
    <g id="Group_1138" data-name="Group 1138">
      <path id="Path_2101" data-name="Path 2101" d="M322.857,160.727c3.733,0,3.741-5.8,0-5.8s-3.739,5.8,0,5.8Z" transform="translate(-320.055 -154.926)" fill="#405b91"/>
    </g>
  </g>
  <g id="Group_1141" data-name="Group 1141" transform="translate(636.472 327.089)">
    <path id="Path_2102" data-name="Path 2102" d="M391.388,267.8h1.29" transform="translate(-388.486 -264.894)" fill="#405b91"/>
    <g id="Group_1140" data-name="Group 1140">
      <path id="Path_2103" data-name="Path 2103" d="M392.734,272.04h1.29a2.9,2.9,0,0,0,0-5.8h-1.29a2.9,2.9,0,0,0,0,5.8Z" transform="translate(-389.832 -266.239)" fill="#405b91"/>
    </g>
  </g>
  <g id="Group_1143" data-name="Group 1143" transform="translate(74.701 369.67)">
    <path id="Path_2104" data-name="Path 2104" d="M91.327,290.61" transform="translate(-88.525 -287.71)" fill="#405b91"/>
    <g id="Group_1142" data-name="Group 1142">
      <path id="Path_2105" data-name="Path 2105" d="M92.626,294.856c3.733,0,3.739-5.8,0-5.8s-3.739,5.8,0,5.8Z" transform="translate(-89.824 -289.055)" fill="#405b91"/>
    </g>
  </g>
  <g id="Group_1145" data-name="Group 1145" transform="translate(352.999 90.958)">
    <path id="Path_2106" data-name="Path 2106" d="M239.975,141.271" transform="translate(-237.173 -138.37)" fill="#405b91"/>
    <g id="Group_1144" data-name="Group 1144">
      <path id="Path_2107" data-name="Path 2107" d="M241.274,145.518c3.733,0,3.739-5.8,0-5.8s-3.739,5.8,0,5.8Z" transform="translate(-238.472 -139.715)" fill="#405b91"/>
    </g>
  </g>
</svg>
