<?xml version="1.0" encoding="UTF-8"?>
<svg width="16px" height="16px" viewBox="0 0 16 16" version="1.1" xmlns="http://www.w3.org/2000/svg" xmlns:xlink="http://www.w3.org/1999/xlink">
    <!-- Generator: sketchtool 41 (35326) - http://www.bohemiancoding.com/sketch -->
    <title>173A727E-7100-4687-A5EB-BC0802377775</title>
    <desc>Created with sketchtool.</desc>
    <defs></defs>
    <g id="iphone" stroke="none" stroke-width="1" fill="none" fill-rule="evenodd">
        <g id="resources" transform="translate(-228.000000, -381.000000)" fill="#007ED5">
            <path d="M228,393 L236,393 L236,395 L228,395 L228,393 Z M228,381 L244,381 L244,383 L228,383 L228,381 Z M228,387 L244,387 L244,389 L228,389 L228,387 Z M240,393 L238,393 L238,395 L240,395 L240,397 L242,397 L242,395 L244,395 L244,393 L242,393 L242,391 L240,391 L240,393 Z" id="add-to-compare-active"></path>
        </g>
    </g>
</svg>