<?xml version="1.0" encoding="UTF-8"?>
<svg width="108px" height="32px" viewBox="0 0 108 32" version="1.1" xmlns="http://www.w3.org/2000/svg" xmlns:xlink="http://www.w3.org/1999/xlink">
    <!-- Generator: sketchtool 41 (35326) - http://www.bohemiancoding.com/sketch -->
    <title>1FE039F7-0D97-45F7-AB7C-383445F477DE</title>
    <desc>Created with sketchtool.</desc>
    <defs></defs>
    <g id="iphone" stroke="none" stroke-width="1" fill="none" fill-rule="evenodd">
        <g id="resources" transform="translate(-45.000000, -188.000000)">
            <g id="appstore" transform="translate(45.000000, 188.000000)">
                <g id="Group">
                    <path d="M104.1576,32 L3.7832,32 C1.6976,32 0,30.2976 0,28.2136 L0,3.7808 C0,1.696 1.6976,0 3.7832,0 L104.1576,0 C106.2424,0 108,1.696 108,3.7808 L108,28.2136 C108,30.2976 106.2424,32 104.1576,32 L104.1576,32 L104.1576,32 Z" id="Shape"></path>
                    <path d="M107.2256,28.2144 C107.2256,29.9072 105.8544,31.2784 104.1584,31.2784 L3.7832,31.2784 C2.088,31.2784 0.712,29.9072 0.712,28.2144 L0.712,3.78 C0.712,2.088 2.088,0.712 3.7832,0.712 L104.1576,0.712 C105.8544,0.712 107.2248,2.088 107.2248,3.78 L107.2256,28.2144 L107.2256,28.2144 L107.2256,28.2144 Z" id="Shape" fill="#000000"></path>
                    <g transform="translate(9.600000, 4.800000)" id="Shape" fill="#FFFFFF">
                        <path d="M14.5024,11.0272 C14.4792,8.4488 16.6136,7.1944 16.7112,7.136 C15.5024,5.3736 13.6288,5.1328 12.9704,5.1136 C11.3968,4.948 9.8704,6.0552 9.0688,6.0552 C8.2512,6.0552 7.0168,5.1296 5.6864,5.1568 C3.9744,5.1832 2.3728,6.1744 1.4944,7.7136 C-0.3184,10.852 1.0336,15.464 2.7704,18.0008 C3.6392,19.2432 4.6544,20.6304 5.9832,20.5816 C7.2832,20.528 7.7688,19.7528 9.3376,19.7528 C10.892,19.7528 11.348,20.5816 12.7032,20.5504 C14.0984,20.528 14.9768,19.3024 15.8152,18.0488 C16.8192,16.6248 17.2224,15.2224 17.2384,15.1504 C17.2056,15.1392 14.5288,14.1176 14.5024,11.0272 L14.5024,11.0272 Z"></path>
                        <path d="M11.9424,3.4448 C12.6416,2.5704 13.12,1.3808 12.9872,0.1736 C11.9752,0.2184 10.7096,0.8736 9.9808,1.7288 C9.336,2.4824 8.76,3.7176 8.9088,4.8792 C10.0456,4.964 11.2128,4.3056 11.9424,3.4448 L11.9424,3.4448 Z"></path>
                    </g>
                    <g transform="translate(33.600000, 14.400000)" id="Shape" fill="#FFFFFF">
                        <path d="M9.316,10.8032 L7.4992,10.8032 L6.504,7.676 L3.0448,7.676 L2.0968,10.8032 L0.328,10.8032 L3.7552,0.1568 L5.872,0.1568 L9.316,10.8032 L9.316,10.8032 Z M6.204,6.364 L5.304,3.584 C5.2088,3.3 5.0304,2.6312 4.7672,1.5784 L4.7352,1.5784 C4.6304,2.0312 4.4616,2.7 4.2296,3.584 L3.3456,6.364 L6.204,6.364 L6.204,6.364 Z"></path>
                        <path d="M18.1296,6.8704 C18.1296,8.176 17.7768,9.208 17.0712,9.9656 C16.4392,10.64 15.6544,10.9768 14.7176,10.9768 C13.7064,10.9768 12.98,10.6136 12.5376,9.8872 L12.5056,9.8872 L12.5056,13.9312 L10.8,13.9312 L10.8,5.6536 C10.8,4.8328 10.7784,3.9904 10.7368,3.1264 L12.2368,3.1264 L12.332,4.3432 L12.364,4.3432 C12.9328,3.4264 13.796,2.9688 14.9544,2.9688 C15.86,2.9688 16.616,3.3264 17.2208,4.0424 C17.8272,4.7592 18.1296,5.7016 18.1296,6.8704 L18.1296,6.8704 Z M16.392,6.9328 C16.392,6.1856 16.224,5.5696 15.8864,5.0848 C15.5176,4.5792 15.0224,4.3264 14.4016,4.3264 C13.9808,4.3264 13.5984,4.4672 13.2568,4.7448 C12.9144,5.0248 12.6904,5.3904 12.5856,5.8432 C12.5328,6.0544 12.5064,6.2272 12.5064,6.3632 L12.5064,7.6432 C12.5064,8.2016 12.6776,8.6728 13.02,9.0576 C13.3624,9.4424 13.8072,9.6344 14.3544,9.6344 C14.9968,9.6344 15.4968,9.3864 15.8544,8.892 C16.2128,8.3968 16.392,7.744 16.392,6.9328 L16.392,6.9328 Z"></path>
                        <path d="M26.9592,6.8704 C26.9592,8.176 26.6064,9.208 25.9,9.9656 C25.2688,10.64 24.484,10.9768 23.5472,10.9768 C22.536,10.9768 21.8096,10.6136 21.368,9.8872 L21.336,9.8872 L21.336,13.9312 L19.6304,13.9312 L19.6304,5.6536 C19.6304,4.8328 19.6088,3.9904 19.5672,3.1264 L21.0672,3.1264 L21.1624,4.3432 L21.1944,4.3432 C21.7624,3.4264 22.6256,2.9688 23.7848,2.9688 C24.6896,2.9688 25.4456,3.3264 26.052,4.0424 C26.656,4.7592 26.9592,5.7016 26.9592,6.8704 L26.9592,6.8704 Z M25.2216,6.9328 C25.2216,6.1856 25.0528,5.5696 24.7152,5.0848 C24.3464,4.5792 23.8528,4.3264 23.2312,4.3264 C22.8096,4.3264 22.428,4.4672 22.0856,4.7448 C21.7432,5.0248 21.52,5.3904 21.4152,5.8432 C21.3632,6.0544 21.336,6.2272 21.336,6.3632 L21.336,7.6432 C21.336,8.2016 21.5072,8.6728 21.848,9.0576 C22.1904,9.4416 22.6352,9.6344 23.184,9.6344 C23.8264,9.6344 24.3264,9.3864 24.684,8.892 C25.0424,8.3968 25.2216,7.744 25.2216,6.9328 L25.2216,6.9328 Z"></path>
                        <path d="M36.8312,7.8176 C36.8312,8.7232 36.5168,9.46 35.8856,10.0288 C35.192,10.6504 34.2264,10.9608 32.9856,10.9608 C31.84,10.9608 30.9216,10.74 30.2264,10.2976 L30.6216,8.876 C31.3704,9.3288 32.192,9.556 33.0872,9.556 C33.7296,9.556 34.2296,9.4104 34.5888,9.1208 C34.9464,8.8312 35.1248,8.4424 35.1248,7.9576 C35.1248,7.5256 34.9776,7.1616 34.6824,6.8664 C34.3888,6.5712 33.8984,6.2968 33.2136,6.0432 C31.3496,5.348 30.4184,4.3296 30.4184,2.9904 C30.4184,2.1152 30.7448,1.3976 31.3984,0.8392 C32.0496,0.28 32.9184,0.0008 34.0048,0.0008 C34.9736,0.0008 35.7784,0.1696 36.4208,0.5064 L35.9944,1.8968 C35.3944,1.5704 34.716,1.4072 33.9568,1.4072 C33.3568,1.4072 32.888,1.5552 32.552,1.8496 C32.268,2.1128 32.1256,2.4336 32.1256,2.8136 C32.1256,3.2344 32.288,3.5824 32.6144,3.856 C32.8984,4.1088 33.4144,4.3824 34.1632,4.6776 C35.0792,5.0464 35.752,5.4776 36.1848,5.972 C36.616,6.4648 36.8312,7.0816 36.8312,7.8176 L36.8312,7.8176 Z"></path>
                        <path d="M42.4704,4.4064 L40.5904,4.4064 L40.5904,8.1336 C40.5904,9.0816 40.9216,9.5552 41.5856,9.5552 C41.8904,9.5552 42.1432,9.5288 42.3432,9.476 L42.3904,10.7712 C42.0544,10.8968 41.612,10.96 41.064,10.96 C40.3904,10.96 39.864,10.7544 39.484,10.344 C39.1056,9.9328 38.9152,9.2432 38.9152,8.2744 L38.9152,4.4048 L37.7952,4.4048 L37.7952,3.1248 L38.9152,3.1248 L38.9152,1.7192 L40.5904,1.2136 L40.5904,3.1248 L42.4704,3.1248 L42.4704,4.4064 L42.4704,4.4064 Z"></path>
                        <path d="M50.9528,6.9016 C50.9528,8.0816 50.6152,9.0504 49.9416,9.808 C49.2352,10.588 48.2976,10.9768 47.1288,10.9768 C46.0024,10.9768 45.1056,10.6032 44.4368,9.856 C43.768,9.1088 43.4336,8.1656 43.4336,7.0288 C43.4336,5.8392 43.7776,4.8648 44.468,4.1072 C45.1568,3.3488 46.0864,2.9696 47.2552,2.9696 C48.3816,2.9696 49.288,3.3432 49.972,4.0912 C50.6264,4.8168 50.9528,5.7536 50.9528,6.9016 L50.9528,6.9016 Z M49.1832,6.9568 C49.1832,6.2488 49.032,5.6416 48.7256,5.1352 C48.368,4.5224 47.8568,4.2168 47.1944,4.2168 C46.5088,4.2168 45.988,4.5232 45.6304,5.1352 C45.324,5.6424 45.1728,6.2592 45.1728,6.9888 C45.1728,7.6968 45.324,8.304 45.6304,8.8096 C45.9992,9.4224 46.5144,9.728 47.1792,9.728 C47.8304,9.728 48.3416,9.416 48.7104,8.7936 C49.0248,8.2776 49.1832,7.664 49.1832,6.9568 L49.1832,6.9568 Z"></path>
                        <path d="M56.4968,4.6264 C56.328,4.5952 56.148,4.5792 55.9592,4.5792 C55.3592,4.5792 54.8952,4.8056 54.5688,5.2592 C54.2848,5.6592 54.1424,6.1648 54.1424,6.7752 L54.1424,10.8032 L52.4376,10.8032 L52.4536,5.544 C52.4536,4.6592 52.432,3.8536 52.3896,3.1272 L53.8752,3.1272 L53.9376,4.596 L53.9848,4.596 C54.1648,4.0912 54.4488,3.6848 54.8376,3.38 C55.2176,3.1056 55.628,2.9688 56.0704,2.9688 C56.228,2.9688 56.3704,2.98 56.4968,3 L56.4968,4.6264 L56.4968,4.6264 Z"></path>
                        <path d="M64.1248,6.6016 C64.1248,6.9072 64.1048,7.1648 64.0624,7.3752 L58.9456,7.3752 C58.9656,8.1336 59.2128,8.7136 59.688,9.1136 C60.1192,9.4712 60.6768,9.6504 61.3616,9.6504 C62.1192,9.6504 62.8104,9.5296 63.432,9.2872 L63.6992,10.4712 C62.9728,10.788 62.1152,10.9456 61.1256,10.9456 C59.9352,10.9456 59.0008,10.5952 58.3208,9.8952 C57.6424,9.1952 57.3024,8.2552 57.3024,7.076 C57.3024,5.9184 57.6184,4.9544 58.2512,4.1856 C58.9136,3.3648 59.8088,2.9544 60.9352,2.9544 C62.0416,2.9544 62.8792,3.3648 63.448,4.1856 C63.8984,4.8376 64.1248,5.644 64.1248,6.6016 L64.1248,6.6016 Z M62.4984,6.1592 C62.5096,5.6536 62.3984,5.2168 62.1672,4.848 C61.872,4.3736 61.4184,4.1368 60.808,4.1368 C60.2504,4.1368 59.7968,4.368 59.4504,4.832 C59.1664,5.2008 58.9976,5.6432 58.9456,6.1584 L62.4984,6.1584 L62.4984,6.1592 Z"></path>
                    </g>
                    <g transform="translate(34.400000, 4.800000)" id="Shape" fill="#FFFFFF">
                        <path d="M0.3392,1.0184 C0.5208,0.9096 0.7256,0.8184 0.956,0.7432 C1.1856,0.668 1.456,0.6304 1.7672,0.6304 C2.2688,0.6304 2.664,0.7496 2.9536,0.9872 C3.2432,1.2248 3.388,1.5456 3.388,1.9496 C3.388,2.2704 3.2912,2.5392 3.0976,2.7568 C2.904,2.9744 2.656,3.1192 2.356,3.1912 L2.356,3.2144 C2.5216,3.2408 2.6784,3.2856 2.8256,3.3504 C2.9736,3.4152 3.1032,3.5016 3.2136,3.6104 C3.3248,3.7192 3.4128,3.8456 3.4776,3.9912 C3.5416,4.136 3.5744,4.296 3.5744,4.4728 C3.5744,4.7624 3.516,5.0056 3.3992,5.2024 C3.2824,5.3992 3.1304,5.5592 2.9416,5.684 C2.7536,5.808 2.5424,5.8976 2.3096,5.9512 C2.0768,6.0048 1.844,6.0328 1.6112,6.0328 C1.3624,6.0328 1.1168,6.0064 0.8736,5.9552 C0.6304,5.904 0.4056,5.8184 0.1984,5.6992 L0.408,5.0552 C0.5424,5.1224 0.716,5.1872 0.928,5.2496 C1.14,5.312 1.3544,5.3424 1.572,5.3424 C1.9288,5.3424 2.2048,5.2624 2.3984,5.1024 C2.592,4.9416 2.6896,4.7272 2.6896,4.4584 C2.6896,4.2768 2.6504,4.1288 2.5728,4.012 C2.4944,3.8952 2.3936,3.804 2.2696,3.736 C2.1456,3.6688 2.0072,3.6224 1.8544,3.5968 C1.7016,3.5712 1.5504,3.5576 1.4008,3.5576 L1.0512,3.5576 L1.0512,2.92 L1.4008,2.92 C1.5608,2.92 1.7096,2.9 1.8472,2.8576 C1.984,2.8168 2.1032,2.7584 2.204,2.6832 C2.3048,2.608 2.384,2.5184 2.4408,2.4152 C2.4968,2.312 2.5256,2.1952 2.5256,2.0656 C2.5256,1.8328 2.4424,1.6504 2.2768,1.5184 C2.1112,1.3864 1.8888,1.32 1.6096,1.32 C1.4184,1.32 1.2264,1.3512 1.0352,1.4128 C0.844,1.4752 0.6728,1.5424 0.5224,1.6144 L0.3392,1.0184 L0.3392,1.0184 Z"></path>
                        <path d="M7.004,5.9464 L6.9424,5.512 L6.9192,5.512 C6.6664,5.8584 6.2992,6.032 5.8176,6.032 C5.6464,6.032 5.492,6.0032 5.352,5.9464 C5.212,5.8896 5.0904,5.812 4.9872,5.7136 C4.8832,5.6152 4.804,5.4992 4.7464,5.364 C4.6896,5.2296 4.6616,5.0816 4.6616,4.9216 C4.6616,4.4512 4.8528,4.0976 5.236,3.8624 C5.6192,3.6272 6.1616,3.5096 6.8656,3.5096 L6.8656,3.44 C6.8656,2.9432 6.6048,2.6952 6.0832,2.6952 C5.7112,2.6952 5.3832,2.7888 5.1,2.9744 L4.9296,2.424 C5.276,2.2072 5.7072,2.0984 6.2232,2.0984 C7.2096,2.0984 7.7032,2.6184 7.7032,3.6584 L7.7032,5.0472 C7.7032,5.4352 7.7216,5.7352 7.7576,5.9472 L7.004,5.9472 L7.004,5.9464 Z M6.888,4.0688 C6.42,4.0688 6.0712,4.128 5.8424,4.2472 C5.6136,4.3664 5.4992,4.5608 5.4992,4.8296 C5.4992,5.0264 5.5528,5.1736 5.6608,5.272 C5.7688,5.3704 5.9056,5.4192 6.0704,5.4192 C6.1784,5.4192 6.2808,5.4 6.3792,5.3608 C6.4768,5.3224 6.5624,5.2688 6.6368,5.2016 C6.712,5.1344 6.772,5.0528 6.8192,4.9568 C6.8656,4.8608 6.888,4.7592 6.888,4.6504 L6.888,4.0688 L6.888,4.0688 Z"></path>
                        <polygon points="11.7464 2.1752 11.7464 2.8656 10.1784 2.8656 10.1784 5.9464 9.3408 5.9464 9.3408 2.1752"></polygon>
                        <path d="M16.5416,4.0144 C16.5416,4.3144 16.5,4.5888 16.4176,4.8368 C16.3344,5.0856 16.22,5.2976 16.072,5.4728 C15.9248,5.6488 15.7488,5.7864 15.5448,5.884 C15.34,5.9824 15.1144,6.032 14.8656,6.032 C14.3688,6.032 14.012,5.8536 13.7944,5.4968 L13.7784,5.4968 L13.7784,7.4832 L12.94,7.4832 L12.94,3.4168 C12.94,3.2152 12.9376,3.012 12.932,2.8072 C12.9272,2.6032 12.9192,2.392 12.9096,2.1744 L13.6464,2.1744 L13.6936,2.772 L13.7096,2.772 C13.9888,2.3224 14.4128,2.0968 14.9824,2.0968 C15.204,2.0968 15.4104,2.1432 15.5992,2.236 C15.788,2.3296 15.952,2.46 16.092,2.628 C16.232,2.796 16.3416,2.9976 16.4216,3.2336 C16.5016,3.4696 16.5416,3.7296 16.5416,4.0144 L16.5416,4.0144 Z M15.6888,4.0456 C15.6888,3.8592 15.6664,3.6872 15.6224,3.5296 C15.5784,3.372 15.5136,3.2376 15.4288,3.1264 C15.344,3.0152 15.24,2.9272 15.1184,2.8624 C14.9968,2.7976 14.8608,2.7656 14.7104,2.7656 C14.592,2.7656 14.4752,2.792 14.3608,2.8432 C14.2464,2.8944 14.1472,2.9648 14.0624,3.0528 C13.9768,3.1408 13.9088,3.2472 13.8568,3.3712 C13.8048,3.4952 13.7784,3.6272 13.7784,3.7672 L13.7784,4.396 C13.7784,4.5352 13.8,4.6648 13.8448,4.784 C13.8888,4.9032 13.9504,5.0064 14.0304,5.0944 C14.1104,5.1824 14.2064,5.2512 14.3176,5.3 C14.4288,5.3496 14.5512,5.3736 14.6856,5.3736 C15.0016,5.3736 15.2472,5.2536 15.4232,5.0128 C15.5992,4.772 15.6888,4.4488 15.6888,4.0456 L15.6888,4.0456 Z"></path>
                        <path d="M21.044,2.1752 L20.0888,4.7904 C19.8616,5.4112 19.64,5.9192 19.4256,6.3152 C19.2104,6.7112 19.0056,6.9992 18.8088,7.1808 C18.5192,7.4392 18.2112,7.5976 17.8848,7.6536 L17.6832,6.948 C17.9,6.8912 18.1072,6.78 18.304,6.6144 C18.5,6.4488 18.6576,6.2424 18.7776,5.9936 C18.8192,5.9112 18.8392,5.8544 18.8392,5.8232 C18.8392,5.792 18.8232,5.7328 18.7928,5.6448 L17.4264,2.176 L18.3496,2.176 L19.064,4.2792 C19.1008,4.3776 19.1368,4.4888 19.1728,4.6128 C19.2096,4.7368 19.248,4.8744 19.2896,5.024 L19.3056,5.024 C19.3312,4.9408 19.36,4.8368 19.3904,4.7096 C19.4216,4.5832 19.4632,4.4368 19.5144,4.2712 L20.1512,2.176 L21.044,2.176 L21.044,2.1752 Z"></path>
                        <path d="M22.4952,3.7424 L22.8824,3.7424 C23.1664,3.7424 23.3872,3.6912 23.5416,3.5872 C23.696,3.4832 23.7744,3.3568 23.7744,3.2064 C23.7744,3.0512 23.7088,2.9272 23.576,2.8344 C23.4448,2.7416 23.2616,2.6944 23.0288,2.6944 C22.8784,2.6944 22.7272,2.7192 22.576,2.768 C22.4232,2.8176 22.2824,2.8784 22.1528,2.9504 L21.936,2.408 C22.1528,2.2896 22.3688,2.208 22.5848,2.164 C22.7992,2.12 23.0144,2.0976 23.232,2.0976 C23.404,2.0976 23.576,2.1144 23.7488,2.148 C23.9208,2.1816 24.0752,2.2384 24.2096,2.3184 C24.344,2.3984 24.4552,2.5032 24.5392,2.6328 C24.6248,2.7624 24.6672,2.9224 24.6672,3.1144 C24.6672,3.2336 24.644,3.3384 24.5968,3.4288 C24.5512,3.5192 24.4888,3.5992 24.4112,3.6688 C24.3344,3.7384 24.2472,3.796 24.152,3.8392 C24.0568,3.8832 23.9584,3.916 23.8616,3.9368 L23.8616,3.96 C23.9848,3.976 24.1056,4.0072 24.2224,4.0536 C24.3384,4.1 24.4424,4.1608 24.5368,4.236 C24.6288,4.3112 24.704,4.4016 24.7616,4.5072 C24.8176,4.6136 24.8456,4.7336 24.8456,4.868 C24.8456,5.0904 24.7928,5.2768 24.6832,5.4264 C24.5752,5.5768 24.436,5.6952 24.2672,5.7832 C24.1,5.8712 23.9144,5.9344 23.7128,5.9736 C23.5112,6.012 23.3144,6.032 23.124,6.032 C22.8912,6.032 22.66,6.0072 22.4336,5.9584 C22.2056,5.9088 22.0008,5.8328 21.8192,5.7296 L22.0376,5.1784 C22.172,5.2512 22.3248,5.312 22.4984,5.3608 C22.672,5.4096 22.8488,5.4344 23.0296,5.4344 C23.3136,5.4344 23.5328,5.3792 23.6856,5.268 C23.8368,5.1568 23.9136,5.0184 23.9136,4.8528 C23.9136,4.744 23.8888,4.6528 23.8368,4.5776 C23.7848,4.5024 23.712,4.4416 23.62,4.3952 C23.5264,4.3488 23.4184,4.316 23.2936,4.2984 C23.1704,4.28 23.0344,4.2712 22.8904,4.2712 L22.4952,4.2712 L22.4952,3.7424 L22.4952,3.7424 Z"></path>
                        <path d="M26.972,2.1752 L26.972,3.5096 C26.972,3.8152 26.9672,4.0896 26.956,4.332 C26.9448,4.5752 26.9328,4.8312 26.9168,5.1 L26.9328,5.1152 C27.0312,4.9184 27.128,4.7264 27.2232,4.5368 C27.32,4.348 27.4168,4.1552 27.5152,3.9584 L28.4464,2.1736 L29.532,2.1736 L29.532,5.9448 L28.74,5.9448 L28.74,4.6104 C28.74,4.3312 28.748,4.052 28.76,3.7728 C28.7728,3.4928 28.7864,3.2112 28.8024,2.9264 L28.7632,2.9264 C28.676,3.1592 28.588,3.3608 28.4992,3.532 C28.412,3.7024 28.324,3.8784 28.2368,4.06 C28.076,4.3704 27.9168,4.6808 27.7584,4.9912 C27.6008,5.3016 27.4336,5.62 27.2584,5.9456 L26.1728,5.9456 L26.1728,2.1752 L26.972,2.1752 L26.972,2.1752 Z"></path>
                        <polygon points="33.956 2.1752 33.956 2.8656 32.808 2.8656 32.808 5.9464 31.984 5.9464 31.984 2.8656 30.8432 2.8656 30.8432 2.1752"></polygon>
                        <path d="M38.2312,3.8824 C38.2312,3.9544 38.228,4.0232 38.2232,4.088 C38.2184,4.1528 38.2104,4.2112 38.2,4.2624 L35.6856,4.2624 C35.6968,4.6192 35.8088,4.8952 36.0232,5.0888 C36.2376,5.2824 36.5216,5.38 36.8728,5.38 C37.24,5.38 37.5792,5.3208 37.8896,5.2016 L38.0208,5.784 C37.6632,5.9392 37.2424,6.0168 36.7552,6.0168 C36.4616,6.0168 36.1976,5.9712 35.9648,5.8808 C35.732,5.7904 35.5352,5.6624 35.3744,5.4968 C35.2152,5.3312 35.0912,5.132 35.0056,4.8992 C34.9216,4.6664 34.8792,4.4056 34.8792,4.116 C34.8792,3.8264 34.9216,3.5584 35.0056,3.3128 C35.0912,3.0672 35.212,2.8536 35.3664,2.6728 C35.5224,2.4912 35.7104,2.3496 35.9288,2.2456 C36.1488,2.1424 36.3944,2.0904 36.6632,2.0904 C36.9008,2.0904 37.116,2.1328 37.312,2.2184 C37.5056,2.3032 37.6712,2.4248 37.8072,2.5832 C37.9448,2.7408 38.0496,2.9304 38.1216,3.1496 C38.1952,3.3688 38.2312,3.6136 38.2312,3.8824 L38.2312,3.8824 Z M37.4312,3.6656 C37.4312,3.3704 37.3608,3.1312 37.2184,2.948 C37.076,2.7648 36.8704,2.672 36.6016,2.672 C36.3576,2.672 36.152,2.7648 35.9816,2.9512 C35.8112,3.1376 35.7128,3.3752 35.6864,3.6656 L37.4312,3.6656 L37.4312,3.6656 Z"></path>
                        <path d="M41.608,2.2064 C41.7584,2.1808 41.9488,2.16 42.1816,2.144 C42.4144,2.128 42.652,2.1208 42.896,2.1208 C43.0504,2.1208 43.2256,2.1304 43.4192,2.148 C43.6128,2.1656 43.7992,2.2072 43.9736,2.272 C44.1504,2.3368 44.2968,2.4336 44.416,2.5632 C44.5352,2.6928 44.596,2.868 44.596,3.0904 C44.596,3.2048 44.5744,3.3072 44.5336,3.3968 C44.4912,3.4872 44.4368,3.5664 44.3664,3.6336 C44.296,3.7008 44.216,3.7568 44.1256,3.8 C44.0352,3.844 43.9416,3.8768 43.8424,3.8968 L43.8504,3.92 C44.124,3.9664 44.3472,4.0648 44.5176,4.2152 C44.688,4.3656 44.7736,4.572 44.7736,4.836 C44.7736,5.1 44.7,5.3096 44.5568,5.4648 C44.4112,5.62 44.2336,5.7368 44.0208,5.8144 C43.808,5.892 43.5848,5.9416 43.3488,5.9624 C43.1144,5.9824 42.9032,5.9936 42.7176,5.9936 C42.5096,5.9936 42.3064,5.9888 42.108,5.9776 C41.908,5.9672 41.7424,5.9568 41.608,5.9464 L41.608,2.2064 L41.608,2.2064 Z M42.4144,3.712 L42.8408,3.712 C42.9704,3.712 43.0936,3.7032 43.2096,3.6848 C43.3264,3.6672 43.428,3.6384 43.516,3.6 C43.6048,3.5608 43.672,3.5096 43.7224,3.4448 C43.7712,3.38 43.796,3.3016 43.796,3.208 C43.796,3.0376 43.7256,2.912 43.5816,2.832 C43.4392,2.752 43.216,2.712 42.9112,2.712 C42.824,2.712 42.7472,2.7144 42.6816,2.72 C42.6176,2.7248 42.5288,2.7328 42.4144,2.7432 L42.4144,3.712 L42.4144,3.712 Z M42.4144,5.38 C42.5176,5.3904 42.6048,5.3976 42.6736,5.4032 C42.744,5.4088 42.8248,5.4112 42.9192,5.4112 C43.0336,5.4112 43.1488,5.404 43.268,5.388 C43.3864,5.3728 43.496,5.3432 43.5944,5.2992 C43.6928,5.256 43.7712,5.1968 43.8304,5.1216 C43.8896,5.0472 43.9208,4.948 43.9208,4.8248 C43.9208,4.6088 43.824,4.46 43.6336,4.3776 C43.4416,4.2952 43.184,4.2544 42.8568,4.2544 L42.4144,4.2544 L42.4144,5.38 L42.4144,5.38 Z"></path>
                    </g>
                </g>
            </g>
        </g>
    </g>
</svg>