<?xml version="1.0" encoding="UTF-8"?>
<svg width="18px" height="20px" viewBox="0 0 18 20" version="1.1" xmlns="http://www.w3.org/2000/svg" xmlns:xlink="http://www.w3.org/1999/xlink">
    <!-- Generator: sketchtool 41 (35326) - http://www.bohemiancoding.com/sketch -->
    <title>D294D1C5-8124-45B7-85CE-5302AF314BDC</title>
    <desc>Created with sketchtool.</desc>
    <defs></defs>
    <g id="iphone" stroke="none" stroke-width="1" fill="none" fill-rule="evenodd">
        <g id="resources" transform="translate(-147.000000, -463.000000)" fill="#007ED5">
            <path d="M163,465 L162,465 L162,463 L160,463 L160,465 L152,465 L152,463 L150,463 L150,465 L149,465 C147.89,465 147.01,465.9 147.01,467 L147,481 C147,482.1 147.89,483 149,483 L163,483 C164.1,483 165,482.1 165,481 L165,467 C165,465.9 164.1,465 163,465 L163,465 Z M149,470 L163,470 L163,481 L149,481 L149,470 Z M151,472 L156,472 L156,477 L151,477 L151,472 Z" id="calendar"></path>
        </g>
    </g>
</svg>