<?xml version="1.0" encoding="UTF-8"?>
<svg width="11px" height="19px" viewBox="0 0 11 19" version="1.1" xmlns="http://www.w3.org/2000/svg" xmlns:xlink="http://www.w3.org/1999/xlink">
    <!-- Generator: sketchtool 41 (35326) - http://www.bohemiancoding.com/sketch -->
    <title>B4409AB1-9AB8-4282-9407-0752A4197EDD</title>
    <desc>Created with sketchtool.</desc>
    <defs></defs>
    <g id="iphone" stroke="none" stroke-width="1" fill="none" fill-rule="evenodd">
        <g id="resources" transform="translate(-145.000000, -378.000000)" fill="#222222">
            <path d="M154.035714,378.742188 C154.712607,378.742188 155.263393,379.297146 155.263393,379.979167 L155.263393,395.386188 L150.979679,391.686333 L150.5,391.272292 L150.020321,391.686333 L145.736607,395.386188 L145.736607,379.979167 C145.736607,379.297146 146.287393,378.742188 146.964286,378.742188 L154.035714,378.742188 L154.035714,378.742188 Z M154.035714,378 L146.964286,378 C145.879214,378 145,378.886271 145,379.979167 L145,397 L150.5,392.25 L156,397 L156,379.979167 C156,378.886271 155.120786,378 154.035714,378 L154.035714,378 L154.035714,378 Z" id="favorites-active"></path>
        </g>
    </g>
</svg>