<?xml version="1.0" encoding="UTF-8"?>
<svg width="108px" height="32px" viewBox="0 0 108 32" version="1.1" xmlns="http://www.w3.org/2000/svg" xmlns:xlink="http://www.w3.org/1999/xlink">
    <!-- Generator: sketchtool 41 (35326) - http://www.bohemiancoding.com/sketch -->
    <title>2647F5C8-7778-4871-8264-A66A2FB2AA59</title>
    <desc>Created with sketchtool.</desc>
    <defs>
        <linearGradient x1="91.5361538%" y1="4.8388%" x2="-37.5592308%" y2="71.9684%" id="linearGradient-1">
            <stop stop-color="#00A0FF" offset="0%"></stop>
            <stop stop-color="#00A1FF" offset="0.657445%"></stop>
            <stop stop-color="#00BEFF" offset="26.01%"></stop>
            <stop stop-color="#00D2FF" offset="51.22%"></stop>
            <stop stop-color="#00DFFF" offset="76.04%"></stop>
            <stop stop-color="#00E3FF" offset="100%"></stop>
        </linearGradient>
        <linearGradient x1="107.728079%" y1="49.4282353%" x2="-130.665025%" y2="49.4282353%" id="linearGradient-2">
            <stop stop-color="#FFE000" offset="0%"></stop>
            <stop stop-color="#FFBD00" offset="40.87%"></stop>
            <stop stop-color="#FFA500" offset="77.54%"></stop>
            <stop stop-color="#FF9C00" offset="100%"></stop>
        </linearGradient>
        <linearGradient x1="86.3892216%" y1="17.8150459%" x2="-49.888024%" y2="194.392791%" id="linearGradient-3">
            <stop stop-color="#FF3A44" offset="0%"></stop>
            <stop stop-color="#C31162" offset="100%"></stop>
        </linearGradient>
        <linearGradient x1="-18.5790419%" y1="-54.5266535%" x2="42.2748503%" y2="24.6901019%" id="linearGradient-4">
            <stop stop-color="#32A071" offset="0%"></stop>
            <stop stop-color="#2DA771" offset="6.85%"></stop>
            <stop stop-color="#15CF74" offset="47.62%"></stop>
            <stop stop-color="#06E775" offset="80.09%"></stop>
            <stop stop-color="#00F076" offset="100%"></stop>
        </linearGradient>
    </defs>
    <g id="iphone" stroke="none" stroke-width="1" fill="none" fill-rule="evenodd">
        <g id="resources" transform="translate(-171.000000, -188.000000)">
            <g id="google-play" transform="translate(171.000000, 188.000000)">
                <path d="M107.2256,28.2144 C107.2256,29.9072 105.8544,31.2784 104.1584,31.2784 L3.7832,31.2784 C2.088,31.2784 0.712,29.9072 0.712,28.2144 L0.712,3.78 C0.712,2.088 2.088,0.712 3.7832,0.712 L104.1576,0.712 C105.8544,0.712 107.2248,2.088 107.2248,3.78 L107.2256,28.2144 L107.2256,28.2144 L107.2256,28.2144 Z" id="Shape" fill="#000000"></path>
                <g id="Group" transform="translate(7.000000, 5.000000)">
                    <path d="M47.48,12.44 C45.56,12.44 44.04,13.88 44.04,15.88 C44.04,17.8 45.56,19.32 47.48,19.32 C49.4,19.32 50.92,17.88 50.92,15.88 C50.92,13.8 49.4,12.44 47.48,12.44 Z M47.48,17.88 C46.44,17.88 45.56,17 45.56,15.8 C45.56,14.6 46.44,13.72 47.48,13.72 C48.52,13.72 49.4,14.52 49.4,15.8 C49.4,17 48.52,17.88 47.48,17.88 Z M40.04,12.44 C38.12,12.44 36.6,13.88 36.6,15.88 C36.6,17.8 38.12,19.32 40.04,19.32 C41.96,19.32 43.48,17.88 43.48,15.88 C43.48,13.8 41.96,12.44 40.04,12.44 Z M40.04,17.88 C39,17.88 38.12,17 38.12,15.8 C38.12,14.6 39,13.72 40.04,13.72 C41.08,13.72 41.96,14.52 41.96,15.8 C41.96,17 41.08,17.88 40.04,17.88 Z M31.16,13.48 L31.16,14.92 L34.6,14.92 C34.52,15.72 34.2,16.36 33.8,16.76 C33.32,17.24 32.52,17.8 31.16,17.8 C29,17.8 27.4,16.12 27.4,13.96 C27.4,11.8 29.08,10.12 31.16,10.12 C32.28,10.12 33.16,10.6 33.8,11.16 L34.84,10.12 C33.96,9.32 32.84,8.68 31.24,8.68 C28.36,8.68 25.88,11.08 25.88,13.96 C25.88,16.84 28.36,19.24 31.24,19.24 C32.84,19.24 33.96,18.76 34.92,17.72 C35.88,16.76 36.2,15.4 36.2,14.36 C36.2,14.04 36.2,13.72 36.12,13.48 L31.16,13.48 L31.16,13.48 Z M67.48,14.6 C67.16,13.8 66.36,12.44 64.6,12.44 C62.84,12.44 61.4,13.8 61.4,15.88 C61.4,17.8 62.84,19.32 64.76,19.32 C66.28,19.32 67.24,18.36 67.56,17.8 L66.44,17 C66.04,17.56 65.56,17.96 64.76,17.96 C63.96,17.96 63.48,17.64 63.08,16.92 L67.64,15 L67.48,14.6 Z M62.84,15.72 C62.84,14.44 63.88,13.72 64.6,13.72 C65.16,13.72 65.72,14.04 65.88,14.44 L62.84,15.72 Z M59.08,19 L60.6,19 L60.6,9 L59.08,9 L59.08,19 Z M56.68,13.16 L56.68,13.16 C56.28,12.76 55.64,12.36 54.84,12.36 C53.16,12.36 51.56,13.88 51.56,15.8 C51.56,17.72 53.08,19.16 54.84,19.16 C55.64,19.16 56.28,18.76 56.6,18.36 L56.68,18.36 L56.68,18.84 C56.68,20.12 55.96,20.84 54.84,20.84 C53.96,20.84 53.32,20.2 53.16,19.64 L51.88,20.2 C52.28,21.08 53.24,22.2 54.92,22.2 C56.68,22.2 58.12,21.16 58.12,18.68 L58.12,12.6 L56.68,12.6 L56.68,13.16 L56.68,13.16 Z M54.92,17.88 C53.88,17.88 53,17 53,15.8 C53,14.6 53.88,13.72 54.92,13.72 C55.96,13.72 56.76,14.6 56.76,15.8 C56.76,17 55.96,17.88 54.92,17.88 Z M74.44,9 L70.84,9 L70.84,19 L72.36,19 L72.36,15.24 L74.44,15.24 C76.12,15.24 77.72,14.04 77.72,12.12 C77.72,10.2 76.12,9 74.44,9 Z M74.52,13.8 L72.36,13.8 L72.36,10.36 L74.52,10.36 C75.64,10.36 76.28,11.32 76.28,12.04 C76.2,12.92 75.56,13.8 74.52,13.8 Z M83.72,12.36 C82.6,12.36 81.48,12.84 81.08,13.88 L82.44,14.44 C82.76,13.88 83.24,13.72 83.8,13.72 C84.6,13.72 85.32,14.2 85.4,15 L85.4,15.08 C85.16,14.92 84.52,14.68 83.88,14.68 C82.44,14.68 81,15.48 81,16.92 C81,18.28 82.2,19.16 83.48,19.16 C84.52,19.16 85,18.68 85.4,18.2 L85.48,18.2 L85.48,19 L86.92,19 L86.92,15.16 C86.76,13.4 85.4,12.36 83.72,12.36 Z M83.56,17.88 C83.08,17.88 82.36,17.64 82.36,17 C82.36,16.2 83.24,15.96 83.96,15.96 C84.6,15.96 84.92,16.12 85.32,16.28 C85.16,17.24 84.36,17.88 83.56,17.88 Z M91.96,12.6 L90.28,16.92 L90.2,16.92 L88.44,12.6 L86.84,12.6 L89.48,18.68 L87.96,22.04 L89.48,22.04 L93.56,12.6 L91.96,12.6 Z M78.52,19 L80.04,19 L80.04,9 L78.52,9 L78.52,19 Z" id="Shape" fill="#FFFFFF"></path>
                    <g transform="translate(0.200000, 0.600000)" id="Shape">
                        <path d="M1.12,0.4 C0.88,0.64 0.72,1.04 0.72,1.52 L0.72,19.2 C0.72,19.68 0.88,20.08 1.12,20.32 L1.2,20.4 L11.12,10.48 L11.12,10.4 L11.12,10.32 L1.12,0.4 L1.12,0.4 Z" fill="url(#linearGradient-1)"></path>
                        <path d="M14.4,13.84 L11.12,10.56 L11.12,10.4 L11.12,10.32 L14.4,7.04 L14.48,7.12 L18.4,9.36 C19.52,10 19.52,11.04 18.4,11.68 L14.4,13.84 L14.4,13.84 Z" fill="url(#linearGradient-2)"></path>
                        <path d="M14.48,13.76 L11.12,10.4 L1.12,20.4 C1.52,20.8 2.08,20.8 2.8,20.48 L14.48,13.76" fill="url(#linearGradient-3)"></path>
                        <path d="M14.48,7.04 L2.8,0.4 C2.08,4.27435864e-15 1.52,0.08 1.12,0.48 L11.12,10.4 L14.48,7.04 Z" fill="url(#linearGradient-4)"></path>
                        <g transform="translate(0.800000, 13.600000)" fill="#000000">
                            <path d="M13.6,0.08 L2,6.64 C1.36,7.04 0.8,6.96 0.4,6.64 L0.4,6.64 L0.32,6.72 L0.32,6.72 L0.4,6.8 L0.4,6.8 C0.8,7.12 1.36,7.2 2,6.8 L13.6,0.08 L13.6,0.08 Z" opacity="0.2"></path>
                            <path d="M0.32,6.64 C0.08,6.4 0,6 0,5.52 L0,5.6 C0,6.08 0.16,6.48 0.4,6.72 L0.4,6.64 L0.32,6.64 Z" opacity="0.12"></path>
                        </g>
                        <path d="M18.4,11.44 L14.4,13.68 L14.48,13.76 L18.4,11.52 C18.96,11.2 19.2,10.8 19.2,10.4 L19.2,10.4 C19.2,10.8 18.88,11.12 18.4,11.44 Z" fill="#000000" opacity="0.12"></path>
                        <path d="M2.8,0.48 L18.4,9.36 C18.88,9.68 19.2,10 19.2,10.4 L19.2,10.4 C19.2,10 18.96,9.6 18.4,9.28 L2.8,0.4 C1.68,-0.24 0.8,0.32 0.8,1.6 L0.8,1.68 C0.8,0.4 1.68,-0.16 2.8,0.48 Z" fill="#FFFFFF" opacity="0.25"></path>
                    </g>
                </g>
                <g id="Group" transform="translate(32.800000, 4.800000)" stroke="#FFFFFF" stroke-width="0.2" fill="#FFFFFF">
                    <path d="M0.88,6.64 L0.32,6.64 L0.32,5.04 L0.8,5.04 C1.2,4.72 1.44,4.08 1.44,3.2 L1.44,0.8 L4.64,0.8 L4.64,5.04 L5.2,5.04 L5.2,6.64 L4.64,6.64 L4.64,5.6 L0.96,5.6 L0.96,6.64 L0.88,6.64 Z M2,3.2 C2,3.92 1.84,4.56 1.52,5.04 L3.92,5.04 L3.92,1.44 L1.92,1.44 L1.92,3.2 L2,3.2 Z" id="Shape"></path>
                    <path d="M9.92,4.96 C9.44,5.44 8.88,5.68 8.16,5.68 C7.44,5.68 6.88,5.44 6.4,4.96 C5.92,4.48 5.68,3.92 5.68,3.2 C5.68,2.48 5.92,1.92 6.4,1.44 C6.88,0.96 7.44,0.72 8.16,0.72 C8.88,0.72 9.44,0.96 9.92,1.44 C10.4,1.92 10.64,2.48 10.64,3.2 C10.64,3.92 10.4,4.48 9.92,4.96 Z M6.88,4.56 C7.2,4.88 7.68,5.12 8.16,5.12 C8.64,5.12 9.12,4.96 9.44,4.56 C9.76,4.24 10,3.76 10,3.2 C10,2.64 9.84,2.16 9.44,1.84 C9.12,1.52 8.64,1.28 8.16,1.28 C7.68,1.28 7.2,1.44 6.88,1.84 C6.56,2.16 6.32,2.64 6.32,3.2 C6.32,3.76 6.48,4.24 6.88,4.56 Z" id="Shape"></path>
                    <path d="M13.76,5.68 C13.04,5.68 12.48,5.44 12,4.96 C11.52,4.48 11.28,3.92 11.28,3.2 C11.28,2.48 11.52,1.92 12,1.44 C12.48,0.96 13.04,0.72 13.76,0.72 C14.48,0.72 15.04,0.96 15.52,1.52 L15.12,1.92 C14.8,1.52 14.32,1.28 13.76,1.28 C13.2,1.28 12.8,1.44 12.4,1.84 C12,2.16 11.84,2.64 11.84,3.2 C11.84,3.76 12,4.24 12.4,4.56 C12.72,4.88 13.2,5.12 13.76,5.12 C14.32,5.12 14.8,4.88 15.2,4.4 L15.6,4.8 C15.36,5.04 15.12,5.28 14.8,5.44 C14.48,5.6 14.16,5.68 13.76,5.68 Z" id="Shape"></path>
                    <polygon id="Shape" points="18.16 5.6 17.52 5.6 17.52 1.36 16.16 1.36 16.16 0.8 19.44 0.8 19.44 1.36 18.08 1.36 18.08 5.6"></polygon>
                    <path d="M23.68,0.8 L21.84,4.88 C21.6,5.44 21.2,5.76 20.72,5.76 C20.56,5.76 20.4,5.76 20.24,5.68 L20.4,5.12 C20.48,5.2 20.64,5.2 20.72,5.2 C20.88,5.2 20.96,5.2 21.04,5.12 C21.12,5.04 21.2,4.96 21.28,4.8 L21.44,4.4 L19.84,0.88 L20.56,0.88 L21.76,3.6 L21.76,3.6 L22.88,0.88 L23.68,0.88 L23.68,0.8 Z" id="Shape"></path>
                    <polygon id="Shape" points="24.4 5.6 24.4 0.8 27.84 0.8 27.84 5.6 27.2 5.6 27.2 1.36 24.96 1.36 24.96 5.6"></polygon>
                    <polygon id="Shape" points="28.96 5.6 28.96 0.8 29.6 0.8 29.6 2.88 32 2.88 32 0.8 32.64 0.8 32.64 5.6 32 5.6 32 3.44 29.6 3.44 29.6 5.6"></polygon>
                    <path d="M37.68,4.96 C37.2,5.44 36.64,5.68 35.92,5.68 C35.2,5.68 34.64,5.44 34.16,4.96 C33.68,4.48 33.44,3.92 33.44,3.2 C33.44,2.48 33.68,1.92 34.16,1.44 C34.64,0.96 35.2,0.72 35.92,0.72 C36.64,0.72 37.2,0.96 37.68,1.44 C38.16,1.92 38.4,2.48 38.4,3.2 C38.32,3.92 38.08,4.48 37.68,4.96 Z M34.56,4.56 C34.88,4.88 35.36,5.12 35.84,5.12 C36.32,5.12 36.8,4.96 37.12,4.56 C37.44,4.24 37.68,3.76 37.68,3.2 C37.68,2.64 37.52,2.16 37.12,1.84 C36.8,1.52 36.32,1.28 35.84,1.28 C35.36,1.28 34.88,1.44 34.56,1.84 C34.24,2.16 34,2.64 34,3.2 C34,3.76 34.24,4.24 34.56,4.56 Z" id="Shape"></path>
                    <path d="M40.88,5.6 L40.88,0.8 L42.64,0.8 C43.04,0.8 43.36,0.96 43.6,1.2 C43.84,1.44 44,1.76 44,2.16 C44,2.4 43.92,2.56 43.84,2.8 C43.76,2.96 43.6,3.12 43.36,3.2 L43.36,3.2 C43.6,3.28 43.76,3.44 43.92,3.6 C44.08,3.76 44.16,4 44.16,4.32 C44.16,4.72 44,5.04 43.76,5.28 C43.44,5.52 43.12,5.68 42.72,5.68 L40.88,5.68 L40.88,5.6 Z M41.52,2.88 L42.64,2.88 C42.88,2.88 43.04,2.8 43.2,2.64 C43.36,2.48 43.44,2.32 43.44,2.16 C43.44,2 43.36,1.84 43.2,1.68 C43.04,1.52 42.88,1.44 42.64,1.44 L41.52,1.44 L41.52,2.88 Z M41.52,5.04 L42.8,5.04 C43.04,5.04 43.2,4.96 43.36,4.8 C43.52,4.64 43.6,4.48 43.6,4.24 C43.6,4.08 43.52,3.84 43.36,3.68 C43.2,3.52 43.04,3.44 42.8,3.44 L41.6,3.44 L41.6,5.04 L41.52,5.04 Z" id="Shape"></path>
                </g>
            </g>
        </g>
    </g>
</svg>