<svg xmlns="http://www.w3.org/2000/svg" width="70" height="70" viewBox="0 0 70 70">
  <defs>
    <linearGradient id="svgSpecialOffer" x1="0%" x2="115.251%" y1="0%" y2="118.85%">
      <stop offset="0%" stop-color="#FF6472"/>
      <stop offset="100%" stop-color="#EB0023"/>
    </linearGradient>
  </defs>
  <g fill="none" fill-rule="evenodd">
    <rect width="70" height="70" fill="url(#svgSpecialOffer)" opacity=".85" rx="4"/>
    <text fill="#FFF" font-family="Circe-Bold, Circe" font-size="9" font-weight="bold">
      <tspan x="8" y="56">Специальные</tspan> <tspan x="18.867" y="65">условия</tspan>
    </text>
    <path fill="#FFF" d="M34.5 7C44.7 7 53 15.3 53 25.5S44.7 44 34.5 44 16 35.7 16 25.5 24.3 7 34.5 7zm-4.152 8c-.742 0-1.294.247-1.622.637-.327.389-.42.872-.42 1.285 0 .982.53 1.779 1.261 2.293.224.159.464.286.72.397H26v4.227h7.302v-3.843h3.843v3.843h7.302v-4.227H40.16c.256-.11.496-.238.72-.397.73-.514 1.261-1.311 1.261-2.293 0-.413-.092-.896-.42-1.285-.328-.39-.88-.637-1.621-.637-.767 0-1.387.324-1.85.769-.463.445-.794 1.004-1.105 1.537-.31.533-.604 1.044-.913 1.393-.308.349-.592.528-1.008.528-.417 0-.7-.18-1.01-.528-.308-.349-.602-.86-.912-1.393-.31-.533-.642-1.092-1.105-1.537-.463-.445-1.083-.769-1.85-.769zm0 .769c.562 0 .947.205 1.309.552.361.348.68.846.984 1.37.305.523.604 1.069.997 1.512l.024.024H32.15c-.774 0-1.575-.23-2.15-.636s-.924-.953-.924-1.67c0-.29.068-.576.24-.78.171-.204.452-.372 1.033-.372zm9.752 0c.58 0 .86.168 1.033.372.171.204.24.49.24.78 0 .717-.35 1.264-.925 1.67-.575.406-1.376.636-2.15.636h-1.513l.024-.024c.393-.443.692-.99.997-1.513.305-.523.623-1.021.985-1.369.361-.347.746-.552 1.309-.552zm-13.331 8.839v8.84h16.91v-8.84h-6.534v8.07h-3.843v-8.07h-6.533z"/>
  </g>
</svg>
