<?xml version="1.0" encoding="UTF-8"?>
<svg width="18px" height="22px" viewBox="0 0 18 22" version="1.1" xmlns="http://www.w3.org/2000/svg" xmlns:xlink="http://www.w3.org/1999/xlink">
    <!-- Generator: sketchtool 41 (35326) - http://www.bohemiancoding.com/sketch -->
    <title>57F4071E-F9EB-40F4-88EB-FBDFBC1EB27B</title>
    <desc>Created with sketchtool.</desc>
    <defs></defs>
    <g id="iphone" stroke="none" stroke-width="1" fill="none" fill-rule="evenodd">
        <g id="resources" transform="translate(-259.000000, -459.000000)" fill="#343434">
            <path d="M267.979592,459 C264.760789,459 262.142857,461.617932 262.142857,464.836735 L262.142857,467.432398 L260.346939,467.432398 C259.608339,467.432398 259,468.040737 259,468.779337 L259,479.554847 C259,480.293447 259.608339,480.901786 260.346939,480.901786 L275.612245,480.901786 C276.350845,480.901786 276.959184,480.293447 276.959184,479.554847 L276.959184,468.779337 C276.959184,468.040737 276.350845,467.432398 275.612245,467.432398 L273.816327,467.432398 L273.816327,464.836735 C273.816327,461.617932 271.198395,459 267.979592,459 Z M267.979592,459.897959 C270.71336,459.897959 272.918367,462.102966 272.918367,464.836735 L272.918367,467.432398 L263.040816,467.432398 L263.040816,464.836735 C263.040816,462.102966 265.245823,459.897959 267.979592,459.897959 Z M260.346939,468.330357 L275.612245,468.330357 C275.864992,468.330357 276.061224,468.52659 276.061224,468.779337 L276.061224,479.554847 C276.061224,479.807594 275.864992,480.003827 275.612245,480.003827 L260.346939,480.003827 C260.094191,480.003827 259.897959,479.807594 259.897959,479.554847 L259.897959,468.779337 C259.897959,468.52659 260.094191,468.330357 260.346939,468.330357 Z M262.591837,473.269133 C262.095908,473.269133 261.693878,473.671163 261.693878,474.167092 C261.693878,474.663021 262.095908,475.065051 262.591837,475.065051 C263.087766,475.065051 263.489796,474.663021 263.489796,474.167092 C263.489796,473.671163 263.087766,473.269133 262.591837,473.269133 Z M266.183673,473.269133 C265.687745,473.269133 265.285714,473.671163 265.285714,474.167092 C265.285714,474.663021 265.687745,475.065051 266.183673,475.065051 C266.679602,475.065051 267.081633,474.663021 267.081633,474.167092 C267.081633,473.671163 266.679602,473.269133 266.183673,473.269133 Z M269.77551,473.269133 C269.279581,473.269133 268.877551,473.671163 268.877551,474.167092 C268.877551,474.663021 269.279581,475.065051 269.77551,475.065051 C270.271439,475.065051 270.673469,474.663021 270.673469,474.167092 C270.673469,473.671163 270.271439,473.269133 269.77551,473.269133 Z M273.367347,473.269133 C272.871418,473.269133 272.469388,473.671163 272.469388,474.167092 C272.469388,474.663021 272.871418,475.065051 273.367347,475.065051 C273.863276,475.065051 274.265306,474.663021 274.265306,474.167092 C274.265306,473.671163 273.863276,473.269133 273.367347,473.269133 Z" id="password"></path>
        </g>
    </g>
</svg>