<?xml version="1.0" encoding="UTF-8"?>
<svg width="20px" height="20px" viewBox="0 0 20 20" version="1.1" xmlns="http://www.w3.org/2000/svg" xmlns:xlink="http://www.w3.org/1999/xlink">
    <!-- Generator: sketchtool 41 (35326) - http://www.bohemiancoding.com/sketch -->
    <title>2B653B02-4B97-4976-847B-9BE9A1F3C70A</title>
    <desc>Created with sketchtool.</desc>
    <defs></defs>
    <g id="iphone" stroke="none" stroke-width="1" fill="none" fill-rule="evenodd">
        <g id="resources" transform="translate(-300.000000, -460.000000)" fill="#343434">
            <path d="M303.627662,460.815994 C304.306766,460.865541 304.826776,461.868742 305.185874,462.363297 C305.744067,463.131948 306.248622,463.939691 306.694085,464.777889 C306.796359,464.970165 306.896816,465.167896 306.931817,465.382446 C307.057274,466.151551 306.351805,466.767472 305.919979,467.417939 C305.773613,467.637944 305.650883,467.899312 305.698157,468.158863 C305.732248,468.34523 305.849069,468.504779 305.963616,468.655691 C307.398189,470.540272 309.061403,472.253033 310.90553,473.74397 C311.160989,473.949883 311.437358,474.159888 311.764182,474.199888 C312.663291,474.308981 313.225574,473.143504 314.116046,472.978956 C314.621965,472.885318 315.083337,473.147595 315.536528,473.390327 C316.624731,473.97352 317.709297,474.613533 318.68977,475.364002 C318.884774,475.513095 319.057959,475.704917 319.137961,475.936285 C319.212962,476.153562 319.187053,476.392203 319.130688,476.61448 C319.002504,477.117672 318.723407,477.570862 318.404765,477.983143 C318.117032,478.355423 317.785662,478.707702 317.367927,478.926343 C316.981101,479.129529 316.538365,479.207712 316.101084,479.218167 C314.966971,479.244985 313.869223,478.833614 312.846476,478.346332 C309.212315,476.61448 306.131347,473.848063 303.73221,470.627092 C302.635825,469.154791 301.664442,467.565215 301.105795,465.818818 C300.873064,465.091077 300.713061,464.313334 300.868518,463.566047 C301.008066,462.893761 301.398528,462.306477 301.894447,461.839196 C302.248999,461.505098 303.09947,460.739175 303.626298,460.815994 L303.627662,460.815994 Z M303.622662,460.019615 C302.614006,460.247801 301.727171,460.845086 301.11625,461.515099 C300.510784,462.178748 300.095776,462.85467 300.016229,463.76196 C299.949409,464.526066 300.09623,465.297899 300.322598,466.025185 C300.850336,467.721127 301.807173,469.281612 302.832192,470.722549 C304.768139,473.443056 307.134093,475.749009 309.910965,477.610409 C311.671453,478.790886 313.787403,480 315.974718,480 C316.500637,480 317.056557,479.945908 317.549294,479.753177 C317.904301,479.614538 318.183852,479.356806 318.457493,479.099528 C319.134779,478.461789 319.729336,477.658137 319.904339,476.729482 C319.961613,476.424931 320.10798,475.715372 319.862975,475.486277 C318.624315,474.329436 317.223378,473.448056 316.068811,472.768497 C315.789715,472.604403 315.491527,472.474855 315.196521,472.341216 C314.823332,472.172122 314.491962,472.008482 314.0765,472.123485 C313.659674,472.239396 313.279212,472.51622 312.917841,472.743042 C312.816475,472.807134 311.921004,473.419419 311.877366,473.418964 C311.430085,473.172141 310.636888,472.553948 309.151859,471.086192 C307.676376,469.626164 306.811814,468.45796 306.559537,468.01386 C306.888179,467.512487 307.193185,466.99384 307.451372,466.452466 C307.610466,466.118369 307.84138,465.752453 307.788651,465.366536 C307.747287,465.066531 307.559101,464.741524 307.430008,464.470155 C307.113638,463.804688 306.712267,463.191949 306.302714,462.579664 C305.937252,462.03329 305.565881,461.479643 305.149055,460.970997 C304.942687,460.71872 304.712228,460.370986 304.425405,460.199619 C304.179491,460.053707 303.89994,459.956432 303.622662,460.019615 L303.622662,460.019615 Z" id="phone"></path>
        </g>
    </g>
</svg>