<?xml version="1.0" encoding="UTF-8"?>
<svg width="16px" height="16px" viewBox="0 0 16 16" version="1.1" xmlns="http://www.w3.org/2000/svg" xmlns:xlink="http://www.w3.org/1999/xlink">
    <!-- Generator: sketchtool 41 (35326) - http://www.bohemiancoding.com/sketch -->
    <title>2082263D-E857-49FD-BB0D-C915F87AF3AA</title>
    <desc>Created with sketchtool.</desc>
    <defs></defs>
    <g id="iphone" stroke="none" stroke-width="1" fill="none" fill-rule="evenodd">
        <g id="resources" transform="translate(-425.000000, -197.000000)" fill="#FE3F35">
            <path d="M433,197 C428.581722,197 425,200.590712 425,205 L425,205 C425,209.418278 428.590712,213 433,213 L433,213 C437.418278,213 441,209.409288 441,205 L441,205 C441,200.581722 437.409288,197 433,197 L433,197 Z M436.692308,202.051429 L435.948571,201.307692 L433,204.256264 L430.051429,201.307692 L429.307692,202.051429 L432.256264,205 L429.307692,207.948571 L430.051429,208.692308 L433,205.743736 L435.948571,208.692308 L436.692308,207.948571 L433.743736,205 L436.692308,202.051429" id="remove-active-small"></path>
        </g>
    </g>
</svg>