<?xml version="1.0" encoding="UTF-8"?>
<svg width="20px" height="19px" viewBox="0 0 20 19" version="1.1" xmlns="http://www.w3.org/2000/svg" xmlns:xlink="http://www.w3.org/1999/xlink">
    <!-- Generator: sketchtool 41 (35326) - http://www.bohemiancoding.com/sketch -->
    <title>546DB313-1B74-4FED-A72C-B17F954F9B3C</title>
    <desc>Created with sketchtool.</desc>
    <defs></defs>
    <g id="iphone" stroke="none" stroke-width="1" fill="none" fill-rule="evenodd">
        <g id="resources" transform="translate(-44.000000, -319.000000)" fill="#FFFFFF">
            <path d="M52.8495838,336.635986 C52.8495838,337.388143 52.2376951,338 51.4855694,338 C50.7334438,338 50.1215551,337.388111 50.1215551,336.635986 C50.1215551,335.88386 50.7334438,335.271971 51.4855694,335.271971 C52.2376951,335.271971 52.8495838,335.883734 52.8495838,336.635986 L52.8495838,336.635986 Z M59.9462374,335.27194 C59.1941118,335.27194 58.5822231,335.883829 58.5822231,336.635954 C58.5822231,337.388111 59.1941118,337.999969 59.9462374,337.999969 C60.6983631,337.999969 61.3102518,337.38808 61.3102518,336.635954 C61.3102518,335.883829 60.6983631,335.27194 59.9462374,335.27194 L59.9462374,335.27194 Z M63.0957302,323.48755 C63.0031387,323.376221 62.8658208,323.311846 62.7210641,323.311658 L48.1739316,323.296027 L47.2079039,319.371622 C47.1540753,319.153419 46.9583776,319 46.7337411,319 L44.4883497,319 C44.2185788,319 44,319.218579 44,319.48835 C44,319.758121 44.2185788,319.976699 44.4883497,319.976699 L46.350883,319.976699 L49.1314849,331.272865 L49.5488059,333.23998 C49.717856,334.037428 50.4323173,334.616204 51.2475308,334.616204 L60.6547038,334.616204 C60.9244747,334.616204 61.1430535,334.397625 61.1430535,334.127854 C61.1430535,333.858083 60.9244747,333.639504 60.6547038,333.639504 L51.2475308,333.639504 C50.8908494,333.639504 50.5782039,333.386243 50.5043818,333.037283 L50.2105999,331.652365 L61.3732454,331.652365 C61.6090242,331.652365 61.8110935,331.483785 61.8535914,331.251836 L63.2008137,323.887765 C63.2268963,323.745394 63.1884159,323.598691 63.0957302,323.48755 L63.0957302,323.48755 Z" id="sidebar-shoping-cart"></path>
        </g>
    </g>
</svg>