<svg xmlns="http://www.w3.org/2000/svg" width="73.83" height="20" viewBox="0 0 73.83 20">
  <g id="Слой_3_1_" transform="translate(-391 -89.4)">
    <path id="Path_1708" data-name="Path 1708" d="M1041,163.9h34.814v15.528H1041Zm9.982,10.042c0,.684-.276,1.273-1.879,1.273h-3.842l.27-.27v-2.017l-.288-.27h3.836c1.537,0,1.9.648,1.9,1.285Zm-.534-4.712c0,.558-.228,1.134-1.639,1.134h-3.547l.27-.27v-1.7l-.27-.27h3.547c1.339,0,1.639.516,1.639,1.1Zm3.535,4.79a2.629,2.629,0,0,0-1.669-2.593,2.654,2.654,0,0,0,1.134-2.275c0-1.957-1.549-3.619-4.49-3.619h-6.387v12.275h6.525c3.007,0,4.886-1.393,4.886-3.788Zm4.478-8.481H1055.5v12.275h2.959V165.539Zm15.774,0h-2.455l-3.89,6.531-.438,1.074h-.03l-.468-1.074-3.865-6.531h-2.425v12.287h2.959v-6.519h.03l.594,1.291,3.187,5.378h.048l3.187-5.378.588-1.291h.03v6.513h2.959l-.012-12.281Zm-11.188-1.639,4.412,7.245,4.49-7.245" transform="translate(-610.984 -70.028)"/>
    <path id="Unit_copy" d="M402.939,177.946H399.98v6.591c0,2.179-.816,3.229-3,3.229-2.227,0-3.019-1.044-3.019-3.229v-6.591H391v6.609c0,3.679,1.939,5.816,5.978,5.816s5.96-2.167,5.96-5.816Zm11.723,6.375c0-2.377-1.609-3.806-4.232-3.806a4.1,4.1,0,0,0-2.731.936h-.03v-.8h-2.911v9.562h2.911v-5.546c0-1.074.852-1.7,2.167-1.7,1.7,0,1.909.576,1.909,1.591v5.654h2.911v-5.888Zm4.808-3.649h-2.911v9.544h2.911v-9.544Zm.078-2.029a1.525,1.525,0,1,0-1.531,1.543,1.485,1.485,0,0,0,1.531-1.543Zm7.887,8.559a1.769,1.769,0,0,1-1.333.714c-.468,0-.834-.3-.834-1v-3.727l-.138-.258h2.929v-2.257H425.13l.138-.258v-2.485l-2.911,1.531v.954l.138.258h-1.489v2.257h1.489l-.138.258v3.74c0,2.3,1.062,3.439,3.385,3.439a4.594,4.594,0,0,0,3.337-1.513Z" transform="translate(0 -82.436)"/>
    <path id="Path_1709" data-name="Path 1709" d="M1412.264,110.3v5.462l-.264-.606v-4.79Z" transform="translate(-959.716 -19.646)"/>
    <path id="Path_1710" data-name="Path 1710" d="M1547.094,110.366v4.712l-.294.444.03-5.222Z" transform="translate(-1086.424 -19.646)"/>
    <path id="Path_1711" data-name="Path 1711" d="M1479.958,141.3v9.178h-.258V141.3Z" transform="translate(-1023.352 -48.785)"/>
    <path id="Path_1712" data-name="Path 1712" d="M1416.2,89.4l4.19,1.321-4.19,2.137-4.2-2.137Z" transform="translate(-959.716)"/>
  </g>
</svg>
