<?xml version="1.0" encoding="UTF-8"?>
<svg width="19px" height="18px" viewBox="0 0 19 18" version="1.1" xmlns="http://www.w3.org/2000/svg" xmlns:xlink="http://www.w3.org/1999/xlink">
    <!-- Generator: sketchtool 41 (35326) - http://www.bohemiancoding.com/sketch -->
    <title>3A550963-CC15-4230-B0CD-6F7B67C05459</title>
    <desc>Created with sketchtool.</desc>
    <defs></defs>
    <g id="iphone" stroke="none" stroke-width="1" fill="none" fill-rule="evenodd">
        <g id="resources" transform="translate(-408.000000, -462.000000)" fill="#007ED5">
            <path d="M417.410228,462 C412.247235,462 408,465.636036 408,470.179462 C408,472.815715 409.461121,475.140413 411.666656,476.628161 C411.663291,476.715701 411.667148,476.852506 411.551271,477.282005 C411.408198,477.812395 411.126329,478.56327 410.538454,479.397383 L410.115378,479.987125 L410.846145,479.999945 C413.379805,480.010973 414.848267,478.345359 415.076902,478.076874 C415.825396,478.243071 416.603494,478.358925 417.410228,478.358925 C422.572825,478.358925 426.820456,474.722913 426.820456,470.179462 C426.820456,465.636012 422.572825,462 417.410228,462 Z M417.410228,462.769228 C422.216831,462.769228 426.051227,466.113298 426.051227,470.179462 C426.051227,474.245627 422.216831,477.589696 417.410228,477.589696 C416.588908,477.589696 415.790438,477.49081 415.03844,477.307646 L414.807672,477.256364 L414.653826,477.448671 C414.653826,477.448671 413.468244,478.785123 411.576912,479.102512 C411.917675,478.490414 412.177591,477.921858 412.294859,477.487133 C412.458554,476.880295 412.461525,476.461495 412.461525,476.461495 L412.461525,476.256367 L412.282038,476.140983 C410.137661,474.781632 408.769228,472.617718 408.769228,470.179462 C408.769228,466.113274 412.6032,462.769228 417.410228,462.769228 Z M417.115234,474.496094 C416.927733,474.496094 416.769532,474.431641 416.640625,474.302734 C416.511718,474.173827 416.447266,474.015626 416.447266,473.828125 C416.447266,473.636718 416.511718,473.47754 416.640625,473.350586 C416.769532,473.223632 416.927733,473.160156 417.115234,473.160156 C417.306642,473.160156 417.46582,473.223632 417.592773,473.350586 C417.719727,473.47754 417.783203,473.636718 417.783203,473.828125 C417.783203,474.015626 417.719727,474.173827 417.592773,474.302734 C417.46582,474.431641 417.306642,474.496094 417.115234,474.496094 Z M414.765625,468.191406 C414.800781,467.523434 415.038084,466.977541 415.477539,466.553711 C415.916994,466.129881 416.531246,465.917969 417.320312,465.917969 C418.050785,465.917969 418.647459,466.119139 419.110352,466.521484 C419.573245,466.92383 419.804688,467.429684 419.804688,468.039062 C419.804688,468.894536 419.396488,469.568357 418.580078,470.060547 C418.212889,470.279298 417.961915,470.486327 417.827148,470.681641 C417.692382,470.876954 417.625,471.130858 417.625,471.443359 L417.625,471.824219 L416.599609,471.824219 L416.599609,471.285156 C416.595703,470.902342 416.688476,470.570314 416.87793,470.289062 C417.067384,470.007811 417.365232,469.746095 417.771484,469.503906 C418.115236,469.292968 418.358398,469.082032 418.500977,468.871094 C418.643555,468.660155 418.714844,468.400392 418.714844,468.091797 C418.714844,467.724608 418.583009,467.422853 418.319336,467.186523 C418.055663,466.950194 417.708987,466.832031 417.279297,466.832031 C416.837888,466.832031 416.4834,466.953124 416.21582,467.195312 C415.948241,467.437501 415.798828,467.769529 415.767578,468.191406 L414.765625,468.191406 Z" id="chat"></path>
        </g>
    </g>
</svg>