<?xml version="1.0" encoding="UTF-8"?>
<svg width="23px" height="16px" viewBox="0 0 23 16" version="1.1" xmlns="http://www.w3.org/2000/svg" xmlns:xlink="http://www.w3.org/1999/xlink">
    <!-- Generator: sketchtool 41 (35326) - http://www.bohemiancoding.com/sketch -->
    <title>92C2ED1F-28AC-4D9D-BEEB-4CED4CEAA7AD</title>
    <desc>Created with sketchtool.</desc>
    <defs></defs>
    <g id="iphone" stroke="none" stroke-width="1" fill="none" fill-rule="evenodd">
        <g id="resources" transform="translate(-216.000000, -464.000000)" fill="#343434">
            <path d="M216,464 L216,464.444444 L216,479.555556 L216,480 L216.444444,480 L237.777778,480 L238.222222,480 L238.222222,479.555556 L238.222222,464.444444 L238.222222,464 L237.777778,464 L216.444444,464 L216,464 Z M216.888889,464.888889 L237.333333,464.888889 L237.333333,466 C237.160254,466.150953 229.366743,472.949598 228.638889,473.583333 L228.597222,473.625 C228.020713,474.126897 227.429921,474.222222 227.111111,474.222222 C226.792619,474.222222 226.201594,474.126971 225.625,473.625 C225.45922,473.480676 224.272894,472.455448 223.416667,471.708333 C220.877457,469.492705 217.019486,466.113986 216.888889,466 L216.888889,464.888889 Z M216.888889,467.180556 C217.659646,467.853274 220.39463,470.232877 222.722222,472.263889 L216.888889,476.875 L216.888889,467.180556 Z M237.333333,467.180556 L237.333333,476.875 L231.5,472.263889 C233.827592,470.232877 236.562576,467.853274 237.333333,467.180556 Z M223.402778,472.861111 C223.942932,473.33238 224.917757,474.183793 225.041667,474.291667 L225.055556,474.305556 C225.806514,474.951647 226.605762,475.111111 227.111111,475.111111 C227.619857,475.111111 228.42462,474.949769 229.180556,474.291667 C229.305061,474.183274 230.289055,473.335979 230.833333,472.861111 L237.333333,478 L237.333333,479.111111 L216.888889,479.111111 L216.888889,478 L223.402778,472.861111 Z" id="email"></path>
        </g>
    </g>
</svg>