<?xml version="1.0" encoding="UTF-8"?>
<svg width="22px" height="12px" viewBox="0 0 22 12" version="1.1" xmlns="http://www.w3.org/2000/svg" xmlns:xlink="http://www.w3.org/1999/xlink">
    <!-- Generator: sketchtool 41 (35326) - http://www.bohemiancoding.com/sketch -->
    <title>8F8B83A3-DD3B-4671-AF38-603D5345BC27</title>
    <desc>Created with sketchtool.</desc>
    <defs></defs>
    <g id="iphone" stroke="none" stroke-width="1" fill="none" fill-rule="evenodd">
        <g id="resources" transform="translate(-44.000000, -264.000000)" fill="#FFFFFF">
            <path d="M49.2136842,265.299474 C49.7885263,266.719053 50.5170526,268.057474 51.4765789,269.259 C51.6038421,269.418895 51.7642632,269.561053 51.9332632,269.676789 C52.1801053,269.846316 52.413,269.786737 52.5133684,269.504368 C52.6195263,269.208053 52.7169474,268.607526 52.7227368,268.296368 C52.7385789,267.483316 52.7203684,266.950474 52.6766842,266.138421 C52.6483684,265.618316 52.4634737,265.161632 51.6984211,265.023789 C51.4621579,264.981053 51.4402105,264.786579 51.592,264.592579 C51.908,264.188684 52.3482105,264.124316 52.8255789,264.098842 C53.5992632,264.057053 54.3757895,264.091158 55.1504211,264.098842 C55.4659474,264.101737 55.7833684,264.127158 56.0941053,264.194895 C56.4994211,264.283263 56.7164737,264.567579 56.7832632,264.963263 C56.8178421,265.167368 56.8356316,265.377211 56.8307895,265.583737 C56.8106316,266.471211 56.7678947,267.358211 56.7577895,268.245211 C56.7534737,268.593368 56.7788947,268.950211 56.8533684,269.289263 C56.9575789,269.761789 57.2793158,269.880421 57.6083158,269.539 C58.0261053,269.105368 58.3944737,268.617421 58.7402105,268.121842 C59.3683684,267.220421 59.8375263,266.231158 60.2414211,265.211158 C60.4503158,264.684842 60.6102632,264.570526 61.1764211,264.569105 C62.2406316,264.566684 63.3048421,264.565737 64.3690526,264.569105 C64.5577895,264.570053 64.7551579,264.587842 64.9333158,264.644526 C65.2224211,264.736737 65.3372105,264.972526 65.2694737,265.271737 C65.1114737,265.972895 64.7325789,266.568842 64.3267895,267.141789 C63.6755789,268.060947 62.9931579,268.958053 62.3266316,269.866632 C62.2416316,269.982368 62.1667368,270.105789 62.0970526,270.231105 C61.8477895,270.681579 61.8651053,270.934158 62.2286316,271.309211 C62.8073158,271.906158 63.4268421,272.464632 63.9872632,273.077895 C64.3945263,273.524053 64.7714737,274.008105 65.0942105,274.517632 C65.5024211,275.162105 65.2502632,275.769105 64.4876842,275.877158 C64.0079474,275.944895 61.6644737,275.877684 61.5433684,275.877158 C60.9133158,275.874316 60.3610526,275.655789 59.9163158,275.227895 C59.4216842,274.751526 58.9721579,274.229 58.4972105,273.731947 C58.3541053,273.582105 58.2013684,273.438526 58.0366842,273.313158 C57.6481579,273.016842 57.2668421,273.082632 57.0853158,273.538895 C56.9302105,273.930789 56.7962105,274.959895 56.7899474,275.047789 C56.7573158,275.507368 56.4648421,275.800316 55.95,275.828632 C54.4636842,275.909316 53.0234211,275.743632 51.6816842,275.024737 C50.5444737,274.415789 49.6363684,273.554737 48.8497368,272.550579 C47.6001579,270.955632 46.6131579,269.202421 45.7120526,267.397737 C45.666,267.305474 44.7533158,265.363368 44.7287895,265.271632 C44.6472632,264.964474 44.7233158,264.671053 44.9828421,264.570053 C45.1446316,264.507105 48.1537895,264.569842 48.2038421,264.572526 C48.684,264.598526 49.0114211,264.801105 49.2136842,265.299474 L49.2136842,265.299474 Z" id="vk"></path>
        </g>
    </g>
</svg>