<svg xmlns="http://www.w3.org/2000/svg" width="70" height="70" viewBox="0 0 70 70">
  <defs>
    <linearGradient id="svgActionNew" x1="0%" y1="0%" y2="100%">
      <stop offset="0%" stop-color="#AAF052"/>
      <stop offset="100%" stop-color="#32BE00"/>
    </linearGradient>
  </defs>
  <g fill="none" fill-rule="evenodd">
    <rect width="70" height="70" fill="url(#svgActionNew)" rx="4"/>
    <text fill="#FFF" font-family="Circe-Bold, Circe" font-size="9" font-weight="bold">
      <tspan x="17" y="62">Новинка</tspan>
    </text>
    <path fill="#FFF" d="M30.355 10.007c.312-.025.638.024.926.163l3.219 1.538 3.218-1.538c.755-.366 1.76-.123 2.27.56l2.153 2.867 3.565.163c.87.035 1.595.674 1.737 1.538l.579 3.567 3.08 1.795a1.874 1.874 0 0 1 .833 2.19L50.8 26.255l1.922 3.03a1.87 1.87 0 0 1-.3 2.331L49.85 34.11l.3 3.59a1.863 1.863 0 0 1-1.319 1.934l-3.45.979-1.39 3.31c-.34.805-1.218 1.278-2.06 1.096l-3.496-.723-2.779 2.284c-.327.271-.734.42-1.157.42-.424 0-.83-.15-1.158-.42l-2.779-2.284-3.496.723a1.755 1.755 0 0 1-.37.046c-.733 0-1.4-.456-1.69-1.142l-1.39-3.31-3.45-.979a1.864 1.864 0 0 1-1.32-1.935l.301-3.59-2.57-2.494c-.63-.606-.768-1.588-.3-2.33l1.92-3.031-1.134-3.403a1.867 1.867 0 0 1 .834-2.191l3.08-1.795.578-3.567a1.828 1.828 0 0 1 1.737-1.538l3.566-.163 2.153-2.868c.32-.428.823-.68 1.343-.722zm.027 22.293V26h-1.035v4.383L25.882 26H25v6.3h1.035v-4.365L29.5 32.3h.882zm1.521 0h3.735v-1.035H33.01v-1.629h2.268v-1.035H33.01v-1.566h2.538V26h-3.645v6.3zM44.8 26h-1.062l-1.26 4.5-1.44-4.5H39.94l-1.404 4.491L37.267 26h-1.242l1.881 6.3h1.044l1.494-4.554 1.521 4.554H43l1.8-6.3z"/>
  </g>
</svg>
