<svg xmlns="http://www.w3.org/2000/svg" width="70" height="70" viewBox="0 0 70 70">
  <defs>
    <linearGradient id="svgShopCena" x1="100%" x2="0%" y1="100%" y2="0%">
      <stop offset="0%" stop-color="#016CAE"/>
      <stop offset="100%" stop-color="#1CC8F7"/>
    </linearGradient>
  </defs>
  <g fill="none" fill-rule="evenodd">
    <rect width="70" height="70" fill="url(#svgShopCena)" opacity=".819" rx="4"/>
    <text fill="#FFF" font-family="Circe-Bold, Circe" font-size="9" font-weight="bold">
      <tspan x="14" y="62">Шоп-цена</tspan>
    </text>
    <path fill="#FFF" d="M30.355 10.007c.312-.025.638.024.926.163l3.219 1.538 3.218-1.538c.755-.366 1.76-.123 2.27.56l2.153 2.867 3.565.163c.87.035 1.595.674 1.737 1.538l.579 3.567 3.08 1.795a1.874 1.874 0 0 1 .833 2.19L50.8 26.255l1.922 3.03a1.87 1.87 0 0 1-.3 2.331L49.85 34.11l.3 3.59a1.863 1.863 0 0 1-1.319 1.934l-3.45.979-1.39 3.31c-.34.805-1.218 1.278-2.06 1.096l-3.496-.723-2.779 2.284c-.327.271-.734.42-1.157.42-.424 0-.83-.15-1.158-.42l-2.779-2.284-3.496.723a1.755 1.755 0 0 1-.37.046c-.733 0-1.4-.456-1.69-1.142l-1.39-3.31-3.45-.979a1.864 1.864 0 0 1-1.32-1.935l.301-3.59-2.57-2.494c-.63-.606-.768-1.588-.3-2.33l1.92-3.031-1.134-3.403a1.867 1.867 0 0 1 .834-2.191l3.08-1.795.578-3.567a1.828 1.828 0 0 1 1.737-1.538l3.566-.163 2.153-2.868c.32-.428.823-.68 1.343-.722zM28.96 34.634l1.277.896 9.749-13.106-1.257-.954-9.769 13.164zm-2.573-9.659c0 2.084 1.606 3.486 3.811 3.486s3.81-1.402 3.81-3.486c0-2.103-1.605-3.466-3.81-3.466s-3.81 1.363-3.81 3.466zm2.09 0c0-1.012.754-1.655 1.721-1.655.987 0 1.741.643 1.741 1.655 0 1.032-.735 1.675-1.74 1.675-.949 0-1.722-.643-1.722-1.675zm8.55 7.05c0-1.013.754-1.656 1.721-1.656.987 0 1.741.643 1.741 1.656 0 1.032-.735 1.674-1.741 1.674-.948 0-1.722-.642-1.722-1.674zm-2.09 0c0 2.083 1.606 3.486 3.811 3.486s3.81-1.403 3.81-3.486c0-2.103-1.605-3.467-3.81-3.467s-3.81 1.364-3.81 3.467z"/>
  </g>
</svg>
