<?xml version="1.0" encoding="UTF-8"?>
<svg width="14px" height="20px" viewBox="0 0 14 20" version="1.1" xmlns="http://www.w3.org/2000/svg" xmlns:xlink="http://www.w3.org/1999/xlink">
    <!-- Generator: sketchtool 41 (35326) - http://www.bohemiancoding.com/sketch -->
    <title>9A196438-F513-42AD-9661-9BB5375F09E1</title>
    <desc>Created with sketchtool.</desc>
    <defs>
        <linearGradient x1="0%" y1="-22.7166193%" x2="75.8238636%" y2="94.8863636%" id="linearGradient-1">
            <stop stop-color="#FB61F2" offset="0%"></stop>
            <stop stop-color="#F76B1C" offset="100%"></stop>
        </linearGradient>
    </defs>
    <g id="iphone" stroke="none" stroke-width="1" fill="none" fill-rule="evenodd">
        <g id="resources" transform="translate(-50.000000, -376.000000)" fill="url(#linearGradient-1)">
            <path d="M57,376 C53.1,376 50,379.1 50,383 C50,389 57,396 57,396 C57,396 64,388.9 64,383 C64,379.1 60.9,376 57,376 L57,376 Z M57,385.5 C55.6,385.5 54.5,384.4 54.5,383 C54.5,381.6 55.6,380.5 57,380.5 C58.4,380.5 59.5,381.6 59.5,383 C59.5,384.4 58.4,385.5 57,385.5 L57,385.5 Z" id="marker"></path>
        </g>
    </g>
</svg>