<?xml version="1.0" encoding="UTF-8"?>
<svg width="20px" height="20px" viewBox="0 0 20 20" version="1.1" xmlns="http://www.w3.org/2000/svg" xmlns:xlink="http://www.w3.org/1999/xlink">
    <!-- Generator: sketchtool 41 (35326) - http://www.bohemiancoding.com/sketch -->
    <title>9A08E05D-DC10-4521-A919-C6BCA493CDAC</title>
    <desc>Created with sketchtool.</desc>
    <defs></defs>
    <g id="iphone" stroke="none" stroke-width="1" fill="none" fill-rule="evenodd">
        <g id="resources" transform="translate(-360.000000, -195.000000)" fill="#FE3F35">
            <path d="M370,195 C364.477153,195 360,199.475938 360,205 L360,205 C360,210.522847 364.475938,215 370,215 L370,215 C375.522847,215 380,210.524062 380,205 L380,205 C380,199.477153 375.524062,195 370,195 L370,195 Z M374.615385,201.314286 L373.685714,200.384615 L370,204.07033 L366.314286,200.384615 L365.384615,201.314286 L369.07033,205 L365.384615,208.685714 L366.314286,209.615385 L370,205.92967 L373.685714,209.615385 L374.615385,208.685714 L370.92967,205 L374.615385,201.314286" id="remove-active"></path>
        </g>
    </g>
</svg>