<?xml version="1.0" encoding="UTF-8"?>
<svg width="16px" height="16px" viewBox="0 0 16 16" version="1.1" xmlns="http://www.w3.org/2000/svg" xmlns:xlink="http://www.w3.org/1999/xlink">
    <!-- Generator: sketchtool 41 (35326) - http://www.bohemiancoding.com/sketch -->
    <title>3D744ACF-8246-40F9-AE10-C10442179C07</title>
    <desc>Created with sketchtool.</desc>
    <defs></defs>
    <g id="iphone" stroke="none" stroke-width="1" fill="none" fill-rule="evenodd">
        <g id="resources" transform="translate(-400.000000, -197.000000)" fill="#9B9B9B">
            <path d="M408,197 C403.588727,197 400,200.588727 400,205 C400,209.411273 403.588727,213 408,213 C412.411273,213 416,209.411273 416,205 C416,200.588727 412.411273,197 408,197 Z M411.348,207.833818 C411.490182,207.976 411.490182,208.205818 411.348,208.348 C411.277091,208.418909 411.184,208.454545 411.090909,208.454545 C410.997818,208.454545 410.904727,208.418909 410.833818,208.348 L408,205.514182 L405.166182,208.348 C405.095273,208.418909 405.002182,208.454545 404.909091,208.454545 C404.816,208.454545 404.722909,208.418909 404.652,208.348 C404.509818,208.205818 404.509818,207.976 404.652,207.833818 L407.485818,205 L404.652,202.166182 C404.509818,202.024 404.509818,201.794182 404.652,201.652 C404.794182,201.509818 405.024,201.509818 405.166182,201.652 L408,204.485818 L410.833818,201.652 C410.976,201.509818 411.205818,201.509818 411.348,201.652 C411.490182,201.794182 411.490182,202.024 411.348,202.166182 L408.514182,205 L411.348,207.833818 Z" id="remove-small"></path>
        </g>
    </g>
</svg>