<?xml version="1.0" encoding="UTF-8"?>
<svg width="20px" height="20px" viewBox="0 0 20 20" version="1.1" xmlns="http://www.w3.org/2000/svg" xmlns:xlink="http://www.w3.org/1999/xlink">
    <!-- Generator: sketchtool 41 (35326) - http://www.bohemiancoding.com/sketch -->
    <title>B6B75DA0-0F0E-41AF-8FC9-F14661D1E722</title>
    <desc>Created with sketchtool.</desc>
    <defs></defs>
    <g id="iphone" stroke="none" stroke-width="1" fill="none" fill-rule="evenodd">
        <g id="resources" transform="translate(-322.000000, -194.000000)" fill="#888888">
            <path d="M332,194 C326.477153,194 322,198.475938 322,204 L322,204 C322,209.522847 326.475938,214 332,214 L332,214 C337.522847,214 342,209.524062 342,204 L342,204 C342,198.477153 337.524062,194 332,194 L332,194 Z M336.615385,200.314286 L335.685714,199.384615 L332,203.07033 L328.314286,199.384615 L327.384615,200.314286 L331.07033,204 L327.384615,207.685714 L328.314286,208.615385 L332,204.92967 L335.685714,208.615385 L336.615385,207.685714 L332.92967,204 L336.615385,200.314286" id="remove"></path>
        </g>
    </g>
</svg>