<?xml version="1.0" encoding="UTF-8"?>
<svg width="21px" height="16px" viewBox="0 0 21 16" version="1.1" xmlns="http://www.w3.org/2000/svg" xmlns:xlink="http://www.w3.org/1999/xlink">
    <!-- Generator: sketchtool 41 (35326) - http://www.bohemiancoding.com/sketch -->
    <title>53AD8365-B96E-4D27-AA5C-CD4A3C3301D2</title>
    <desc>Created with sketchtool.</desc>
    <defs></defs>
    <g id="iphone" stroke="none" stroke-width="1" fill="none" fill-rule="evenodd" fill-opacity="0.6">
        <g id="resources" transform="translate(-263.000000, -376.000000)" fill="#000000">
            <path d="M273.185,376 C276.16,376 278.89,376.748936 280.955,378.008511 L280.955,381.378723 C279.94,380.493617 278.295,379.948936 276.475,379.948936 C273.99,379.948936 271.645,381.004255 271.645,383.795745 C271.645,386.451064 273.885,387.642553 276.475,387.642553 C278.33,387.642553 279.905,387.131915 280.955,386.178723 L280.955,389.651064 C278.89,390.876596 276.16,391.659574 273.185,391.659574 C267.76,391.659574 263,389.242553 263,383.829787 C263,378.144681 267.935,376 273.185,376 L273.185,376 Z M283.825,381.719149 L278.295,381.719149 L278.295,383.353191 L279.485,383.353191 L279.485,385.838298 L282.67,385.838298 L282.67,383.353191 L283.86,383.353191 L283.86,381.719149 L283.825,381.719149 Z M276.79,376.817021 C277.175,376.919149 277.595,377.021277 277.98,377.123404 C278.505,377.293617 279.03,377.497872 279.52,377.702128 C279.87,377.87234 280.185,378.008511 280.5,378.212766 L280.5,380.459574 L280.045,380.255319 L279.485,380.017021 L278.89,379.812766 L278.26,379.676596 L277.595,379.574468 L276.895,379.540426 L276.3,379.540426 C275.88,379.540426 275.495,379.608511 275.11,379.676596 C274.865,379.710638 274.655,379.778723 274.41,379.846809 C274.2,379.914894 273.955,379.982979 273.745,380.085106 L273.325,380.289362 C273.115,380.391489 272.94,380.52766 272.765,380.66383 L272.415,380.970213 L272.1,381.310638 L271.82,381.685106 L271.61,382.093617 L271.435,382.53617 L271.33,383.012766 L271.26,383.557447 L271.26,384.102128 L271.33,384.612766 L271.435,385.089362 L271.61,385.531915 L271.82,385.940426 L272.065,386.314894 L272.38,386.655319 L272.73,386.961702 C272.905,387.097872 273.08,387.234043 273.29,387.33617 C273.5,387.438298 273.71,387.540426 273.92,387.642553 C274.13,387.710638 274.375,387.812766 274.585,387.880851 C274.83,387.948936 275.04,387.982979 275.285,388.017021 C275.53,388.051064 275.775,388.085106 276.02,388.085106 L276.51,388.085106 C276.86,388.085106 277.21,388.051064 277.56,388.017021 L278.225,387.914894 L278.855,387.778723 L279.45,387.574468 L280.01,387.33617 L280.5,387.06383 L280.5,389.412766 C280.045,389.651064 279.59,389.889362 279.1,390.093617 C278.645,390.26383 278.225,390.434043 277.77,390.570213 C277.28,390.706383 276.825,390.842553 276.335,390.910638 C275.81,391.012766 275.32,391.080851 274.795,391.114894 C274.34,391.148936 273.92,391.182979 273.465,391.182979 C273.045,391.182979 272.625,391.182979 272.205,391.148936 L271.26,391.080851 L270.315,390.944681 L269.405,390.740426 L268.565,390.502128 L268.145,390.365957 L267.76,390.195745 L267.375,390.025532 L266.99,389.821277 L266.64,389.617021 L266.29,389.412766 L265.975,389.174468 L265.66,388.93617 L265.38,388.66383 L265.1,388.391489 L264.855,388.085106 L264.61,387.778723 L264.4,387.47234 L264.19,387.131915 L264.015,386.791489 L263.875,386.417021 L263.735,386.042553 L263.63,385.634043 L263.56,385.225532 L263.49,384.782979 L263.455,384.340426 L263.455,383.86383 L263.455,383.353191 L263.49,382.876596 L263.56,382.434043 L263.665,381.991489 L263.77,381.582979 L263.91,381.174468 L264.085,380.8 L264.26,380.425532 L264.47,380.085106 L264.68,379.744681 L264.925,379.438298 L265.17,379.131915 L265.45,378.859574 L265.73,378.587234 L266.045,378.348936 L266.36,378.110638 L266.71,377.906383 L267.06,377.702128 L267.445,377.531915 L267.83,377.361702 L268.215,377.191489 L269.055,376.919149 L269.93,376.714894 L270.84,376.544681 L271.75,376.442553 L272.695,376.408511 L273.43,376.408511 C274.13,376.408511 274.83,376.476596 275.53,376.578723 C275.985,376.680851 276.405,376.748936 276.79,376.817021 L276.79,376.817021 Z M283.37,382.910638 L282.18,382.910638 L282.18,385.395745 L279.905,385.395745 L279.905,382.910638 L278.715,382.910638 L278.715,382.12766 L283.37,382.12766 L283.37,382.910638 L283.37,382.910638 Z M267.83,379.438298 C269.44,379.438298 270.735,380.697872 270.735,382.26383 C270.735,383.829787 269.44,385.089362 267.83,385.089362 C267.655,385.089362 267.445,385.055319 267.27,385.021277 L267.27,383.387234 C267.445,383.455319 267.62,383.523404 267.83,383.523404 C268.565,383.523404 269.125,382.944681 269.125,382.26383 C269.125,381.548936 268.53,381.004255 267.83,381.004255 C267.13,381.004255 266.535,381.582979 266.535,382.26383 L266.535,382.26383 L266.535,384.782979 L266.535,388.255319 C265.87,388.051064 265.31,387.608511 264.925,386.92766 L264.925,382.331915 L264.925,382.26383 C264.925,380.731915 266.22,379.438298 267.83,379.438298 L267.83,379.438298 Z" id="rostest"></path>
        </g>
    </g>
</svg>