<?xml version="1.0" encoding="UTF-8"?>
<svg width="23px" height="21px" viewBox="0 0 23 21" version="1.1" xmlns="http://www.w3.org/2000/svg" xmlns:xlink="http://www.w3.org/1999/xlink">
    <!-- Generator: sketchtool 41 (35326) - http://www.bohemiancoding.com/sketch -->
    <title>ECA1C125-4B3F-4714-89DE-3B63525BADBB</title>
    <desc>Created with sketchtool.</desc>
    <defs></defs>
    <g id="iphone" stroke="none" stroke-width="1" fill="none" fill-rule="evenodd">
        <g id="resources" transform="translate(-95.000000, -92.000000)" fill="#000000">
            <path d="M96,92 C95.4485,92 95,92.4485 95,93 L95,107.5 C95,108.0515 95.4485,108.5 96,108.5 L103.5,108.5 L103.5,110 L102,110 C101.173,110 100.5,110.673 100.5,111.5 L100.5,112.5 L112.5,112.5 L112.5,111.5 C112.5,110.673 111.827,110 111,110 L109.5,110 L109.5,108.5 L117,108.5 C117.5515,108.5 118,108.0515 118,107.5 L118,93 C118,92.4485 117.5515,92 117,92 L96,92 Z M96,93 L117,93 L117.000977,107.5 L96,107.5 L96,105.5 L117,105.5 L117,104.5 L96,104.5 L96,93 Z M114.5,106 L114.5,107 L115.5,107 L115.5,106 L114.5,106 Z M104.5,108.5 L108.5,108.5 L108.5,110 L104.5,110 L104.5,108.5 Z M102,111 L111,111 C111.2755,111 111.5,111.2245 111.5,111.5 L101.5,111.5 C101.5,111.2245 101.7245,111 102,111 Z" id="to-desktop"></path>
        </g>
    </g>
</svg>