<?xml version="1.0" encoding="UTF-8"?>
<svg width="24px" height="24px" viewBox="0 0 24 24" version="1.1" xmlns="http://www.w3.org/2000/svg" xmlns:xlink="http://www.w3.org/1999/xlink">
    <!-- Generator: sketchtool 41 (35326) - http://www.bohemiancoding.com/sketch -->
    <title>01E35B4B-060A-4576-8A70-9F72175BC566</title>
    <desc>Created with sketchtool.</desc>
    <defs></defs>
    <g id="iphone" stroke="none" stroke-width="1" fill="none" fill-rule="evenodd">
        <g id="resources" transform="translate(-192.000000, -90.000000)" fill="#99C6E5">
            <path d="M204,90 C197.378268,90 192,95.3782685 192,102 C192,108.621732 197.378268,114 204,114 C210.621732,114 216,108.621732 216,102 C216,95.3782685 210.621732,90 204,90 Z M204,90.96 C210.102909,90.96 215.04,95.8970909 215.04,102 C215.04,105.204088 213.675929,108.084339 211.5,110.1 C209.686548,108.793052 206.93602,108.578419 206.37,107.055 C206.29992,106.28124 206.325,105.73704 206.325,105.03 C206.6754,104.84616 207.29892,103.68024 207.405,102.69 C207.68052,102.66744 208.1178,102.40128 208.245,101.34 C208.31364,100.77024 208.03608,100.4508 207.87,100.35 C208.31832,99.00168 209.26176,94.82604 206.16,94.395 C205.8408,93.83436 205.01724,93.555 203.955,93.555 C199.70508,93.63324 199.19832,96.7644 200.13,100.35 C199.9644,100.4508 199.68684,100.77024 199.755,101.34 C199.88268,102.40128 200.31948,102.66744 200.595,102.69 C200.7006,103.67976 201.35364,104.84616 201.705,105.03 C201.705,105.73704 201.73008,106.28124 201.66,107.055 C201.09255,108.5805 198.321342,108.787152 196.5,110.1 C194.324071,108.084339 192.96,105.204088 192.96,102 C192.96,95.8970909 197.897091,90.96 204,90.96 Z" id="user"></path>
        </g>
    </g>
</svg>