<?xml version="1.0" encoding="UTF-8"?>
<svg width="152px" height="33px" viewBox="0 0 152 33" version="1.1" xmlns="http://www.w3.org/2000/svg" xmlns:xlink="http://www.w3.org/1999/xlink">
    <!-- Generator: sketchtool 41 (35326) - http://www.bohemiancoding.com/sketch -->
    <title>04FF2552-9E14-4E24-A2FC-113B8523940B</title>
    <desc>Created with sketchtool.</desc>
    <defs></defs>
    <g id="iphone" stroke="none" stroke-width="1" fill="none" fill-rule="evenodd">
        <g id="resources" transform="translate(-416.000000, -37.000000)" fill="#1A84FF">
            <g id="xcom-logo-new" transform="translate(416.000000, 37.000000)">
                <polygon id="Shape" points="7.6 21.5 7.6 15.6 3.3 21.5 0.6 21.5 0.6 11.2 3.3 11.2 3.3 17.1 7.6 11.2 10.4 11.2 10.4 21.5"></polygon>
                <polygon id="Shape" points="22 21.5 18.6 21.5 15.1 16.9 15.1 21.5 12.4 21.5 12.4 11.2 15.1 11.2 15.1 15.6 18.4 11.2 21.7 11.2 17.6 16.2"></polygon>
                <path d="M31.6,12.4 L30.2,14.3 C29.8,14 29.5,13.8 29,13.6 C28.6,13.4 28.2,13.4 27.7,13.4 C27.1,13.4 26.6,13.5 26.2,13.8 C25.8,14.1 25.4,14.4 25.2,14.9 C25,15.4 24.8,15.9 24.8,16.4 C24.8,17 24.9,17.5 25.2,17.9 C25.4,18.4 25.8,18.7 26.2,19 C26.6,19.3 27.1,19.4 27.6,19.4 C28.1,19.4 28.5,19.3 29,19.1 C29.5,18.9 29.9,18.6 30.3,18.3 L31.6,20.2 C31.1,20.7 30.5,21.1 29.8,21.4 C29.1,21.7 28.4,21.8 27.6,21.8 C26.6,21.8 25.6,21.6 24.8,21.1 C23.9,20.6 23.3,20 22.8,19.2 C22.3,18.4 22.1,17.5 22.1,16.4 C22.1,15.4 22.3,14.5 22.8,13.6 C23.3,12.8 24,12.1 24.8,11.7 C25.7,11.2 26.6,11 27.7,11 C28.4,11 29.1,11.1 29.7,11.4 C30.5,11.6 31.1,11.9 31.6,12.4 Z" id="Shape"></path>
                <polygon id="Shape" points="42.8 21.5 39.4 21.5 35.9 16.9 35.9 21.5 33.2 21.5 33.2 11.2 35.9 11.2 35.9 15.6 39.2 11.2 42.5 11.2 38.4 16.2"></polygon>
                <path d="M53.4,13.6 C53.9,14.4 54.1,15.3 54.1,16.4 C54.1,17.4 53.9,18.3 53.4,19.2 C52.9,20 52.2,20.7 51.4,21.1 C50.6,21.6 49.6,21.8 48.6,21.8 C47.6,21.8 46.7,21.6 45.8,21.1 C45,20.6 44.3,20 43.8,19.2 C43.3,18.4 43.1,17.5 43.1,16.4 C43.1,15.4 43.3,14.5 43.8,13.6 C44.3,12.8 45,12.1 45.8,11.7 C46.6,11.2 47.6,11 48.6,11 C49.6,11 50.6,11.2 51.4,11.7 C52.2,12.1 52.9,12.8 53.4,13.6 Z M46.1,14.8 C45.8,15.2 45.7,15.8 45.7,16.3 C45.7,16.9 45.8,17.4 46.1,17.8 C46.4,18.3 46.7,18.6 47.1,18.9 C47.5,19.2 48,19.3 48.5,19.3 C49,19.3 49.5,19.2 49.9,18.9 C50.3,18.6 50.7,18.3 50.9,17.8 C51.1,17.4 51.3,16.8 51.3,16.3 C51.3,15.7 51.2,15.2 50.9,14.8 C50.7,14.4 50.3,14 49.9,13.7 C49.5,13.4 49,13.3 48.5,13.3 C48,13.3 47.5,13.4 47.1,13.7 C46.7,14 46.4,14.4 46.1,14.8 Z" id="Shape"></path>
                <polygon id="Shape" points="66.6 21.5 66.1 15 63.8 21.5 61 21.5 58.7 15 58.2 21.5 55.5 21.5 56.4 11.2 60 11.2 62.4 18.1 64.8 11.2 68.4 11.2 69.3 21.5"></polygon>
                <polygon id="Shape" points="116.3 21.5 116.3 11.2 118.9 11.2 118.9 19 121 19 121 11.2 123.5 11.2 123.5 19 125.5 19 125.5 11.2 128.1 11.2 128.1 21.5"></polygon>
                <path d="M140.1,13.6 C140.6,14.4 140.8,15.3 140.8,16.4 C140.8,17.4 140.6,18.3 140.1,19.2 C139.6,20 138.9,20.7 138.1,21.1 C137.3,21.6 136.3,21.8 135.3,21.8 C134.3,21.8 133.4,21.6 132.5,21.1 C131.7,20.6 131,20 130.5,19.2 C130,18.4 129.8,17.5 129.8,16.4 C129.8,15.4 130,14.5 130.5,13.6 C131,12.8 131.7,12.1 132.5,11.7 C133.3,11.2 134.3,11 135.3,11 C136.3,11 137.3,11.2 138.1,11.7 C139,12.1 139.6,12.8 140.1,13.6 Z M132.9,14.8 C132.6,15.2 132.5,15.8 132.5,16.3 C132.5,16.9 132.6,17.4 132.9,17.8 C133.2,18.3 133.5,18.6 133.9,18.9 C134.3,19.2 134.8,19.3 135.3,19.3 C135.8,19.3 136.3,19.2 136.7,18.9 C137.1,18.6 137.5,18.3 137.7,17.8 C137.9,17.4 138.1,16.8 138.1,16.3 C138.1,15.7 138,15.2 137.7,14.8 C137.5,14.4 137.1,14 136.7,13.7 C136.3,13.4 135.8,13.3 135.3,13.3 C134.8,13.3 134.3,13.4 133.9,13.7 C133.5,14 133.1,14.4 132.9,14.8 Z" id="Shape"></path>
                <polygon id="Shape" points="148.7 21.5 148.7 13.7 145.3 13.7 145.3 21.5 142.6 21.5 142.6 11.2 151.3 11.2 151.3 21.5"></polygon>
                <path d="M108.8,12.5 L97,0.7 L92.9,4.8 L88.8,0.7 L77,12.5 L81.1,16.6 L77,20.7 L88.8,32.5 L92.9,28.4 L97,32.5 L108.8,20.7 L104.7,16.6 L108.8,12.5 Z M97,3.3 L106.2,12.5 L103.4,15.3 L94.2,6.1 L97,3.3 Z M79.5,12.5 L88.7,3.3 L91.5,6.1 L82.3,15.3 L79.5,12.5 Z M88.7,29.9 L79.5,20.7 L82.3,17.9 L91.5,27.1 L88.7,29.9 Z M83.7,16.6 L92.9,7.4 L102.1,16.6 L92.9,25.8 L83.7,16.6 Z M106.1,20.8 L96.9,30 L94.1,27.2 L103.3,18 L106.1,20.8 Z" id="Shape"></path>
            </g>
        </g>
    </g>
</svg>