<?xml version="1.0" encoding="utf-8"?>
<!-- Generator: Adobe Illustrator 27.7.0, SVG Export Plug-In . SVG Version: 6.00 Build 0)  -->
<svg version="1.1" id="Слой_1" xmlns="http://www.w3.org/2000/svg" xmlns:xlink="http://www.w3.org/1999/xlink" x="0px" y="0px"
	 viewBox="0 0 24 24" style="enable-background:new 0 0 24 24;" xml:space="preserve">
<style type="text/css">
	.st0{fill:#5C7896;}
	.st1{opacity:0.3;fill:#1B3F63;enable-background:new    ;}
	.st2{fill:#769CC2;}
	.st3{fill:#FFFFFF;}
</style>
<path class="st0" d="M2.2,0.7v22.5h19.5V5.9h-5.2V0.7C16.5,0.7,2.2,0.7,2.2,0.7z"/>
<path class="st1" d="M21.8,11.2l-5.2-5.3h5.2V11.2z"/>
<path class="st2" d="M16.5,0.7l5.2,5.2h-5.2C16.5,5.9,16.5,0.7,16.5,0.7z"/>
<path class="st3" d="M16.9,12.5c-0.4-0.2-0.8-0.4-1.2-0.6L16.9,12.5z M17.6,12.8l-0.3-0.1l-0.4-0.2l-1.2-0.6c-0.2-0.1-0.4-0.1-0.6,0
	l-1.2,0.6l-0.4,0.2l-0.3,0.1l2.2,1C15.4,13.8,17.6,12.8,17.6,12.8z M13.8,12.5l-0.4,0.2L13.8,12.5z M15.1,11.8
	c-0.4,0.2-0.8,0.4-1.2,0.6L15.1,11.8z M17.3,12.7l-0.4-0.2L17.3,12.7z M8.6,13.8l2.2-1l-2.2-1h0l-2.3,1C6.4,12.8,8.6,13.8,8.6,13.8z
	 M15.8,14.6v3.1l2.4-1.1v-3.1L15.8,14.6z M12.5,13.5v3.1l2.4,1.1v-3.1L12.5,13.5z M12.5,8.9v3.1l2.4-1.2v-3
	C14.9,7.9,12.5,8.9,12.5,8.9z M12,6.1L9.8,7.1l2.2,1l2.2-1L12,6.1z M9.1,14.6v3.1l2.4-1.1v-3.1L9.1,14.6z M9.1,7.9v3.1l2.4,1.2V8.9
	C11.5,8.9,9.1,7.9,9.1,7.9z M5.8,13.5v3.1l2.4,1.1v-3.1C8.2,14.6,5.8,13.5,5.8,13.5z"/>
</svg>
