<svg viewBox="0 0 32 32" width="24" height="24" data-testid="rvt" class="sc-rZqKh dJGMmf DocumentNamestyles__CellEntityIcon-hZsYTT ildMWj"><defs><path d="M10.289 15.258S6.224 9.69 6.085 9.272c.146.313.855 1.3.855 1.3s-.26-.413-.592-1.084c-.332-.671-.159-1.149.071-1.504.23-.355.919-1.009 1.211-2.15.226-.884.142-2.365-.612-3.592C5.968.535 3.323.248 2.66.17l-.074 1.81c.888.028 1.83.251 2.524.834.695.585.946 2.172.612 3.201-.334 1.03-2.227 1.755-3.063 1.95-.835.195-2.43.384-2.43.384V.168h10.059v15.09" id="rvt_svg__a"></path><path d="M.071.123V.12c.06 5.84 1.588 7.237 2.492 8.228l-.835 7.04-1.586-.56L.071.123" id="rvt_svg__c"></path><path d="M.222 1.675C.246.458.898.289 1.603.289c.214 0 .433.016.64.022 0 0 .845.102 1.517.455.544.285.627.853.627 1.744s-.334 1.365-.723 1.587c-.39.223-.864.307-1.754.362-.205.013-.306.019-.48-.029.508.044.94-.094 1.1-.134.623-.157.865-.534.956-.758.09-.219.109-.513.076-1-.042-.605-.737-.762-1.002-.803-.265-.041-.427-.069-.973-.036-.538.033-.726.417-.737.704-.04 1.093.131 1.775.131 1.775-.224-.169-.435-.382-.52-.526" id="rvt_svg__e"></path><path d="M2.587.312c.888.028 1.83.252 2.524.834.695.585.946 2.172.612 3.202-.334 1.03-2.227 1.754-3.063 1.949-.835.195-2.43.384-2.43.384l.004-.748.804-1.244.595-.343c.199.092.295.133.61.113.89-.055 1.364-.139 1.754-.362.39-.222.724-.696.724-1.587 0-.89-.11-1.48-.627-1.744" id="rvt_svg__g"></path><radialGradient cx="71.043%" cy="10.115%" fx="71.043%" fy="10.115%" r="136.328%" gradientTransform="matrix(0 .88542 -1 0 .812 -.528)" id="rvt_svg__h"><stop stop-color="#343A53" offset="0%"></stop><stop stop-color="#343A53" offset="10.42%"></stop><stop stop-color="#3374BA" offset="80.81%"></stop><stop stop-color="#3374BA" offset="100%"></stop></radialGradient><radialGradient cx="13.481%" cy="10.823%" fx="13.481%" fy="10.823%" r="160.178%" gradientTransform="matrix(.3902 .79717 -.51521 .60375 .138 -.065)" id="rvt_svg__j"><stop stop-color="#39647A" offset="0%"></stop><stop stop-color="#39647A" offset="14.541%"></stop><stop stop-color="#7CC7EB" offset="78.78%"></stop><stop stop-color="#7CC7EB" offset="100%"></stop></radialGradient><linearGradient x1="-17.035%" y1="53.291%" x2="107.699%" y2="51.408%" id="rvt_svg__b"><stop stop-color="#3374BA" offset="0%"></stop><stop stop-color="#3374BA" offset="100%"></stop></linearGradient></defs><g fill="none" fill-rule="evenodd"><path fill="#1273C5" d="M22 1l7 7h-7z"></path><path fill="#0C5089" d="M3 1v30h26V8h-7V1z"></path><path fill="#FFF" d="M4 2v20h24V8h-6V2z"></path><path d="M14.666 7.29c-.115 0-.251.005-.416.015-.53.032-.781.406-.794.762-.036.994.1 1.65.128 1.772l.006.023.019.014a2.217 2.217 0 00.57.286l.006.002h.007a3.22 3.22 0 00.961-.127l.059-.015c.654-.165.906-.568.997-.794.092-.224.115-.522.08-1.028-.014-.211-.146-.717-1.053-.859l-.014-.002a3.118 3.118 0 00-.556-.049m-4.463 11.495l-.07-14.615a39.177 39.177 0 012.27-.068c1.006 0 1.875.043 2.584.127.724.086 1.319.216 1.767.386l.005.002h.005c.017.004 1.69.345 2.535 1.658.35.543.583 1.197.675 1.894.076.578.051 1.179-.07 1.65-.224.874-.683 1.458-.987 1.844a4.096 4.096 0 00-.216.288c-.206.32-.438.828-.074 1.564.373.753.595 1.105.717 1.268.131.177 2.687 3.752 3.156 4.408-.557-.026-2.797-.132-3.468-.15-.69-.019-.86-.268-.997-.468l-.029-.043-.134-.191c-.29-.413-.968-1.38-1.678-2.4-.888-1.275-1.521-1.895-1.935-1.895-.33 0-.499.369-.502 1.096l-.001.239c-.004.729-.011 2.085.001 2.984.006.417-.171.474-.396.546-.041.013-.084.027-.126.043-.247.096-1.352.34-1.503.374l-1.529-.541" fill="#15A"></path><path d="M4.92 1.978c.888.029 1.83.252 2.524.835.696.585.946 2.172.612 3.201-.334 1.03-2.227 1.755-3.062 1.95-.835.195-2.43.384-2.43.384l1.845.261c.536.076 1.51.464 2.06 1.003.634.619 1.459 1.717 2.39 2.628.93.91 3.763 3.018 3.763 3.018S8.558 9.69 8.418 9.272c.147.313.855 1.3.855 1.3s-.26-.413-.592-1.084c-.332-.671-.158-1.149.071-1.504.23-.355.919-1.009 1.212-2.15.226-.884.141-2.365-.613-3.592C8.301.535 5.657.248 4.994.17l-.074 1.81" fill="url(#rvt_svg__b)" transform="translate(10 4)"></path><g transform="translate(10 4)"><mask id="rvt_svg__d" fill="#fff"><use href="#rvt_svg__c"></use></mask><path d="M.142 14.828l1.586.56.835-7.04C1.658 7.356.13 5.959.071.112l.071 14.716" mask="url(#rvt_svg__d)"></path></g><g transform="translate(12.667 5.667)"><mask id="rvt_svg__f" fill="#fff"><use href="#rvt_svg__e"></use></mask><path d="M.222 1.675C.2 2.817.267 3.318.462 3.652c.084.144.295.357.52.526 0 0-.171-.682-.132-1.775.01-.287.199-.671.737-.704.546-.033.708-.005.973.036.265.041.96.198 1.002.803.033.487.014.781-.076 1-.09.224-.333.601-.956.758-.16.04-.592.178-1.1.134.174.048.275.042.48.03.89-.056 1.364-.14 1.754-.363.39-.222.723-.696.723-1.587 0-.89-.083-1.46-.627-1.744C3.088.413 2.244.31 2.244.31c-.208-.006-.427-.022-.64-.022C.897.289.245.458.221 1.675" mask="url(#rvt_svg__f)"></path></g><g transform="translate(12.333 5.667)"><mask id="rvt_svg__i" fill="#fff"><use href="#rvt_svg__g"></use></mask><path d="M4.094.766c.517.265.627.853.627 1.744s-.334 1.365-.724 1.587c-.39.223-.863.307-1.754.362-.315.02-.411-.021-.61-.113l-.595.343-.804 1.244-.004.748s1.595-.189 2.43-.384c.836-.195 2.729-.919 3.063-1.95.334-1.029.083-2.616-.612-3.2C4.417.563 3.475.34 2.587.311c.094.013.856.12 1.507.454z" fill="url(#rvt_svg__h)" mask="url(#rvt_svg__i)"></path></g><path d="M13.128 9.319c-.194-.334-.261-.835-.239-1.977.03-1.587 1.13-1.392 2.021-1.364h.01l.179-.354.026-.886-.131-.57c-2.093-.248-4.923-.056-4.923-.056.059 5.847 1.587 7.244 2.492 8.236l1.403-2.335c-.363-.169-.712-.478-.838-.694" fill="#3374BA"></path><path d="M14.92 5.979l-.01-.001.01.001" fill="#25495A"></path><path d="M17.444 6.813l-.068-.052-.038-.028a.751.751 0 00-.045-.033l-.115-.078c-.045-.027-.094-.058-.148-.089l-.086-.046-.046-.025-.048-.023a3.776 3.776 0 00-.45-.184 4.349 4.349 0 00-.555-.146c-.2-.04-.414-.068-.636-.085-.056-.005-.112-.007-.168-.011l-.171-.006-.349-.014a3.349 3.349 0 00-.703.03c-.115.02-.227.054-.33.106a.883.883 0 00-.27.206 1.014 1.014 0 00-.174.289c-.042.104-.07.213-.09.321-.038.218-.04.433-.044.638-.004.205-.004.399.001.577.006.179.015.342.03.486.017.144.04.269.067.369.028.1.058.176.082.227.011.026.022.044.028.057l.01.02-.01-.02c-.007-.012-.019-.03-.031-.055a1.417 1.417 0 01-.091-.225 2.413 2.413 0 01-.079-.37 4.978 4.978 0 01-.043-.487c-.008-.18-.012-.374-.012-.579v-.156-.08l.003-.08c.001-.027.001-.055.003-.082l.007-.083.004-.041.006-.042.011-.084c.02-.111.048-.224.091-.334a.949.949 0 01.472-.53c.11-.055.228-.091.348-.113.24-.042.482-.037.717-.028a379.606 379.606 0 01.52.024c.057.004.114.006.17.012a4.927 4.927 0 011.198.254c.17.06.32.129.449.197l.048.025.045.026.085.05c.054.033.102.065.146.093l.113.083a1.766 1.766 0 01.08.064l.066.055M22.622 19.258a60.385 60.385 0 01-1.259-.939 79.082 79.082 0 01-.624-.477l-.31-.242-.307-.244-.306-.246-.303-.25c-.2-.17-.401-.338-.592-.519l-.073-.067-.07-.07-.138-.139-.139-.139-.134-.143-.135-.144a6.853 6.853 0 01-.133-.145l-.261-.293-.516-.593c-.085-.1-.171-.198-.258-.296-.043-.049-.085-.099-.129-.147l-.132-.145-.132-.145-.205-.21-.017-.017-.007-.008-.01-.008-.036-.033-.072-.066-.075-.06c-.024-.021-.05-.04-.076-.059l-.078-.057-.081-.054-.04-.027-.042-.026-.083-.05-.084-.048c-.029-.016-.057-.033-.085-.047l-.087-.045a1.765 1.765 0 00-.087-.043l-.088-.042-.09-.039-.089-.038-.09-.036-.091-.034c-.06-.024-.123-.043-.184-.064a3.524 3.524 0 00-.375-.098l-.095-.016-.097-.014-.194-.028-1.555-.223.043-.033-.212 1.76-.326 2.639-.222 1.759-.113.879.096-.882.196-1.761.3-2.642.206-1.76.004-.039.039.005 1.555.218.195.027.097.014.098.016c.131.026.259.06.385.1.252.08.497.18.732.301l.087.046c.03.015.058.032.087.048.028.017.058.032.086.05l.084.051c.014.009.029.017.042.027l.042.027.082.056.08.058.079.061.078.064c.025.021.048.044.073.066l.036.033.009.009.01.01.016.017.069.071.137.142c.046.047.089.097.133.145l.132.146.13.148.257.297.512.594.26.294.133.145.132.144.133.143.137.141.137.14.069.07.07.067c.189.18.387.351.585.522l.3.252.304.249.305.247.307.245a109.694 109.694 0 001.236.968l.622.479" fill="#7CC8ED"></path><path d="M16.905 6.453c.19.098.372.214.538.35.167.137.295.315.397.504.101.19.178.392.236.598.059.207.1.419.124.633.024.213.032.429.023.644a3.43 3.43 0 01-.084.64 1.467 1.467 0 01-.26.594 2.489 2.489 0 01-.453.464 4.26 4.26 0 01-.534.363 6.467 6.467 0 01-.574.296 8.05 8.05 0 01-1.212.437l-.078.02-.04.009-.04.009c-.052.011-.103.024-.156.034l-.159.032-.158.03a27.315 27.315 0 01-1.27.197c-.212.029-.424.056-.637.081l-.02.003-.015-.016c-.124-.135-.25-.27-.372-.409a7.51 7.51 0 01-.354-.428 6.056 6.056 0 01-.593-.939 7.684 7.684 0 01-.432-1.022c-.12-.35-.217-.707-.298-1.067a13.034 13.034 0 01-.2-1.09 16.787 16.787 0 01-.126-1.099 23.562 23.562 0 01-.067-1.103 25.485 25.485 0 01-.015-.553l-.004-.276-.001-.277.007.277.01.276a33.958 33.958 0 00.06 1.103c.013.183.03.367.048.55.019.183.038.366.061.549a16.83 16.83 0 00.17 1.09 12.925 12.925 0 00.255 1.072c.051.177.107.352.167.525.12.347.263.685.431 1.01a6.246 6.246 0 00.94 1.349c.122.137.249.271.374.407l-.035-.013c.212-.026.424-.054.635-.083.212-.03.424-.058.635-.09.211-.033.422-.067.632-.104l.157-.029.157-.03c.052-.01.104-.023.157-.034l.039-.009.038-.009.077-.019a7.98 7.98 0 001.201-.429c.194-.088.384-.183.568-.29.184-.107.362-.223.528-.354a2.43 2.43 0 00.446-.447 1.42 1.42 0 00.256-.57c.05-.207.078-.418.089-.63a4.153 4.153 0 00-.13-1.266 2.915 2.915 0 00-.225-.596 1.644 1.644 0 00-.385-.504 3.046 3.046 0 00-.529-.361" fill="#7CC8ED"></path><path d="M1.728 15.389s1.257-.275 1.529-.38c.271-.104.568-.103.561-.646-.014-1.018-.003-2.653 0-3.223.005-1.107.4-1.93 2.326.835.87 1.249 1.69 2.415 1.812 2.59.146.209.302.516 1.074.537.773.02 3.592.156 3.592.156S9.788 13.15 8.858 12.24c-.93-.91-1.755-2.009-2.389-2.628-.55-.539-1.524-.927-2.06-1.003l-1.846-.261-.835 7.04" fill="url(#rvt_svg__j)" transform="translate(10 4)"></path><path fill="#1B3F63" opacity="0.2" d="M29 15l-7-7h7z"></path><g fill="#FFF"><path d="M11 25h1c.3 0 .5.2.5.5s-.2.5-.5.5h-1v-1zm-1-1v5h1v-2h.7l1.3 2h1l-1.4-2.1c.5-.2.9-.8.9-1.4 0-.8-.7-1.5-1.5-1.5h-2zM20.7 25H22v-1h-3.7v1h1.4v4h1zM16.3 29l2-5h-1l-1.5 4-1.5-4h-1l2 5z"></path></g></g></svg>