<svg viewBox="0 0 48 48" width="24" height="24" data-testid="xlsx" xmlns="http://www.w3.org/2000/svg"><path fill="#FFF" d="M43 44H13V4h21l9 9z"></path><path fill="#949494" d="M34 3H12v42h32V13L34 3zm0 1.5l8.5 8.5H34V4.5zM43 44H13V4h20v10h10v30z"></path><path fill="#217346" d="M4 17l20-3v26L4 37z"></path><path fill="#FFF" d="M20 33h-3.458l-2.23-3.908c-.085-.145-.172-.413-.262-.803h-.036a5.802 5.802 0 01-.298.837L11.476 33H8l4.126-6-3.774-6h3.549l1.85 3.598c.145.285.274.622.389 1.013h.036c.072-.234.208-.583.406-1.046L16.642 21h3.25l-3.883 5.95L20 33z"></path><path fill="#C8C8C8" d="M33 17h7v2h-7zM24 17h7v2h-7zM33 21h7v2h-7zM24 21h7v2h-7zM33 25h7v2h-7zM24 25h7v2h-7zM33 29h7v2h-7zM24 29h7v2h-7zM33 33h7v2h-7zM24 33h7v2h-7zM33 37h7v2h-7zM24 37h7v2h-7z"></path><linearGradient id="xlsx_svg__a" gradientUnits="userSpaceOnUse" x1="8.587" y1="5.864" x2="42.489" y2="46.268"><stop offset="0" stop-color="#fff" stop-opacity="0"></stop><stop offset="0.226" stop-color="#fcfcfc" stop-opacity="0.023"></stop><stop offset="0.363" stop-color="#f4f4f4" stop-opacity="0.036"></stop><stop offset="0.475" stop-color="#e6e6e6" stop-opacity="0.048"></stop><stop offset="0.574" stop-color="#d1d1d1" stop-opacity="0.057"></stop><stop offset="0.665" stop-color="#b7b7b7" stop-opacity="0.067"></stop><stop offset="0.75" stop-color="#979797" stop-opacity="0.075"></stop><stop offset="0.83" stop-color="#707070" stop-opacity="0.083"></stop><stop offset="0.906" stop-color="#444" stop-opacity="0.091"></stop><stop offset="0.976" stop-color="#121212" stop-opacity="0.098"></stop><stop offset="1" stop-opacity="0.1"></stop></linearGradient><path fill="url(#xlsx_svg__a)" d="M44 13L34 3H12v42h32V13z"></path><linearGradient id="xlsx_svg__b" gradientUnits="userSpaceOnUse" x1="38" y1="16.906" x2="38" y2="14.088"><stop offset="0" stop-color="#828282" stop-opacity="0"></stop><stop offset="0.281" stop-color="#7f7f7f" stop-opacity="0.028"></stop><stop offset="0.45" stop-color="#777" stop-opacity="0.045"></stop><stop offset="0.59" stop-color="#696969" stop-opacity="0.059"></stop><stop offset="0.713" stop-color="#545454" stop-opacity="0.071"></stop><stop offset="0.826" stop-color="#3a3a3a" stop-opacity="0.083"></stop><stop offset="0.929" stop-color="#1a1a1a" stop-opacity="0.093"></stop><stop offset="1" stop-opacity="0.1"></stop></linearGradient><path fill="url(#xlsx_svg__b)" d="M33 14h10v3H33z"></path><linearGradient id="xlsx_svg__c" gradientUnits="userSpaceOnUse" x1="31.27" y1="12.23" x2="37.236" y2="6.264"><stop offset="0" stop-color="#fff" stop-opacity="0"></stop><stop offset="0.854" stop-color="#fff" stop-opacity="0.213"></stop><stop offset="1" stop-color="#fff" stop-opacity="0.25"></stop></linearGradient><path fill="url(#xlsx_svg__c)" d="M12 3v1h21v10h10v14h1V13L34 3z"></path><linearGradient id="xlsx_svg__d" gradientUnits="userSpaceOnUse" x1="14" y1="39.188" x2="14" y2="14.758"><stop offset="0" stop-color="#fff" stop-opacity="0"></stop><stop offset="0.859" stop-color="#fff" stop-opacity="0.155"></stop><stop offset="1" stop-color="#fff" stop-opacity="0.18"></stop></linearGradient><path fill="url(#xlsx_svg__d)" d="M24 14L4 17v20l20 3z"></path><linearGradient id="xlsx_svg__e" gradientUnits="userSpaceOnUse" x1="17.754" y1="42.918" x2="18.177" y2="38.93"><stop offset="0" stop-color="#828282" stop-opacity="0"></stop><stop offset="0.17" stop-color="#7e7e7e" stop-opacity="0.034"></stop><stop offset="0.346" stop-color="#717171" stop-opacity="0.069"></stop><stop offset="0.525" stop-color="#5d5d5d" stop-opacity="0.105"></stop><stop offset="0.706" stop-color="#404040" stop-opacity="0.141"></stop><stop offset="0.886" stop-color="#1b1b1b" stop-opacity="0.178"></stop><stop offset="0.997" stop-opacity="0.2"></stop></linearGradient><path fill="url(#xlsx_svg__e)" d="M24 43H12v-4.8L24 40z"></path></svg>