<?xml version="1.0"?>
<svg xmlns="http://www.w3.org/2000/svg" xmlns:xlink="http://www.w3.org/1999/xlink" version="1.1"
  xml:space="preserve">
	<defs>
		<symbol id="email" width="100%" height="100%" viewBox="0 0 22 18">
			<path fill-rule="evenodd" clip-rule="evenodd" d="M1.37868 1.71193C0.5 2.59061 0.5 4.00482 0.5 6.83325V11.1666C0.5 13.995 0.5 15.4092 1.37868 16.2879C2.25736 17.1666 3.67157 17.1666 6.5 17.1666H15.5C18.3284 17.1666 19.7426 17.1666 20.6213 16.2879C21.5 15.4092 21.5 13.995 21.5 11.1666V6.83325C21.5 4.00483 21.5 2.59061 20.6213 1.71193C19.7426 0.833252 18.3284 0.833252 15.5 0.833252H6.5C3.67157 0.833252 2.25736 0.833252 1.37868 1.71193ZM4.5547 4.66787C4.09517 4.36152 3.4743 4.48569 3.16795 4.94522C2.8616 5.40475 2.98577 6.02562 3.4453 6.33197L9.8906 10.6288C10.5624 11.0767 11.4376 11.0767 12.1094 10.6288L18.5547 6.33197C19.0142 6.02562 19.1384 5.40475 18.8321 4.94522C18.5257 4.48569 17.9048 4.36152 17.4453 4.66787L11 8.96474L4.5547 4.66787Z" fill="currentColor" />
		</symbol>
		<symbol id="phone" width="100%" height="100%" viewBox="0 0 22 22">
			<path d="M0.599998 1.9001C0.599998 1.18213 1.18203 0.600098 1.9 0.600098H4.69873C5.33422 0.600098 5.87657 1.05953 5.98105 1.68638L6.94215 7.45301C7.03597 8.01596 6.75167 8.57426 6.24122 8.82949L4.22864 9.83578C5.67982 13.4419 8.55818 16.3203 12.1643 17.7715L13.1706 15.7589C13.4258 15.2484 13.9841 14.9641 14.5471 15.0579L20.3137 16.019C20.9406 16.1235 21.4 16.6659 21.4 17.3014V20.1001C21.4 20.8181 20.818 21.4001 20.1 21.4001H17.5C8.16639 21.4001 0.599998 13.8337 0.599998 4.5001V1.9001Z" fill="currentColor" />
		</symbol>
		<symbol id="menu" width="100%" height="100%" viewBox="0 0 20 18">
			<path fill-rule="evenodd" clip-rule="evenodd" d="M0.199951 2.0001C0.199951 1.2269 0.826752 0.600098 1.59995 0.600098H18.4C19.1732 0.600098 19.8 1.2269 19.8 2.0001C19.8 2.7733 19.1732 3.4001 18.4 3.4001H1.59995C0.826752 3.4001 0.199951 2.7733 0.199951 2.0001Z" fill="currentColor" />
			<path fill-rule="evenodd" clip-rule="evenodd" d="M0.199951 9.0001C0.199951 8.2269 0.826752 7.6001 1.59995 7.6001H18.4C19.1732 7.6001 19.8 8.2269 19.8 9.0001C19.8 9.7733 19.1732 10.4001 18.4 10.4001H1.59995C0.826752 10.4001 0.199951 9.7733 0.199951 9.0001Z" fill="currentColor" />
			<path fill-rule="evenodd" clip-rule="evenodd" d="M0.199951 16.0001C0.199951 15.2269 0.826752 14.6001 1.59995 14.6001H18.4C19.1732 14.6001 19.8 15.2269 19.8 16.0001C19.8 16.7733 19.1732 17.4001 18.4 17.4001H1.59995C0.826752 17.4001 0.199951 16.7733 0.199951 16.0001Z" fill="currentColor" />
		</symbol>
		<symbol id="arrow-right" width="100%" height="100%" viewBox="0 0 15 10">
			<path d="M13 5L13.7071 4.29289L14.4142 5L13.7071 5.70711L13 5ZM1 6C0.447715 6 0 5.55228 0 5C0 4.44772 0.447715 4 1 4V6ZM9.70711 0.292893L13.7071 4.29289L12.2929 5.70711L8.29289 1.70711L9.70711 0.292893ZM13.7071 5.70711L9.70711 9.70711L8.29289 8.29289L12.2929 4.29289L13.7071 5.70711ZM13 6H1V4H13V6Z" fill="currentColor" />
		</symbol>
		<symbol id="arrow-left" width="100%" height="100%" viewBox="0 0 15 10">
			<path d="M2 5L1.29289 4.29289L0.585786 5L1.29289 5.70711L2 5ZM14 6C14.5523 6 15 5.55228 15 5C15 4.44772 14.5523 4 14 4V6ZM5.29289 0.292893L1.29289 4.29289L2.70711 5.70711L6.70711 1.70711L5.29289 0.292893ZM1.29289 5.70711L5.29289 9.70711L6.70711 8.29289L2.70711 4.29289L1.29289 5.70711ZM2 6H14V4H2V6Z" fill="currentColor" />
		</symbol>
		<symbol id="gal-ochka" width="100%" height="100%" viewBox="0 0 12 10">
			<path d="M6.23497 8.79946C5.9649 9.16602 5.54433 9.3913 5.0896 9.41369C4.63487 9.43632 4.19445 9.25304 3.88975 8.91464L1.15929 5.88456C0.725328 5.40328 0.763876 4.6614 1.24515 4.22744C1.72689 3.79348 2.46831 3.83226 2.90227 4.31377L4.83407 6.45771C4.8627 6.48956 4.90425 6.50664 4.94695 6.50456C4.98988 6.50249 5.02912 6.48102 5.05475 6.44686L9.02546 1.0614C9.40979 0.539728 10.1443 0.428699 10.6662 0.813259C11.1876 1.19782 11.2984 1.93232 10.9139 2.45376L6.23497 8.79946Z" fill="currentColor" />
		</symbol>
		<symbol id="to-right" width="100%" height="100%" viewBox="0 0 8 14">
			<path d="M5.63663 7.00019L1.15148 2.51504C0.7935 2.15706 0.7935 1.57666 1.15148 1.21868C1.50946 0.8607 2.08986 0.8607 2.44784 1.21868L7.58118 6.35201C7.93916 6.70999 7.93916 7.29039 7.58118 7.64838L2.44784 12.7817C2.08986 13.1397 1.50946 13.1397 1.15148 12.7817C0.7935 12.4237 0.7935 11.8433 1.15148 11.4853L5.63663 7.00019Z" fill="currentColor" />
		</symbol>
		<symbol id="to-left" width="100%" height="100%" viewBox="0 0 8 14">
			<path d="M2.36337 7.00019L6.84852 2.51504C7.2065 2.15706 7.2065 1.57666 6.84852 1.21868C6.49054 0.8607 5.91014 0.8607 5.55216 1.21868L0.418823 6.35201C0.0608425 6.70999 0.0608425 7.29039 0.418823 7.64838L5.55216 12.7817C5.91014 13.1397 6.49054 13.1397 6.84852 12.7817C7.2065 12.4237 7.2065 11.8433 6.84852 11.4853L2.36337 7.00019Z" fill="currentColor" />
		</symbol>
		<symbol id="play" width="100%" height="100%" viewBox="0 0 32 38">
			<path d="M5.27275 38C4.93519 38 4.61146 37.8332 4.37278 37.5363C4.13409 37.2393 4 36.8366 4 36.4167V1.58307C4.00004 1.30794 4.05771 1.03756 4.16732 0.79859C4.27694 0.559623 4.43472 0.360315 4.62511 0.220312C4.81551 0.0803081 5.03194 0.00444103 5.25308 0.000189119C5.47422 -0.00406279 5.69243 0.0634472 5.88621 0.196064L31.3411 17.6129C31.5407 17.7495 31.7071 17.9503 31.823 18.1943C31.9389 18.4383 32 18.7165 32 18.9999C32 19.2833 31.9389 19.5615 31.823 19.8054C31.7071 20.0494 31.5407 20.2502 31.3411 20.3869L5.88621 37.8037C5.69829 37.9324 5.48727 37.9999 5.27275 38Z" fill="currentColor" />
		</symbol>
		<symbol id="cross" width="100%" height="100%" viewBox="0 0 16 16">
			<path d="M1 15L15 1M1 1L15 15" fill="none" stroke="currentColor" stroke-width="2" stroke-linecap="round" stroke-linejoin="round" />
		</symbol>
		<symbol id="cart" width="100%" height="100%" viewBox="0 0 24 24">
			<path fill-rule="evenodd" clip-rule="evenodd" d="M1.28869 2.76279C1.41968 2.36983 1.84442 2.15746 2.23737 2.28845L2.54176 2.38991C3.16813 2.59868 3.69746 2.7751 4.1137 2.96873C4.55613 3.17456 4.94002 3.42965 5.23112 3.83352C5.52222 4.2374 5.64282 4.68226 5.69817 5.16708C5.72644 5.41467 5.73936 5.69227 5.74526 5.99996H16.4508C18.5058 5.99996 19.5333 5.99996 19.9779 6.67422C20.4225 7.34849 20.0177 8.2929 19.2082 10.1817L18.7797 11.1817C18.4017 12.0636 18.2128 12.5045 17.8371 12.7522C17.4614 13 16.9817 13 16.0222 13H5.9034C6.00839 13.5398 6.17403 13.8558 6.40921 14.091C6.68598 14.3677 7.07455 14.5482 7.80832 14.6468C8.56367 14.7484 9.56479 14.75 11.0002 14.75H18.0002C18.4144 14.75 18.7502 15.0857 18.7502 15.5C18.7502 15.9142 18.4144 16.25 18.0002 16.25H10.9453C9.57774 16.25 8.47542 16.25 7.60845 16.1334C6.70834 16.0124 5.95047 15.7535 5.34855 15.1516C4.74664 14.5497 4.48774 13.7918 4.36673 12.8917C4.25017 12.0247 4.25018 10.9224 4.2502 9.55484L4.2502 6.883C4.2502 6.17 4.24907 5.69823 4.20785 5.33722C4.16883 4.99538 4.10068 4.83049 4.01426 4.71059C3.92784 4.59069 3.79296 4.47389 3.481 4.32877C3.15155 4.17551 2.70435 4.02524 2.02794 3.79978L1.76303 3.71147C1.37008 3.58049 1.15771 3.15575 1.28869 2.76279ZM8.0002 8.24996C7.58599 8.24996 7.2502 8.58575 7.2502 8.99996C7.2502 9.41417 7.58599 9.74996 8.0002 9.74996H11.0002C11.4144 9.74996 11.7502 9.41417 11.7502 8.99996C11.7502 8.58575 11.4144 8.24996 11.0002 8.24996H8.0002Z" fill="currentColor" />
			<path d="M7.5 18C8.32843 18 9 18.6716 9 19.5C9 20.3284 8.32843 21 7.5 21C6.67157 21 6 20.3284 6 19.5C6 18.6716 6.67157 18 7.5 18Z" fill="currentColor" />
			<path d="M16.5 18.0001C17.3284 18.0001 18 18.6716 18 19.5001C18 20.3285 17.3284 21.0001 16.5 21.0001C15.6716 21.0001 15 20.3285 15 19.5001C15 18.6716 15.6716 18.0001 16.5 18.0001Z" fill="currentColor" />
		</symbol>
		<symbol id="instagramm" width="100%" height="100%" viewBox="0 0 24 24">
			<path fill-rule="evenodd" clip-rule="evenodd" d="M11.9962 0.0078125C8.73824 0.0078125 8.32971 0.021622 7.05019 0.080003C5.77333 0.138241 4.90129 0.341051 4.13824 0.637622C3.34938 0.944146 2.68038 1.35434 2.01343 2.02124C1.34652 2.68819 0.936333 3.35719 0.629809 4.14605C0.333238 4.9091 0.130429 5.78115 0.0721905 7.058C0.0138095 8.33753 0 8.74605 0 12.0041C0 15.262 0.0138095 15.6705 0.0721905 16.9501C0.130429 18.2269 0.333238 19.099 0.629809 19.862C0.936333 20.6509 1.34652 21.3199 2.01343 21.9868C2.68038 22.6537 3.34938 23.0639 4.13824 23.3705C4.90129 23.667 5.77333 23.8698 7.05019 23.9281C8.32971 23.9864 8.73824 24.0002 11.9962 24.0002C15.2542 24.0002 15.6627 23.9864 16.9422 23.9281C18.2191 23.8698 19.0911 23.667 19.8542 23.3705C20.643 23.0639 21.312 22.6537 21.979 21.9868C22.6459 21.3199 23.0561 20.6509 23.3627 19.862C23.6592 19.099 23.862 18.2269 23.9202 16.9501C23.9786 15.6705 23.9924 15.262 23.9924 12.0041C23.9924 8.74605 23.9786 8.33753 23.9202 7.058C23.862 5.78115 23.6592 4.9091 23.3627 4.14605C23.0561 3.35719 22.6459 2.68819 21.979 2.02124C21.312 1.35434 20.643 0.944146 19.8542 0.637622C19.0911 0.341051 18.2191 0.138241 16.9422 0.080003C15.6627 0.021622 15.2542 0.0078125 11.9962 0.0078125ZM7.99748 12.0041C7.99748 14.2125 9.78776 16.0028 11.9962 16.0028C14.2047 16.0028 15.995 14.2125 15.995 12.0041C15.995 9.79557 14.2047 8.00529 11.9962 8.00529C9.78776 8.00529 7.99748 9.79557 7.99748 12.0041ZM5.836 12.0041C5.836 8.60181 8.594 5.84381 11.9962 5.84381C15.3984 5.84381 18.1564 8.60181 18.1564 12.0041C18.1564 15.4062 15.3984 18.1642 11.9962 18.1642C8.594 18.1642 5.836 15.4062 5.836 12.0041ZM18.3998 7.03996C19.1949 7.03996 19.8394 6.39548 19.8394 5.60043C19.8394 4.80538 19.1949 4.16086 18.3998 4.16086C17.6048 4.16086 16.9603 4.80538 16.9603 5.60043C16.9603 6.39548 17.6048 7.03996 18.3998 7.03996Z" fill="currentColor" />
		</symbol>
		<symbol id="vk" width="100%" height="100%" viewBox="0 0 32 32">
			<path d="M25.217 22.402h-2.179c-0.825 0-1.080-0.656-2.562-2.158-1.291-1.25-1.862-1.418-2.179-1.418-0.445 0-0.572 0.127-0.572 0.741v1.968c0 0.53-0.169 0.847-1.566 0.847-2.818-0.189-5.24-1.726-6.646-3.966l-0.021-0.035c-1.632-2.027-2.835-4.47-3.43-7.142l-0.022-0.117c0-0.317 0.127-0.614 0.741-0.614h2.179c0.55 0 0.762 0.254 0.975 0.846 1.078 3.112 2.878 5.842 3.619 5.842 0.275 0 0.402-0.127 0.402-0.825v-3.219c-0.085-1.482-0.868-1.608-0.868-2.137 0.009-0.283 0.241-0.509 0.525-0.509 0.009 0 0.017 0 0.026 0.001l-0.001-0h3.429c0.466 0 0.635 0.254 0.635 0.804v4.34c0 0.465 0.212 0.635 0.339 0.635 0.275 0 0.509-0.17 1.016-0.677 1.054-1.287 1.955-2.759 2.642-4.346l0.046-0.12c0.145-0.363 0.493-0.615 0.9-0.615 0.019 0 0.037 0.001 0.056 0.002l-0.003-0h2.179c0.656 0 0.805 0.337 0.656 0.804-0.874 1.925-1.856 3.579-2.994 5.111l0.052-0.074c-0.232 0.381-0.317 0.55 0 0.975 0.232 0.317 0.995 0.973 1.503 1.566 0.735 0.727 1.351 1.573 1.816 2.507l0.025 0.055c0.212 0.612-0.106 0.93-0.72 0.93zM20.604 1.004h-9.207c-8.403 0-10.392 1.989-10.392 10.392v9.207c0 8.403 1.989 10.392 10.392 10.392h9.207c8.403 0 10.392-1.989 10.392-10.392v-9.207c0-8.403-2.011-10.392-10.392-10.392z" fill="currentColor" />
		</symbol>
		<symbol id="facebook" width="100%" height="100%" viewBox="0 0 20 20">
			<path d="M17 1H3c-1.1 0-2 .9-2 2v14c0 1.101.9 2 2 2h7v-7H8V9.525h2v-2.05c0-2.164 1.212-3.684 3.766-3.684l1.803.002v2.605h-1.197c-.994 0-1.372.746-1.372 1.438v1.69h2.568L15 12h-2v7h4c1.1 0 2-.899 2-2V3c0-1.1-.9-2-2-2z" fill="currentColor" />
		</symbol>
		<symbol id="telegram" width="100%" height="100%" viewBox="0 0 176 176">
			<path d="m123.33 62.35-44.63 36.48-2.1 1.72a2.27 2.27 0 0 0 -.84 1.48l-.47 3.88-1.29 10.9a.5.5 0 0 1 -1 .09l-3.63-10.9-3.75-11.15a2.24 2.24 0 0 1 1.08-2.66l46.44-26.62 8.74-5c1.27-.74 2.57.86 1.45 1.78z" fill="currentColor">
			</path>
			<path d="m152 0h-128a24 24 0 0 0 -24 24v128a24 24 0 0 0 24 24h128a24 24 0 0 0 24-24v-128a24 24 0 0 0 -24-24zm-9.11 50.94-17.18 75.91c-.81 3.56-5.33 5.17-8.5 3l-25.94-17.6-13.21 12.49a4.54 4.54 0 0 1 -7.32-1.62l-4.77-14-4.77-14-25.57-7a3.32 3.32 0 0 1 -.29-6.41l98.78-35.59 1.82-.65c3.83-1.34 7.79 1.76 6.95 5.47z" fill="currentColor">
			</path>
		</symbol>
		<symbol id="whatsapp" width="100%" height="100%" viewBox="0 0 504.4 504.4">
			<path d="M254.8,119.4c-71.6,0-129.6,57.6-129.6,128.8c0,28,9.2,54.4,24.8,75.6l-16.4,48l50-16c20.4,13.6,45.2,21.2,71.6,21.2 c71.6,0,130-57.6,130-128.8C384.8,177,326.4,119.4,254.8,119.4z M330.8,301.4c-3.2,8.8-18.8,17.2-25.6,18s-6.8,5.6-45.6-9.2 c-38.4-15.2-62.8-54-64.8-56.8c-2-2.4-15.6-20.4-15.6-38.8c0-18.4,9.6-27.6,13.2-31.2c3.6-3.6,7.6-4.8,10-4.8 c2.4,0,5.2,0.4,7.2,0.4c2.4,0,5.2-1.2,8.4,6.4c3.2,7.6,10.8,26,11.6,28s1.6,4,0.4,6.4c-1.2,2.4-2,4-3.6,6.4c-2,2-4,4.8-5.6,6.4 c-2,2-4,4-1.6,7.6c2.4,3.6,10,16,21.2,26c14.4,12.8,26.8,16.8,30.4,18.8c3.6,2,6,1.6,8-0.8c2.4-2.4,9.6-10.8,12-14.8 c2.4-3.6,5.2-3.2,8.4-2c3.6,1.2,22,10.4,26,12.4c3.6,2,6.4,2.8,7.2,4.4C333.6,285,333.6,292.6,330.8,301.4z" fill="currentColor">
			</path>
			<path d="M377.6,0.2H126.4C56.8,0.2,0,57,0,126.6v251.6c0,69.2,56.8,126,126.4,126H378c69.6,0,126.4-56.8,126.4-126.4V126.6 C504,57,447.2,0.2,377.6,0.2z M254.8,401.4c-27.2,0-52.4-6.8-74.8-19.2l-85.6,27.2l28-82c-14-23.2-22-50.4-22-79.2 c0-84.8,69.2-153.2,154.4-153.2s154.4,68.4,154.4,153.2S340,401.4,254.8,401.4z" fill="currentColor">
			</path>
		</symbol>
		<symbol id="star" width="100%" height="100%" viewBox="0 0 24 24">
			<path d="M9.15316 5.40838C10.4198 3.13613 11.0531 2 12 2C12.9469 2 13.5802 3.13612 14.8468 5.40837L15.1745 5.99623C15.5345 6.64193 15.7144 6.96479 15.9951 7.17781C16.2757 7.39083 16.6251 7.4699 17.3241 7.62805L17.9605 7.77203C20.4201 8.32856 21.65 8.60682 21.9426 9.54773C22.2352 10.4886 21.3968 11.4691 19.7199 13.4299L19.2861 13.9372C18.8096 14.4944 18.5713 14.773 18.4641 15.1177C18.357 15.4624 18.393 15.8341 18.465 16.5776L18.5306 17.2544C18.7841 19.8706 18.9109 21.1787 18.1449 21.7602C17.3788 22.3417 16.2273 21.8115 13.9243 20.7512L13.3285 20.4768C12.6741 20.1755 12.3469 20.0248 12 20.0248C11.6531 20.0248 11.3259 20.1755 10.6715 20.4768L10.0757 20.7512C7.77268 21.8115 6.62118 22.3417 5.85515 21.7602C5.08912 21.1787 5.21588 19.8706 5.4694 17.2544L5.53498 16.5776C5.60703 15.8341 5.64305 15.4624 5.53586 15.1177C5.42868 14.773 5.19043 14.4944 4.71392 13.9372L4.2801 13.4299C2.60325 11.4691 1.76482 10.4886 2.05742 9.54773C2.35002 8.60682 3.57986 8.32856 6.03954 7.77203L6.67589 7.62805C7.37485 7.4699 7.72433 7.39083 8.00494 7.17781C8.28555 6.96479 8.46553 6.64194 8.82547 5.99623L9.15316 5.40838Z" fill="currentColor" />
		</symbol>
		<symbol id="marijuana" width="100%" height="100%" viewBox="-34 0 512 512">
			<path d="m443.953125 186.324219c.867187-3.414063-.128906-7.035157-2.621094-9.523438-2.492187-2.492187-6.113281-3.488281-9.527343-2.625-3.105469.789063-74.484376 19.355469-133.347657 74.945313 2.433594-14.59375 3.671875-29.007813 3.671875-43.121094 0-56.109375-19.582031-108.046875-36.011718-141.730469-17.738282-36.375-35.320313-59.402343-36.058594-60.363281-1.890625-2.464844-4.824219-3.90625-7.929688-3.90625-3.105468 0-6.035156 1.441406-7.925781 3.90625-1.074219 1.394531-26.46875 34.699219-46.941406 84.601562-2.097657 5.105469.347656 10.949219 5.457031 13.046876 5.109375 2.09375 10.949219-.347657 13.046875-5.457032 12.621094-30.761718 27.460937-55.222656 36.359375-68.648437 17.921875 27.085937 60.003906 99.152343 60.003906 178.550781 0 61.382812-25.558594 124.277344-60.003906 173.265625-34.742188-49.339844-59.996094-112.351563-59.996094-173.265625 0-11.488281.890625-23.398438 2.648438-35.40625.800781-5.464844-2.980469-10.542969-8.445313-11.34375-5.457031-.800781-10.542969 2.980469-11.339843 8.445312-1.898438 12.964844-2.863282 25.851563-2.863282 38.304688 0 14.113281 1.242188 28.527344 3.675782 43.121094-58.867188-55.589844-130.246094-74.15625-133.347657-74.945313-3.417969-.867187-7.035156.132813-9.527343 2.625-2.492188 2.488281-3.488282 6.109375-2.625 9.523438.8125 3.203125 20.566406 79.128906 80.40625 138.964843 11.003906 11.007813 23.21875 21.289063 36.515624 30.785157-55.296874 1.640625-98.789062 30.359375-100.664062 31.617187-2.769531 1.859375-4.433594 4.972656-4.433594 8.308594s1.664063 6.449219 4.433594 8.308594c1.933594 1.292968 47.960938 31.691406 105.566406 31.691406 38.207032 0 71.46875-13.476562 90-22.863281v88.863281c0 5.523438 4.476563 10 10 10 5.523438 0 10-4.476562 10-10v-88.863281c18.535156 9.386719 51.796875 22.863281 90 22.863281 57.609375 0 103.636719-30.398438 105.570313-31.691406 2.769531-1.859375 4.429687-4.972656 4.429687-8.308594s-1.660156-6.449219-4.429687-8.308594c-1.878907-1.257812-45.371094-29.976562-100.664063-31.617187 13.296875-9.496094 25.511719-19.777344 36.515625-30.785157 59.839844-59.835937 79.589844-135.761718 80.402344-138.964843zm-418.433594 13.050781c25.300781 9.214844 72.679688 30.265625 111.757813 69.347656 6.214844 6.210938 12.246094 12.941406 17.980468 20.007813 11.496094 37.09375 28.1875 67.695312 40.921876 87.765625-9.363282-3.773438-20.4375-8.734375-32.335938-15.070313-26.574219-14.152343-49.785156-31.070312-68.992188-50.277343-38.988281-38.988282-60.085937-86.445313-69.332031-111.773438zm17.089844 196.609375c16.847656-8.351563 46.28125-19.984375 79.519531-19.984375 10.867188 0 22.160156 1.269531 33.585938 3.746094 15.796875 8.328125 30.109375 14.363281 41.1875 18.507812-17.363282 8.046875-44.558594 17.746094-74.773438 17.746094-33.125 0-62.628906-11.660156-79.519531-20.015625zm279.519531 20.015625c-30.210937 0-57.40625-9.699219-74.769531-17.746094 11.078125-4.144531 25.390625-10.179687 41.1875-18.507812 11.425781-2.476563 22.71875-3.746094 33.582031-3.746094 33.125 0 62.632813 11.660156 79.519532 20.015625-16.84375 8.351563-46.277344 19.984375-79.519532 19.984375zm-41.707031-54.578125c-11.902344 6.339844-22.976563 11.300781-32.339844 15.074219 12.734375-20.070313 29.425781-50.671875 40.921875-87.765625 5.734375-7.066407 11.765625-13.800781 17.976563-20.011719 38.988281-38.988281 86.449219-60.085938 111.773437-69.328125-9.210937 25.296875-30.261718 72.675781-69.34375 111.757813-19.207031 19.207031-42.417968 36.121093-68.988281 50.273437zm0 0" fill="currentColor" />
			<path d="m173.128906 130c0 5.523438-4.476562 10-10 10-5.519531 0-10-4.476562-10-10s4.480469-10 10-10c5.523438 0 10 4.476562 10 10zm0 0" fill="currentColor" />
		</symbol>
		<symbol id="customer-care" width="100%" height="100%" viewBox="0 0 512 512">
			<path d="m310.263 366.023-63.028 18.49c-.049-.087-.099-.173-.148-.26-3.874-6.71-10.107-11.504-17.55-13.498l-45.552-12.206c-33.539-23.382-52.499-17.01-79.56-3.775-11.923 5.829-23.802 11.491-35.114 16.842l-1.683-4.041c-3.722-8.938-14.029-13.19-22.971-9.478l-24.787 10.295c-4.357 1.809-7.741 5.191-9.528 9.523-1.788 4.332-1.773 9.116.041 13.471l41.976 100.795c2.809 6.744 9.363 10.82 16.254 10.82 2.242 0 4.521-.432 6.717-1.344l24.788-10.293c4.357-1.81 7.74-5.192 9.528-9.523 1.787-4.332 1.772-9.116-.042-13.471l-2.088-5.013 14.463-7.033c5.436-2.644 10.9-3.108 16.706-1.423l51.561 14.971c3.999 1.161 8.112 1.656 12.271 1.656 14.059 0 28.619-5.666 40.866-10.433 1.062-.413 99.889-38.501 99.889-38.501 16.601-6.397 26.836-26.642 21.474-42.473-2.175-6.418-12.527-26.405-54.483-14.098zm-213.559 110.478c-.36.873-1.055 1.56-1.956 1.934l-24.788 10.293c-1.821.754-3.921-.11-4.678-1.93l-41.976-100.795c-.375-.9-.383-1.876-.023-2.749.36-.872 1.054-1.559 1.955-1.933l24.788-10.294c.447-.186.911-.273 1.368-.273 1.404 0 2.739.83 3.311 2.204l41.975 100.795c.375.9.383 1.876.024 2.748zm241.534-66.971s-98.856 38.1-99.933 38.519c-13.899 5.409-31.197 12.144-44.155 8.378l-51.561-14.971c-9.159-2.658-18.153-1.893-26.731 2.278l-13.732 6.677-27.426-65.856c11.533-5.454 23.675-11.238 35.875-17.205 24.633-12.045 37.744-16.936 66.35 3.35.678.48 1.435.837 2.237 1.052l46.751 12.527c3.831 1.026 7.045 3.503 9.049 6.975 2.004 3.471 2.542 7.492 1.516 11.323-2.133 7.957-10.339 12.698-18.299 10.564l-62.13-16.647c-3.734-.997-7.572 1.216-8.573 4.95-1 3.734 1.216 7.572 4.95 8.573l62.13 16.647c15.411 4.131 31.314-5.05 35.445-20.465.726-2.708 1.051-5.464.983-8.196l63.221-18.547c20.239-5.939 34.176-4.011 37.281 5.156 2.672 7.89-2.917 20.938-13.248 24.918zm163.38-288.916-41.976-100.795c-3.723-8.939-14.029-13.189-22.971-9.477l-24.788 10.294c-4.357 1.809-7.741 5.19-9.528 9.522-1.788 4.332-1.773 9.116.041 13.471l2.088 5.013-14.463 7.032c-5.437 2.644-10.902 3.108-16.707 1.424l-51.561-14.971c-17.516-5.086-37.267 2.601-53.137 8.777-1.061.413-99.888 38.5-99.888 38.5-16.601 6.397-26.836 26.642-21.474 42.473 2.174 6.419 12.528 26.407 54.482 14.098l63.028-18.49c.049.087.099.174.148.26 3.874 6.709 10.107 11.503 17.551 13.498l45.551 12.205c16.181 11.281 28.969 15.638 40.91 15.638 12.809 0 24.644-5.012 38.65-11.86 11.957-5.847 23.826-11.503 35.115-16.843l1.683 4.041c2.809 6.745 9.364 10.821 16.255 10.821 2.242 0 4.521-.432 6.716-1.343l24.788-10.293c4.357-1.809 7.741-5.19 9.528-9.522 1.787-4.333 1.773-9.117-.041-13.473zm-100.193 24.035c-24.633 12.045-37.743 16.936-66.35-3.35-.678-.48-1.435-.836-2.237-1.052l-46.75-12.527c-3.832-1.026-7.045-3.503-9.049-6.974s-2.542-7.493-1.515-11.324c2.132-7.958 10.339-12.698 18.298-10.564l62.13 16.648c3.736 1 7.572-1.216 8.573-4.95s-1.215-7.572-4.95-8.573l-62.13-16.648c-15.417-4.13-31.315 5.05-35.444 20.464-.726 2.709-1.051 5.464-.983 8.197l-63.221 18.547c-20.24 5.936-34.176 4.009-37.281-5.156-2.672-7.889 2.916-20.937 13.248-24.918 0 0 98.856-38.099 99.932-38.518 13.899-5.409 31.197-12.139 44.156-8.379l51.561 14.971c9.157 2.659 18.152 1.894 26.731-2.277l13.733-6.677 27.426 65.856c-11.512 5.443-23.642 11.222-35.878 17.204zm87.292-15.903c-.36.872-1.054 1.559-1.956 1.933l-24.788 10.293c-1.821.757-3.919-.109-4.678-1.93l-41.975-100.794c-.375-.9-.383-1.876-.023-2.749.36-.872 1.054-1.559 1.955-1.933l24.789-10.294c.447-.186.911-.273 1.368-.273 1.403 0 2.738.83 3.311 2.203l41.976 100.794c.373.901.381 1.878.021 2.75zm-264.849 195.479c8.879 8.021 18.06 16.313 27.251 25.253 1.358 1.321 3.12 1.982 4.88 1.982s3.522-.661 4.88-1.982c9.191-8.939 18.373-17.232 27.252-25.253 33.799-30.53 62.989-56.897 62.989-93.831 0-27.489-22.906-49.853-51.061-49.853-21.647 0-34.147 9.66-44.061 25.03-9.913-15.37-22.414-25.03-44.061-25.03-28.155 0-51.061 22.364-51.061 49.853.003 36.933 29.193 63.3 62.992 93.831zm-11.929-129.684c17.395 0 26.942 7.151 37.835 28.34 1.2 2.333 3.603 3.8 6.226 3.8s5.026-1.467 6.226-3.8c10.893-21.189 20.44-28.34 37.835-28.34 20.436 0 37.061 16.083 37.061 35.853 0 30.714-25.76 53.982-58.374 83.442-7.414 6.696-15.035 13.58-22.748 20.914-7.713-7.334-15.334-14.218-22.748-20.914-32.613-29.459-58.374-52.729-58.374-83.442.001-19.77 16.626-35.853 37.061-35.853z" fill="currentColor">
			</path>
			<symbol id="delivery" width="100%" height="100%" viewBox="0 0 512 512" fill="currentColor">
				<path d="M386.689,304.403c-35.587,0-64.538,28.951-64.538,64.538s28.951,64.538,64.538,64.538 c35.593,0,64.538-28.951,64.538-64.538S422.276,304.403,386.689,304.403z M386.689,401.21c-17.796,0-32.269-14.473-32.269-32.269 c0-17.796,14.473-32.269,32.269-32.269c17.796,0,32.269,14.473,32.269,32.269C418.958,386.738,404.485,401.21,386.689,401.21z">
				</path>
				<path d="M166.185,304.403c-35.587,0-64.538,28.951-64.538,64.538s28.951,64.538,64.538,64.538s64.538-28.951,64.538-64.538 S201.772,304.403,166.185,304.403z M166.185,401.21c-17.796,0-32.269-14.473-32.269-32.269c0-17.796,14.473-32.269,32.269-32.269 c17.791,0,32.269,14.473,32.269,32.269C198.454,386.738,183.981,401.21,166.185,401.21z">
				</path>
				<path d="M430.15,119.675c-2.743-5.448-8.32-8.885-14.419-8.885h-84.975v32.269h75.025l43.934,87.384l28.838-14.5L430.15,119.675z">
				</path>
				<rect x="216.202" y="353.345" width="122.084" height="32.269">
				</rect>
				<path d="M117.781,353.345H61.849c-8.912,0-16.134,7.223-16.134,16.134c0,8.912,7.223,16.134,16.134,16.134h55.933 c8.912,0,16.134-7.223,16.134-16.134C133.916,360.567,126.693,353.345,117.781,353.345z">
				</path>
				<path d="M508.612,254.709l-31.736-40.874c-3.049-3.937-7.755-6.239-12.741-6.239H346.891V94.655 c0-8.912-7.223-16.134-16.134-16.134H61.849c-8.912,0-16.134,7.223-16.134,16.134s7.223,16.134,16.134,16.134h252.773v112.941 c0,8.912,7.223,16.134,16.134,16.134h125.478l23.497,30.268v83.211h-44.639c-8.912,0-16.134,7.223-16.134,16.134 c0,8.912,7.223,16.134,16.134,16.134h60.773c8.912,0,16.134-7.223,16.135-16.134V264.605 C512,261.023,510.806,257.538,508.612,254.709z">
				</path>
				<path d="M116.706,271.597H42.487c-8.912,0-16.134,7.223-16.134,16.134c0,8.912,7.223,16.134,16.134,16.134h74.218 c8.912,0,16.134-7.223,16.134-16.134C132.84,278.82,125.617,271.597,116.706,271.597z">
				</path>
				<path d="M153.815,208.134H16.134C7.223,208.134,0,215.357,0,224.269s7.223,16.134,16.134,16.134h137.681 c8.912,0,16.134-7.223,16.134-16.134S162.727,208.134,153.815,208.134z">
				</path>
				<path d="M180.168,144.672H42.487c-8.912,0-16.134,7.223-16.134,16.134c0,8.912,7.223,16.134,16.134,16.134h137.681 c8.912,0,16.134-7.223,16.134-16.134C196.303,151.895,189.08,144.672,180.168,144.672z">
				</path>
			</symbol>
			<symbol id="bong" width="100%" height="100%" viewBox="-62 0 480 480" fill="currentColor">
			<path d="m66.664062 300.425781-6.664062-4.425781-6.65625-4.441406c-8.566406 13.835937-14.113281 29.324218-16.28125 45.449218-3.023438 24.136719 1.90625 58.585938 42.496094 85.648438l8.882812-13.3125c-64.34375-42.894531-23.546875-106.238281-21.777344-108.917969zm0 0"></path><path d="m164 296h16v16h-16zm0 0"></path><path d="m196 320h16v16h-16zm0 0"></path><path d="m0 348c.0351562 48.398438 26.53125 92.902344 69.0625 116h-33.0625c-4.417969 0-8 3.582031-8 8s3.582031 8 8 8h192c4.417969 0 8-3.582031 8-8s-3.582031-8-8-8h-33.0625c42.53125-23.097656 69.027344-67.601562 69.0625-116 .03125-17.367188-3.402344-34.566406-10.097656-50.59375l99.753906-99.75c3.121094-3.125 3.121094-8.1875 0-11.3125l-48-48c-3.125-3.121094-8.1875-3.121094-11.3125 0l-95.75 95.753906c-3.511719-2.074218-7.058594-3.953125-10.59375-5.601562v-44.777344c13.796875-1.964844 24.050781-13.78125 24.050781-27.71875s-10.253906-25.753906-24.050781-27.71875v-8.5625c13.796875-1.964844 24.050781-13.78125 24.050781-27.71875s-10.253906-25.753906-24.050781-27.71875v-17.648438c11.027344-3.890624 17.644531-15.164062 15.667969-26.691406-1.976563-11.523437-11.972657-19.9492185-23.667969-19.941406h-96c-11.695312-.0078125-21.691406 8.417969-23.667969 19.941406-1.976562 11.527344 4.640625 22.800782 15.667969 26.691406v17.648438c-13.796875 1.964844-24.050781 13.78125-24.050781 27.71875s10.253906 25.753906 24.050781 27.71875v8.5625c-13.796875 1.964844-24.050781 13.78125-24.050781 27.71875s10.253906 25.753906 24.050781 27.71875v44.730469c-46.425781 21.675781-76.0742188 68.3125-76 119.550781zm84-180h-4c-6.628906 0-12-5.371094-12-12s5.371094-12 12-12h4c4.417969 0 8-3.582031 8-8v-24c0-4.417969-3.582031-8-8-8h-4c-6.628906 0-12-5.371094-12-12s5.371094-12 12-12h4c4.417969 0 8-3.582031 8-8v-24h56c4.417969 0 8-3.582031 8-8s-3.582031-8-8-8h-64c-4.417969 0-8-3.582031-8-8s3.582031-8 8-8h96c4.417969 0 8 3.582031 8 8s-3.582031 8-8 8-8 3.582031-8 8v32c0 4.417969 3.582031 8 8 8h4c6.628906 0 12 5.371094 12 12s-5.371094 12-12 12h-4c-4.417969 0-8 3.582031-8 8v24c0 4.417969 3.582031 8 8 8h4c6.628906 0 12 5.371094 12 12s-5.371094 12-12 12h-4c-4.417969 0-8 3.582031-8 8v57.648438c0 3.222656 1.933594 6.128906 4.902344 7.375 6.445312 2.738281 12.628906 6.054687 18.472656 9.914062 3.171875 2.074219 7.363281 1.640625 10.042969-1.042969l94.582031-94.582031 36.6875 36.6875-97.976562 97.96875c-2.378907 2.375-3.019532 5.988281-1.597657 9.039062 7.191407 15.328126 10.910157 32.058594 10.886719 48.992188-.011719 58.140625-43.058594 107.292969-100.6875 114.964844-57.632812 7.675781-112.042969-28.5-127.265625-84.609375-15.222656-56.113281 13.441406-114.824219 67.050781-137.332031 2.96875-1.246094 4.902344-4.152344 4.902344-7.375v-57.648438c0-4.417969-3.582031-8-8-8zm0 0"></path>
			</symbol>
			<symbol id="shovel" width="100%" height="100%" viewBox="0 0 512 512" fill="currentColor">
        <path d="m418.271 410.291c-9.368 0-18.321 2.529-26.061 7.148-7.905-10.186-19.043-17.569-31.653-20.853 10.565-18.144 16.327-38.973 16.327-60.354v-88.232c0-8.284-6.716-15-15-15h-60.884v-218c0-8.284-6.716-15-15-15h-60c-8.284 0-15 6.716-15 15v218h-60.884c-8.284 0-15 6.716-15 15v88.232c0 21.406 5.756 42.221 16.325 60.355-12.609 3.284-23.747 10.666-31.651 20.852-7.739-4.619-16.692-7.148-26.061-7.148-28.041 0-50.854 22.813-50.854 50.854s22.813 50.855 50.854 50.855h324.541c28.041 0 50.854-22.813 50.854-50.854s-22.812-50.855-50.853-50.855zm-147.271-380.291v157h-30v-157zm-30 187h30v53.963c0 8.271-6.729 15-15 15s-15-6.729-15-15zm-75.884 46h45.884v7.963c0 24.813 20.187 45 45 45s45-20.187 45-45v-7.963h45.884v73.232c0 24.806-9.77 47.712-27.553 64.732-.7.354-1.396.718-2.082 1.101-12.822-20.78-35.693-34.065-61.249-34.065s-48.427 13.285-61.249 34.065c-.676-.377-1.362-.736-2.052-1.086-17.807-17.02-27.582-39.903-27.582-64.747v-73.232zm253.155 219h-324.542c-11.499 0-20.854-9.355-20.854-20.854s9.355-20.854 20.854-20.854c7.18 0 13.771 3.628 17.629 9.706 3.188 5.021 9.039 7.692 14.924 6.788 5.881-.896 10.677-5.184 12.224-10.928 3.357-12.469 14.737-21.178 27.674-21.178 3.642 0 7.17.686 10.449 1.967 1.101.702 2.269 1.242 3.475 1.627 3.313 1.844 6.271 4.358 8.69 7.458 3.539 4.535 9.365 6.647 14.985 5.435 5.624-1.212 10.06-5.534 11.417-11.126 4.578-18.865 21.358-32.041 40.804-32.041s36.226 13.176 40.804 32.041c1.357 5.592 5.793 9.914 11.417 11.126 5.628 1.212 11.446-.899 14.985-5.435 5.481-7.024 13.724-11.053 22.614-11.053 12.937 0 24.316 8.709 27.674 21.178 1.547 5.744 6.343 10.031 12.224 10.928 5.876.901 11.736-1.767 14.924-6.788 3.858-6.078 10.449-9.706 17.629-9.706 11.499 0 20.854 9.355 20.854 20.854s-9.355 20.855-20.854 20.855z"></path>
			</symbol>
			<symbol id="blueberry" width="100%" height="100%" viewBox="0 0 512 512" fill="currentColor">
       <path d="m442.951 232.058c-10.416-12.13-24.235-20.779-39.503-24.884-1.305-9.543-4.334-18.815-8.963-27.262-2.674-4.88-8.796-6.665-13.671-3.992-4.879 2.672-6.665 8.794-3.992 13.671 4.368 7.972 6.827 16.935 7.174 26.053.003.145.01.289.019.432.018.599.028 1.199.028 1.799 0 29.349-21.57 53.752-49.7 58.228-4.806-34.984-32.561-62.735-67.552-67.541 4.087-25.71 24.81-46.182 51.393-49.268 5.526-.641 9.485-5.64 8.843-11.165-.641-5.526-5.651-9.484-11.165-8.843-19.883 2.308-37.322 11.867-49.82 25.845v-49.995c8.854 5.273 19.36 7.189 29.937 7.189 10.979 0 22.033-2.057 31.381-4.544 33.76-8.982 79.651-43.935 91.525-79.732 1.262-3.805.148-7.994-2.836-10.67-28.083-25.181-85.279-32.721-119.048-23.739-19.358 5.145-33.252 13.558-41.613 25.126-8.741-11.608-22.539-20.389-40.33-25.125-33.763-8.982-90.965-1.442-119.051 23.738-2.985 2.676-4.098 6.865-2.836 10.669 11.877 35.809 57.768 70.761 91.524 79.733 9.349 2.487 20.4 4.544 31.381 4.544 10.531 0 20.994-1.902 29.824-7.123v50.008c-14.501-16.216-35.568-26.446-58.986-26.446-40.001 0-73.143 29.836-78.386 68.413-15.27 4.114-29.086 12.766-39.495 24.892-12.286 14.314-19.053 32.599-19.053 51.487 0 36.323 24.62 66.987 58.047 76.238 2.613 37.716 31.75 68.224 68.845 72.96 0 .044-.002.089-.002.133.001 43.623 35.498 79.113 79.13 79.113s79.129-35.49 79.129-79.113c0-.044-.002-.089-.002-.133 37.095-4.736 66.233-35.244 68.845-72.96 33.426-9.252 58.047-39.915 58.047-76.238 0-18.89-6.773-37.179-19.068-51.498zm-176.851-172.117c.032-12.694 4.163-28.352 36.077-36.834 7.46-1.985 16.451-2.966 26.057-2.966 23.928 0 51.66 6.097 68.922 17.973-12.733 26.458-48.936 53.276-74.973 60.203-21.445 5.705-38.908 5.02-47.913-1.882-3.928-3.009-6.415-7.342-7.534-13.099l49.915-12.513c5.396-1.352 8.672-6.822 7.32-12.217-1.352-5.397-6.826-8.671-12.217-7.32l-45.648 11.443-.007-1.645c0-.049-.003-.097-.004-.147zm-70.695 10.882 49.912 12.512c-1.121 5.769-3.607 10.094-7.529 13.1-9.006 6.901-26.471 7.588-47.916 1.881-26.036-6.92-62.238-33.735-74.971-60.202 24.192-16.646 68.939-21.935 94.977-15.008 22.814 6.074 35.951 19.874 36.075 37.887l-.006 1.734-45.644-11.442c-5.392-1.35-10.865 1.924-12.217 7.32-1.354 5.395 1.923 10.865 7.319 12.218zm60.567 157.124c32.525 0 58.986 26.454 58.986 58.969 0 32.531-26.461 58.998-58.986 58.998s-58.986-26.467-58.986-58.998c0-32.515 26.46-58.969 58.986-58.969zm-69.058-69.04c29.355 0 53.763 21.55 58.243 49.655-34.992 4.805-62.75 32.556-67.557 67.541-28.115-4.478-49.673-28.88-49.673-58.228.001-32.515 26.462-58.968 58.987-58.968zm-116.79 124.649c0-25.156 15.593-46.871 38.367-55.274 4.705 35.619 33.187 63.826 68.939 68.118.638 5.319 1.805 10.476 3.448 15.419-10.267 18.774-30.17 30.705-51.769 30.705-32.524.001-58.985-26.452-58.985-58.968zm116.734 129.716c-29.642-.042-54.219-22.069-58.296-50.618.184.001.364.014.548.014 24.508 0 47.382-11.459 62.19-30.233 12.33 17.472 31.538 29.744 53.659 32.839-5.041 27.253-28.433 47.515-57.026 47.976-.362-.013-.72-.003-1.075.022zm69.142 78.585c-32.525 0-58.986-26.454-58.986-58.97 0-.04.002-.08.002-.12 17.101-2.147 32.94-9.724 45.373-21.906 5.442-5.332 10.014-11.334 13.654-17.821 3.652 6.485 8.238 12.49 13.699 17.829 12.443 12.166 28.234 19.737 45.242 21.892 0 .042.002.084.002.125 0 32.517-26.461 58.971-58.986 58.971zm69.145-78.585c-.344-.025-.691-.033-1.041-.022-28.101-.459-51.843-21.089-56.981-47.994 22.077-3.129 41.239-15.401 53.543-32.854 14.815 18.793 37.703 30.265 62.224 30.265.184 0 .364-.013.548-.014-4.077 28.549-28.652 50.576-58.293 50.619zm57.745-70.747c-21.617 0-41.538-11.951-51.808-30.755 1.635-4.928 2.795-10.068 3.431-15.369 35.77-4.291 64.266-32.504 68.968-68.13 22.791 8.385 38.395 30.106 38.395 55.285 0 32.516-26.461 58.969-58.986 58.969z"></path><path d="m360.039 146.917c-4.991-2.454-10.999-.383-13.451 4.61-2.453 4.992-.367 11.042 4.625 13.495 1.428.702 2.943 1.035 4.434 1.035 3.719 0 7.295-2.069 9.046-5.631 2.453-4.992.395-11.027-4.596-13.481z"></path>
			</symbol>
			<symbol id="mango" width="100%" height="100%" viewBox="0 0 511.999 511.999" fill="currentColor">
      <path d="M505.185,224.94c-6.067-8.613-15.545-14.294-26.003-15.584c-8.445-1.041-16.972,0.855-24.146,5.249 c-37.137-31.828-85.387-45.295-132.179-38.713c-0.115-12.06-1.208-24.066-3.237-35.897c24.179,13.526,51.453,20.671,79.279,20.671 c3.942,0,7.901-0.144,11.856-0.433l40.751-2.976c3.642-0.267,6.848-2.496,8.365-5.816c1.518-3.321,1.104-7.205-1.08-10.132 l-16.796-22.517c9.685-2.925,19.161-6.766,28.284-11.549l36.186-18.976c3.233-1.695,5.284-5.019,5.352-8.67 c0.067-3.65-1.86-7.047-5.03-8.859l-33.283-19.048c-24.261-13.886-51.858-21.306-79.811-21.46 c-27.93-0.112-55.629,6.963-80.04,20.58l-0.542,0.302c2.458-12.249-2.511-25.285-13.417-32.59 c-7.37-4.936-16.539-6.561-25.156-4.452c-8.617,2.107-16.002,7.78-20.262,15.561l-9.954,18.185l-2.558-1.11 c-0.532-0.23-1.083-0.415-1.646-0.55c-28.182-6.762-57.782-6.086-85.594,1.953c-27.459,7.937-52.576,22.849-72.636,43.127 c-3.883,3.926-3.849,10.255,0.076,14.139c3.926,3.881,10.254,3.849,14.139-0.076c35.865-36.254,88.868-51.501,138.518-39.898 l46.137,20.014c14.826,29.244,22.411,61.737,22.101,94.556c-12.436,3.334-24.636,8.138-36.35,14.455l-2.427,1.31 c-42.915,23.142-74.923,61.402-90.128,107.73l-0.688,2.094c-13.725,41.818-44.564,76.281-84.608,94.55l-0.839,0.383 c-8.889,4.056-15.394,11.207-18.547,19.887c-1.63,0.25-3.246,0.484-4.833,0.698l-26.932,3.638 c-6.273,0.843-11.95-1.88-15.213-7.289c-3.265-5.409-3.024-11.711,0.643-16.856l0.535-0.751 c28.773-40.375,39.447-91.362,29.283-139.89l-0.451-2.156c-6.712-32.046-4.042-65.134,7.722-95.687 c1.983-5.152-0.585-10.937-5.737-12.921c-5.149-1.982-10.937,0.585-12.921,5.737c-13.15,34.155-16.135,71.144-8.632,106.97 l0.451,2.156c9.023,43.08-0.452,88.343-25.996,124.187l-0.535,0.751c-8.312,11.664-8.879,26.527-1.479,38.79 c6.534,10.83,17.759,17.107,30.07,17.107c1.63,0,3.278-0.11,4.938-0.334l26.931-3.638c0.31-0.042,0.63-0.092,0.942-0.135 c2.518,11.052,10.125,20.148,21.02,24.618l25.142,10.318c37.149,15.242,77.503,23.144,117.707,23.144 c5.83,0,11.663-0.167,17.476-0.501c45.901-2.639,91.442-15.774,131.696-37.988c33.879-18.694,62.509-45.991,82.798-78.939 c19.478-31.635,30.838-67.789,32.991-104.844l1.051-0.839C513.382,263.4,516.565,241.092,505.185,224.94z M292.155,50.737 l-8.311,14.222l-21.101-9.153l9.072-16.574c1.596-2.913,4.249-4.952,7.475-5.74c3.225-0.788,6.519-0.207,9.279,1.643 C293.69,38.564,295.265,45.417,292.155,50.737z M409.302,140.293c-34.551,2.527-68.797-7.61-96.423-28.537 c-1.053-3.416-2.187-6.807-3.402-10.172c26.005,16.053,55.668,24.166,85.402,24.166c8.632,0,17.268-0.699,25.822-2.067 l11.161,14.965L409.302,140.293z M323.394,68.271c43.368-24.191,97.08-23.896,140.182,0.771l17.453,9.989l-20.034,10.506 c-44.786,23.486-99.203,21.356-142.015-5.567l-11.154-7.014L323.394,68.271z M371.441,442.84 c-77.135,42.564-168.122,47.798-249.631,14.353l-25.142-10.318c-5.845-2.397-9.407-7.601-9.53-13.918 c-0.122-6.316,3.237-11.654,8.985-14.277l0.838-0.383c45.106-20.579,79.844-59.398,95.304-106.505l0.688-2.094 c13.602-41.441,42.234-75.664,80.626-96.367l2.429-1.312c22.125-11.931,46.211-17.754,70.117-17.754 c36.633,0,72.839,13.673,100.905,39.995l29.949,40.4C473.152,344.687,432.957,408.895,371.441,442.84z M488.62,256.796 l-19.816-26.731c2.501-0.887,5.189-1.206,7.931-0.866c4.94,0.609,9.239,3.186,12.105,7.255 C493.237,242.696,492.95,250.902,488.62,256.796z"></path><path d="M72.203,117.765c-4.698-2.892-10.876-1.39-13.773,3.304c-0.005,0.007-0.061,0.098-0.064,0.104 c-2.887,4.7-1.394,10.809,3.304,13.701c1.622,0.999,3.422,1.475,5.201,1.475c3.373,0,6.675-1.706,8.571-4.778 c0.005-0.007,0.061-0.098,0.064-0.104C78.394,126.767,76.901,120.657,72.203,117.765z"></path><path d="M442.313,305.94c-5.269-1.653-10.879,1.278-12.531,6.545c-12.66,40.345-40.967,75.096-77.661,95.343 c-18.389,10.147-37.928,17.95-58.076,23.19c-5.343,1.39-8.548,6.848-7.158,12.191c1.171,4.5,5.226,7.482,9.668,7.482 c0.833,0,1.68-0.104,2.523-0.324c21.758-5.659,42.854-14.082,62.701-25.034c41.155-22.709,72.893-61.659,87.078-106.864 C450.511,313.202,447.581,307.592,442.313,305.94z"></path><path d="M265.959,446.315c-0.817-5.313-5.668-9.002-10.969-8.417c-5.361,0.563-9.332,5.298-8.916,10.708 c0.403,5.244,4.784,9.23,9.957,9.23c0.257,0,0.517-0.01,0.777-0.029c0.253-0.02,0.541-0.053,0.791-0.091 C263.056,456.876,266.799,451.773,265.959,446.315z"></path>
			</symbol>
			<symbol id="sweet" width="100%" height="100%" viewBox="0 0 511.98 511.98" fill="currentColor">
      <path d="M499.46,113.294l-51.482-51.465l-49.28-49.306c-10.712-10.731-26.314-14.97-40.984-11.136 c-14.67,3.834-26.203,15.165-30.295,29.764l-10.607,37.709c-19.659-6.608-40.248-10.036-60.988-10.155h-0.213 c-0.256,0-0.512,0-0.768,0C203.112,58.57,153.449,79.01,116.8,115.521l-0.12,0.102c-0.179,0.179-0.375,0.324-0.555,0.503 c-36.701,36.506-57.364,86.117-57.429,137.882v0.145c0,0.23,0,0.461,0,0.691c0.042,21.077,3.501,42.007,10.24,61.978 l-37.786,10.607c-14.596,4.094-25.924,15.625-29.757,30.292s0.403,30.266,11.129,40.979l100.762,100.762 c7.952,8.008,18.769,12.514,30.054,12.518c3.348-0.002,6.684-0.394,9.941-1.169c14.416-3.341,26.044-13.961,30.677-28.015 l13.466-40.414c18.405,5.75,37.567,8.71,56.849,8.781h0.529h0.077h0.094h0.154c51.855,0.114,101.613-20.465,138.24-57.173 l0.085-0.077c0.094-0.094,0.196-0.171,0.29-0.256c36.708-36.493,57.371-86.103,57.421-137.865v-0.154c0-0.256,0-0.512,0-0.768 c-0.002-19.479-2.96-38.846-8.772-57.438l40.405-13.474c14.034-4.676,24.644-16.288,28.039-30.685 C514.229,138.876,509.925,123.748,499.46,113.294z M250.782,75.926c11.162,15.676,54.613,84.932,9.267,157.261 c-17.92-81.118-86.844-107.878-119.595-116.113C171.477,91.204,210.395,76.688,250.782,75.926z M125.419,131.214 c19.465,3.072,99.439,20.83,117.999,105.924c-30.387-17.647-97.681-45.423-166.886,0.341 C80.362,197.554,97.592,160.1,125.419,131.214z M164.988,409.81c-4.044-2.069-9-0.608-11.274,3.324s-1.069,8.957,2.741,11.43 c8.047,4.595,16.414,8.604,25.037,11.998l-13.73,40.832c-2.802,8.429-9.773,14.802-18.418,16.841 c-8.645,2.038-17.729-0.55-24.001-6.84l-15.283-15.266l24.166-24.149c2.218-2.143,3.108-5.315,2.327-8.299 s-3.111-5.313-6.094-6.094c-2.984-0.781-6.156,0.109-8.299,2.327l-24.141,24.141l-18.099-18.048l18.099-18.108 c3.234-3.348,3.188-8.671-0.104-11.962c-3.292-3.292-8.614-3.338-11.962-0.104l-18.099,18.065L49.754,411.79l24.132-24.132 c3.234-3.348,3.188-8.671-0.104-11.962c-3.292-3.292-8.614-3.338-11.962-0.104l-24.132,24.132l-13.099-13.09 c-6.435-6.428-8.976-15.787-6.675-24.587c2.3-8.799,9.097-15.718,17.854-18.174l39.305-11.093 c4.202,9.921,9.214,19.48,14.985,28.578c1.626,2.626,4.544,4.169,7.63,4.033c3.086-0.136,5.858-1.928,7.247-4.687 s1.179-6.053-0.549-8.613c-6.618-10.282-12.177-21.21-16.589-32.614c-7.46-19.348-11.469-39.854-11.844-60.587 c64.802-50.415,128.418-25.122,157.414-8.277c-36.693,9.941-110.191,41.54-119.654,136.132c-0.226,2.259,0.457,4.514,1.899,6.268 c1.441,1.754,3.522,2.861,5.781,3.076c0.29,0,0.572,0,0.853,0c4.379-0.004,8.044-3.323,8.482-7.68 c8.482-84.796,73.028-112.597,106.001-121.327c-17.664,30.771-44.518,97.485,0.794,166.033 C211.959,430.605,187.228,422.659,164.988,409.81z M258.948,433.9c-50.432-64.811-25.131-128.427-8.277-157.414 c9.267,34.261,37.47,100.446,118.033,116.881C337.758,418.905,299.065,433.194,258.948,433.9z M384.346,378.621 c-80.58-10.001-107.964-71.586-116.873-104.32c23.038,14.933,49.883,22.931,77.338,23.04c31.277-0.659,61.817-9.62,88.491-25.967 C429.678,311.656,412.407,349.494,384.346,378.621z M494.204,149.364c-2.009,8.648-8.38,15.624-16.811,18.406l-40.747,13.577 c-3.374-8.623-7.366-16.99-11.947-25.037c-1.436-2.807-4.304-4.593-7.457-4.645c-3.153-0.052-6.077,1.64-7.605,4.398 c-1.528,2.759-1.409,6.135,0.308,8.78c15.133,26.138,23.397,55.684,24.021,85.879c-15.625,11.093-84.932,54.613-157.303,9.284 C383.518,236.404,396.07,124.165,396.19,122.962c0.471-4.689-2.948-8.873-7.637-9.344c-4.689-0.471-8.873,2.948-9.344,7.637 c-0.111,1.067-11.17,100.267-105.267,121.882c44.715-70.059,14.839-137.762-2.483-166.707 c16.485,1.481,32.678,5.279,48.102,11.281c11.406,4.406,22.334,9.961,32.614,16.58c3.951,2.446,9.133,1.281,11.657-2.621 c2.524-3.902,1.461-9.106-2.39-11.707c-9.128-5.76-18.715-10.757-28.664-14.942l11.042-39.253 c2.453-8.764,9.375-15.567,18.18-17.868c8.805-2.301,18.17,0.246,24.597,6.689l13.09,13.09L375.59,61.821 c-2.218,2.143-3.108,5.315-2.327,8.299c0.781,2.984,3.111,5.314,6.094,6.094c2.984,0.781,6.156-0.109,8.299-2.327l24.132-24.141 l18.108,18.108l-18.108,18.099c-2.218,2.143-3.108,5.315-2.327,8.299c0.781,2.983,3.111,5.313,6.094,6.094 c2.983,0.781,6.156-0.109,8.299-2.327l18.15-18.099l18.099,18.108l-24.132,24.132c-2.423,2.085-3.478,5.349-2.733,8.457 c0.745,3.108,3.164,5.54,6.269,6.3c3.105,0.76,6.374-0.278,8.47-2.691l24.149-24.166l15.266,15.266 C493.709,131.598,496.291,140.712,494.204,149.364z"></path>
			</symbol>
      <!--  -->
      <!--  -->
      <!--  -->
		</symbol>
	</defs>
</svg>