<svg height="24" width="24" viewBox="0 0 24 24" fill="currentColor" aria-hidden="true" class="Icon___StyledSvg-sc-h17bjp-0 sc-csKIKE nSGpO sc-iuOPfm hBKzqR" data-testid="pencil"><path d="M20.15,3.81a3.78,3.78,0,0,0-5.24-.1l-.12.1L13.54,5.06,4,14.58a.75.75,0,0,0-.22.53v4.31a.76.76,0,0,0,.75.75H8.85a.75.75,0,0,0,.53-.22l9.47-9.47.06-.05.05-.06,1.19-1.19A3.79,3.79,0,0,0,20.15,3.81ZM8.54,18.66H5.29V15.42l8.77-8.77,3.24,3.24ZM19.09,8.11l-.72.72L15.13,5.59l.72-.72a2.29,2.29,0,0,1,3.24,3.24Z" fill="currentColor"></path></svg>