<svg viewBox="0 0 24 24" fill="none" xmlns="http://www.w3.org/2000/svg">
<path d="M20.8 16.051C20.8014 16.1509 20.7809 16.2499 20.74 16.341C20.7021 16.4303 20.6479 16.5117 20.58 16.581L17.66 19.501C17.5905 19.5707 17.5078 19.626 17.4169 19.6638C17.326 19.7015 17.2285 19.721 17.13 19.721C16.9319 19.7171 16.7426 19.6385 16.6 19.501C16.4605 19.3598 16.3823 19.1694 16.3823 18.971C16.3823 18.7726 16.4605 18.5821 16.6 18.441L18.24 16.801H8.74C8.54108 16.801 8.35032 16.722 8.20967 16.5813C8.06901 16.4407 7.99 16.2499 7.99 16.051C7.99 15.8521 8.06901 15.6613 8.20967 15.5207C8.35032 15.38 8.54108 15.301 8.74 15.301H18.24L16.6 13.671C16.4605 13.5298 16.3823 13.3394 16.3823 13.141C16.3823 12.9426 16.4605 12.7521 16.6 12.611C16.6687 12.5399 16.7511 12.4833 16.8421 12.4447C16.9332 12.406 17.0311 12.3861 17.13 12.3861C17.2289 12.3861 17.3268 12.406 17.4179 12.4447C17.5089 12.4833 17.5913 12.5399 17.66 12.611L20.58 15.521C20.6479 15.5903 20.7021 15.6717 20.74 15.761C20.78 15.8524 20.8004 15.9512 20.8 16.051ZM15.263 7.29999H5.863L7.5 5.67099C7.63948 5.52985 7.7177 5.33942 7.7177 5.14099C7.7177 4.94256 7.63948 4.75212 7.5 4.61099C7.43126 4.53986 7.34892 4.48329 7.25786 4.44465C7.16681 4.40602 7.06891 4.38611 6.97 4.38611C6.87108 4.38611 6.77318 4.40602 6.68213 4.44465C6.59107 4.48329 6.50873 4.53986 6.44 4.61099L3.52 7.52099C3.45213 7.59028 3.39786 7.67169 3.36 7.76099C3.32003 7.85242 3.2996 7.9512 3.3 8.05099C3.29858 8.15087 3.31906 8.24986 3.36 8.34099C3.39786 8.43028 3.45213 8.51169 3.52 8.58099L6.44 11.501C6.50954 11.5707 6.59215 11.626 6.68309 11.6638C6.77403 11.7015 6.87153 11.721 6.97 11.721C7.16808 11.7171 7.35737 11.6385 7.5 11.501C7.63948 11.3598 7.7177 11.1694 7.7177 10.971C7.7177 10.7726 7.63948 10.5821 7.5 10.441L5.863 8.79999H15.263C15.4619 8.79999 15.6527 8.72097 15.7933 8.58032C15.934 8.43966 16.013 8.2489 16.013 8.04999C16.013 7.85107 15.934 7.66031 15.7933 7.51966C15.6527 7.379 15.4619 7.29999 15.263 7.29999Z" fill="#3C3C3C"/>
</svg>
