<svg xmlns="http://www.w3.org/2000/svg" width="18.75" height="20.518" viewBox="0 0 18.75 20.518" fill="currentColor">
  <path id="building-pin" d="M9,15a5.87,5.87,0,0,0,.6,2H8.38V15ZM4.38,16.99h2v-2h-2Zm2-6.15h-2v2h2Zm2-2.13h2v-2h-2Zm0,4.13H9a5.677,5.677,0,0,1,.88-2H8.38ZM2.13,8.46H5.38a.77.77,0,0,0,.75-.75V5.18L9.4,2.39l3.23,2.53V7.71h1.5V4.56A.731.731,0,0,0,13.84,4L9.84.86a.74.74,0,0,0-.95,0l-4,3.42a.731.731,0,0,0-.26.57V7H1.38a.74.74,0,0,0-.75.73V19.92a.759.759,0,0,0,.75.75h8v-1.5H2.13Zm12.479,7.951a2.175,2.175,0,1,1,2.167-2.183v.008a2.176,2.176,0,0,1-2.167,2.175Zm0-3.085a.916.916,0,1,0,.349.07.911.911,0,0,0-.349-.07Zm0-3.827a4.737,4.737,0,0,0-4.728,4.737.081.081,0,0,1,0,.068,5.358,5.358,0,0,0,1.357,3.641,26.859,26.859,0,0,0,2.874,3.128.56.56,0,0,0,.152.126h.1a.15.15,0,0,0,.084,0h.262a.16.16,0,0,0,.092,0h.085l.059-.042h.059a27.58,27.58,0,0,0,2.975-3.212,5.481,5.481,0,0,0,1.4-3.683A4.738,4.738,0,0,0,14.669,9.5Zm3.482,4.813a4.215,4.215,0,0,1-1.138,2.858,26.274,26.274,0,0,1-2.344,2.613,24.3,24.3,0,0,1-2.343-2.613,4.215,4.215,0,0,1-1.121-2.934,3.473,3.473,0,1,1,6.946,0A.242.242,0,0,0,18.091,14.312Z" transform="translate(-0.63 -0.688)"/>
</svg>
