<svg xmlns="http://www.w3.org/2000/svg" width="21.538" height="21.537" viewBox="0 0 21.538 21.537" fill="currentColor">
  <g id="outline_-_strokes" data-name="outline - strokes" transform="translate(-1.221 -1.232)">
    <path id="Контур_42" data-name="Контур 42" d="M18.24,8.28a8.73,8.73,0,0,0-4.62,1.5l-.13-.09a3.77,3.77,0,0,1,.93-2.2,4.65,4.65,0,0,1,1-.72,2.76,2.76,0,0,0,1.73-2.43c0-.73-.32-3.09-4.35-3.09A4.15,4.15,0,0,0,8.28,5.76a8.8,8.8,0,0,0,1.51,4.63l-.09.13a3.86,3.86,0,0,1-2.21-.94,5,5,0,0,1-.73-1A2.75,2.75,0,0,0,4.33,6.85c-.73,0-3.09.31-3.09,4.34a4.15,4.15,0,0,0,4.51,4.53,8.86,8.86,0,0,0,4.63-1.51l.14.09a3.86,3.86,0,0,1-.94,2.2,4.68,4.68,0,0,1-1,.73,2.75,2.75,0,0,0-1.73,2.43c0,.73.31,3.09,4.34,3.09a4.15,4.15,0,0,0,4.53-4.51,8.8,8.8,0,0,0-1.5-4.62l.09-.14a3.79,3.79,0,0,1,2.19.94,4.65,4.65,0,0,1,.72,1,2.76,2.76,0,0,0,2.44,1.73c.72,0,3.08-.32,3.08-4.35a4.14,4.14,0,0,0-4.5-4.52ZM5.75,14.22a2.7,2.7,0,0,1-3-3c0-1.29.28-2.84,1.59-2.84.5,0,.69.24,1.15,1a5.92,5.92,0,0,0,1,1.32A5.26,5.26,0,0,0,9.26,12h0a2.6,2.6,0,0,0,.2,1,7.18,7.18,0,0,1-3.71,1.22Zm4-8.46a2.7,2.7,0,0,1,3-3c1.3,0,2.85.27,2.85,1.59,0,.5-.25.69-1,1.14a5.92,5.92,0,0,0-1.32,1A5.14,5.14,0,0,0,12,9.25h0a2.74,2.74,0,0,0-1,.2A7.14,7.14,0,0,1,9.78,5.76ZM13.25,12a1,1,0,0,1-.07.39.31.31,0,0,1,0,.12,1.22,1.22,0,0,1-1.12.73,1.25,1.25,0,1,1,0-2.49,1.2,1.2,0,0,1,1,.47h0a1.28,1.28,0,0,1,.19.78Zm-2.06,9.25c-1.29,0-2.84-.28-2.84-1.59,0-.5.24-.69,1-1.14a6.31,6.31,0,0,0,1.32-1A5.24,5.24,0,0,0,12,14.74h0a2.6,2.6,0,0,0,1-.2,7.21,7.21,0,0,1,1.2,3.7,2.7,2.7,0,0,1-3.01,3.01Zm8.47-5.6c-.51,0-.7-.25-1.15-1a5.7,5.7,0,0,0-1-1.32A5.19,5.19,0,0,0,14.75,12h0a2.56,2.56,0,0,0-.21-1,7.24,7.24,0,0,1,3.7-1.19,2.69,2.69,0,0,1,3,3C21.24,14.1,21,15.65,19.66,15.65Z"/>
  </g>
</svg>
