<svg xmlns="http://www.w3.org/2000/svg" width="21.5" height="17.506" viewBox="0 0 21.5 17.506" fill="currentColor">
  <path id="model" d="M14.38,5.682a.288.288,0,0,0-.08.071.761.761,0,0,1,.19-.12.589.589,0,0,0-.11.049Zm8.02,0a.328.328,0,0,0-.08-.039.86.86,0,0,1,.16.1.755.755,0,0,0-.08-.061Zm-8.02,7.641a.256.256,0,0,0-.08.07.733.733,0,0,1,.19-.12.487.487,0,0,0-.11.05Zm8.02,0a.25.25,0,0,0-.08-.04.814.814,0,0,1,.16.1.49.49,0,0,0-.08-.06Zm.35-2.56V6.312a.645.645,0,0,0-.03-.2c0-.01-.01-.019-.01-.029a.886.886,0,0,0-.08-.17.45.45,0,0,0-.13-.15c0-.01-.01-.01-.02-.021a.86.86,0,0,0-.16-.1.713.713,0,0,0-.11-.05L18.7,4.033,18.6,4a.616.616,0,0,0-.2-.03h-.01a.616.616,0,0,0-.2.03c-.03.01-.07.02-.1.03l-3.51,1.56-.09.04a.761.761,0,0,0-.19.12.511.511,0,0,0-.12.14.563.563,0,0,0-.09.169.241.241,0,0,0-.02.081.466.466,0,0,0-.03.169v4.451a.759.759,0,0,0,.45.69l2.05.909-1.96.87-.09.041a.733.733,0,0,0-.19.12,1.063,1.063,0,0,0-.14.159,1.313,1.313,0,0,0-.08.171c0,.009-.01.019-.01.03a.693.693,0,0,0-.03.2V18.4a.758.758,0,0,0,.45.69l3.6,1.6.09.03a.8.8,0,0,0,.21.03.876.876,0,0,0,.22-.03l.09-.03,3.6-1.6a.758.758,0,0,0,.45-.69V13.95a.693.693,0,0,0-.03-.2c0-.011-.01-.021-.01-.03a1.313,1.313,0,0,0-.08-.171,1.9,1.9,0,0,0-.13-.149c0-.01-.01-.01-.02-.02a.814.814,0,0,0-.16-.1,1,1,0,0,0-.11-.051l-1.96-.87,2.05-.909a.759.759,0,0,0,.45-.687ZM18.4,5.542l1.74.77-1.74.781-1.75-.781Zm-2.86,4.741V7.473l2.1.93v2.81Zm2.1,8.569-2.1-.93v-2.81l2.1.93Zm.76-4.12-1.75-.779,1.75-.771,1.74.771Zm2.85.38v2.81l-2.11.93v-2.81Zm0-4.829-2.11.93V8.4l2.11-.93Zm-8.65-.14a.75.75,0,1,0-.61-1.37L9.54,9.862,3.85,7.343,9.54,4.812,11.99,5.9a.658.658,0,0,0,.3.07.765.765,0,0,0,.69-.45.747.747,0,0,0-.38-.99L9.94,3.362c-.03-.019-.08-.039-.12-.06a.509.509,0,0,0-.12-.039.82.82,0,0,0-.32,0c-.04.01-.08.029-.12.039-.01,0-.01.01-.02.01l-.1.05L1.69,6.653a.205.205,0,0,0-.08.05c-.01,0-.02.01-.03.02a.653.653,0,0,0-.13.11,1.422,1.422,0,0,0-.11.149.9.9,0,0,0-.07.171,1.225,1.225,0,0,0-.02.19v9.32a.735.735,0,0,0,.44.68l7.43,3.279a.784.784,0,0,0,.19.091c.03.01.05.01.08.019a.774.774,0,0,0,.15.021.676.676,0,0,0,.2-.03l.09-.03.06-.03.06-.03,2.63-1.091a.762.762,0,0,0,.41-.98.753.753,0,0,0-.98-.4l-1.72.709V11.163ZM8.79,18.852l-6.04-2.68V8.492l6.04,2.671Z" transform="translate(-1.25 -3.247)"/>
</svg>
