<svg height="24" width="24" viewBox="0 0 24 24" data-testid="documentTwo"><g id="outline_-_strokes" data-name="outline - strokes"><path d="M20,7.41,15.51,2.92V2.75H9.35a3.1,3.1,0,0,0-3.1,3,3.1,3.1,0,0,0-3,3.09v10A3.1,3.1,0,0,0,6.32,21.9h7.73a3.1,3.1,0,0,0,3.1-3,3.1,3.1,0,0,0,3-3.09V7.41Zm-5.95,13H6.32a1.59,1.59,0,0,1-1.59-1.59V8.86A1.59,1.59,0,0,1,6.25,7.28v8.51a3.1,3.1,0,0,0,3.1,3.09h6.29A1.58,1.58,0,0,1,14.05,20.4Zm4.62-4.61a1.59,1.59,0,0,1-1.59,1.59H9.35a1.6,1.6,0,0,1-1.6-1.59V5.84a1.6,1.6,0,0,1,1.6-1.59h5.38V8.19h3.94Z"></path></g></svg>