<svg xmlns="http://www.w3.org/2000/svg" width="19.4" height="17.5" viewBox="0 0 19.4 17.5" fill="currentColor">
  <path id="correspondence" d="M19,3.25H5.05A2.75,2.75,0,0,0,2.3,6V18a2.75,2.75,0,0,0,2.75,2.75H19A2.75,2.75,0,0,0,21.7,18V6A2.75,2.75,0,0,0,19,3.25ZM3.8,6A1.25,1.25,0,0,1,5.05,4.75H19A1.25,1.25,0,0,1,20.2,6V7L12,11.71,3.8,7ZM20.2,18A1.25,1.25,0,0,1,19,19.25H5.05A1.25,1.25,0,0,1,3.8,18V8.72l7.82,4.51a.861.861,0,0,0,.38.1.79.79,0,0,0,.37-.1L20.2,8.72Z" transform="translate(-2.3 -3.25)"/>
</svg>
