<svg xmlns="http://www.w3.org/2000/svg" viewBox="0 0 24 24"><g id="outline_-_strokes" data-name="outline - strokes"><path d="M20.4,10.14a2.82,2.82,0,0,0-4,0l-.84.84h0L9.07,17.49a.75.75,0,0,0-.22.53V21a.72.72,0,0,0,.06.29.75.75,0,0,0,.69.46h2.94a.75.75,0,0,0,.53-.22L19.52,15l0,0,.05-.06.79-.79a.58.58,0,0,0,.1-.12A2.8,2.8,0,0,0,20.4,10.14ZM12.22,20.2H10.34V18.33l5.74-5.75L18,14.46Zm7.12-7.12L19,13.4l-1.88-1.88.32-.32a1.33,1.33,0,1,1,1.87,1.88ZM17,3.25H14.68a2.79,2.79,0,0,0-5.37,0H7A3.75,3.75,0,0,0,3.26,7V17.91A3.75,3.75,0,0,0,7,21.66a.75.75,0,1,0,0-1.5,2.25,2.25,0,0,1-2.25-2.25V7A2.25,2.25,0,0,1,7,4.75h.23V7A.75.75,0,0,0,8,7.79h8A.74.74,0,0,0,16.74,7V4.75H17A2.25,2.25,0,0,1,19.24,7a.75.75,0,0,0,1.5,0A3.75,3.75,0,0,0,17,3.25Zm-1.75,3H8.74V4.75H10A.76.76,0,0,0,10.71,4a1.29,1.29,0,1,1,2.57,0,.76.76,0,0,0,.75.75h1.21ZM17,21.66a.75.75,0,0,1,0-1.5,2.25,2.25,0,0,0,2.25-2.25.75.75,0,0,1,1.5,0A3.75,3.75,0,0,1,17,21.66Z"/></g></svg>