<svg viewBox="0 0 24 24" fill="currentColor"><g id="docs" data-name="docs"><path d="M18,20.45H15.52V19H18a2.1,2.1,0,0,0,2.1-2.1V9.48A2.1,2.1,0,0,0,18,7.37H13.17a.75.75,0,0,1-.53-.22l-2.12-2.1H6a2.1,2.1,0,0,0-2.1,2.1v2.6H2.39V7.15A3.6,3.6,0,0,1,6,3.55h4.84a.71.71,0,0,1,.53.22l2.12,2.1H18a3.61,3.61,0,0,1,3.6,3.61v7.37A3.6,3.6,0,0,1,18,20.45Zm-7.59-4.61V12.57L7.85,10,5.28,12.57H2V21H13.69V15.84Zm0,3.28v-1.4h1.4v1.4Zm-3.27,0v-1.4h1.4v1.4Zm0-3.28v-1.4h1.4v1.4ZM3.87,19.12v-1.4H5.28v1.4Zm0-3.28v-1.4H5.28v1.4Z"/></g></svg>