<svg height="24" width="24" viewBox="0 0 24 24" fill="currentColor" aria-hidden="true" class="Icon___StyledSvg-sc-h17bjp-0 sc-csKIKE nSGpO sc-iuOPfm hBKzqR" data-testid="arrowAlignDown"><path d="M12,3.25a.75.75,0,0,1,.75.75v9.51L15,11.24a.74.74,0,0,1,1.06,0,.75.75,0,0,1,.22.53.79.79,0,0,1-.22.53l-3.56,3.55a.78.78,0,0,1-.24.16.73.73,0,0,1-.58,0,.78.78,0,0,1-.24-.16L7.92,12.3a.75.75,0,0,1,0-1.06.74.74,0,0,1,1.06,0l2.27,2.27V4A.76.76,0,0,1,12,3.25Zm8,16H4a.75.75,0,0,0,0,1.5H20a.75.75,0,0,0,0-1.5Z" fill="currentColor"></path></svg>