<svg id="Layer_x0020_1" xmlns="http://www.w3.org/2000/svg" width="21.5" height="17.694" viewBox="0 0 21.5 17.694" fill="currentColor">
  <path id="Контур_27" data-name="Контур 27" d="M11.269.346,21.5,6.722l-1.087.692v4.6H18.88V8.4l-3.41,2.125a5.007,5.007,0,0,1,.989.692,3.158,3.158,0,0,1,1.186,2.323,3.7,3.7,0,0,1-2.274,3.114,9.934,9.934,0,0,1-4.646,1.038,9.869,9.869,0,0,1-4.6-1.038,3.7,3.7,0,0,1-2.274-3.114,3.113,3.113,0,0,1,1.087-2.274,4.228,4.228,0,0,1,1.087-.741L0,6.722,10.725,0l.544.346Zm2.175,11.417-2.718,1.68-2.669-1.68a5.417,5.417,0,0,0-1.779.939,1.281,1.281,0,0,0-.445.84c0,.494.445.989,1.186,1.384a8.212,8.212,0,0,0,3.707.84,7.9,7.9,0,0,0,3.707-.84c.741-.4,1.236-.89,1.236-1.384a1.367,1.367,0,0,0-.494-.89A5.119,5.119,0,0,0,13.444,11.763Zm1.236-6.969L10.725,2.323l-7.018,4.4,7.018,4.448,7.068-4.448L14.679,4.794Z"/>
</svg>
