<svg height="24" width="24" viewBox="0 0 24 24" fill="currentColor" aria-hidden="true" class="Icon___StyledSvg-sc-h17bjp-0 sc-csCMJt jZRoMX styles__FolderIcon-kgAXcA hubwUr" data-testid="folder"><path d="M18,20.45H6a3.6,3.6,0,0,1-3.6-3.6V7.15A3.6,3.6,0,0,1,6,3.55h4.84a.71.71,0,0,1,.53.22l2.12,2.1H18a3.61,3.61,0,0,1,3.6,3.61v7.37A3.6,3.6,0,0,1,18,20.45ZM3.89,9.48v7.37A2.1,2.1,0,0,0,6,19H18a2.1,2.1,0,0,0,2.1-2.1V9.48A2.1,2.1,0,0,0,18,7.37H13.17a.75.75,0,0,1-.53-.22l-2.12-2.1H6a2.1,2.1,0,0,0-2.1,2.1Z" fill="currentColor"></path></svg>