<svg height="16" width="16" viewBox="0 0 16 16" fill="currentColor" aria-hidden="true"  data-testid="knob"><path d="M14.75 3.53a.76.76 0 0 1-.75.75H7.18a1.78 1.78 0 0 1-3.25 0H2a.75.75 0 0 1 0-1.5h1.93a1.78 1.78 0 0 1 3.25 0H14a.75.75 0 0 1 .75.75ZM14 12.1H7.18a1.79 1.79 0 0 0-3.25 0H2a.75.75 0 0 0 0 1.5h1.93a1.78 1.78 0 0 0 3.25 0H14a.75.75 0 0 0 0-1.5Zm0-4.64h-1.91a1.8 1.8 0 0 0-1.64-1.06 1.78 1.78 0 0 0-1.63 1.06H2A.75.75 0 0 0 2 9h6.84a1.77 1.77 0 0 0 1.61 1 1.8 1.8 0 0 0 1.62-1H14a.75.75 0 0 0 0-1.5Z"></path></svg>