<svg height="24" width="24" viewBox="0 0 24 24" fill="currentColor" aria-hidden="true" class="Icon___StyledSvg-sc-h17bjp-0" data-testid="grid"><path d="M8,10.75H5A2.75,2.75,0,0,1,2.27,8V5A2.76,2.76,0,0,1,5,2.27H8A2.76,2.76,0,0,1,10.75,5V8A2.75,2.75,0,0,1,8,10.75Zm-3-7A1.25,1.25,0,0,0,3.77,5V8A1.25,1.25,0,0,0,5,9.25H8A1.25,1.25,0,0,0,9.25,8V5A1.25,1.25,0,0,0,8,3.77Zm14,7H16A2.75,2.75,0,0,1,13.25,8V5A2.75,2.75,0,0,1,16,2.27h3A2.76,2.76,0,0,1,21.73,5V8A2.75,2.75,0,0,1,19,10.75Zm-3-7A1.25,1.25,0,0,0,14.75,5V8A1.25,1.25,0,0,0,16,9.25h3A1.25,1.25,0,0,0,20.23,8V5A1.25,1.25,0,0,0,19,3.77Zm-8,18H5A2.76,2.76,0,0,1,2.27,19V16A2.75,2.75,0,0,1,5,13.25H8A2.75,2.75,0,0,1,10.75,16v3A2.76,2.76,0,0,1,8,21.73Zm-3-7A1.25,1.25,0,0,0,3.77,16v3A1.26,1.26,0,0,0,5,20.23H8A1.26,1.26,0,0,0,9.25,19V16A1.25,1.25,0,0,0,8,14.75Zm14,7H16A2.75,2.75,0,0,1,13.25,19V16A2.75,2.75,0,0,1,16,13.25h3A2.75,2.75,0,0,1,21.73,16v3A2.76,2.76,0,0,1,19,21.73Zm-3-7A1.25,1.25,0,0,0,14.75,16v3A1.26,1.26,0,0,0,16,20.23h3A1.26,1.26,0,0,0,20.23,19V16A1.25,1.25,0,0,0,19,14.75Z" fill="currentColor"></path></svg>