<svg xmlns="http://www.w3.org/2000/svg" fill="currentColor" viewBox="1.27636 3.23128 21.46 17.52">
  <path d="M22.72,11.81a.17.17,0,0,0,0-.1C22.4,10.6,20.44,8.49,18.05,7l2.47-2.47a.75.75,0,1,0-1.06-1.06l-16,16a.75.75,0,0,0,0,1.06.74.74,0,0,0,.53.22.71.71,0,0,0,.53-.22L7.3,17.76a10.76,10.76,0,0,0,4.55,1.16h.3c5.31-.08,10.28-5.05,10.58-6.76a1,1,0,0,0,0-.16A.68.68,0,0,0,22.72,11.81Zm-8.5-1A2.46,2.46,0,0,1,14.51,12,2.51,2.51,0,0,1,12,14.51a2.43,2.43,0,0,1-1.16-.29ZM12,17.43a8.8,8.8,0,0,1-3.57-.8l1.32-1.32A3.92,3.92,0,0,0,12,16a4,4,0,0,0,4-4,3.92,3.92,0,0,0-.7-2.25L17,8.09A12.48,12.48,0,0,1,21.23,12C20.78,13.1,16.53,17.43,12,17.43ZM8.79,12.25H8.67a.75.75,0,0,1-.62-.86,4,4,0,0,1,3.29-3.33.75.75,0,0,1,.25,1.48,2.49,2.49,0,0,0-2.06,2.08A.76.76,0,0,1,8.79,12.25Zm5.77-6.07a.74.74,0,0,1-.73.59h-.16A8,8,0,0,0,12,6.58c-4.53,0-8.78,4.33-9.23,5.42a10.09,10.09,0,0,0,2.45,2.65.75.75,0,1,1-.94,1.17c-1-.81-2.83-2.55-3-3.65a1.11,1.11,0,0,1,0-.17.88.88,0,0,1,0-.16C1.58,10.12,6.63,5.08,12,5.08a9.61,9.61,0,0,1,2,.21A.75.75,0,0,1,14.56,6.18Z" />
</svg>