<svg xmlns="http://www.w3.org/2000/svg" width="21.5" height="22.615" viewBox="0 0 21.5 22.615" fill="currentColor">
  <g id="home" transform="translate(-3 -2.322)">
    <path id="Контур_28" data-name="Контур 28" d="M24,11.521l-9.53-8.768a1.632,1.632,0,0,0-2.259.047L3.45,11.565l-.45.45V24.937h8.446V16.875h4.607v8.063H24.5V11.977ZM13.368,3.858c.014,0,.005,0,0,.009S13.354,3.858,13.368,3.858Zm9.6,19.543H17.589V16.875a1.536,1.536,0,0,0-1.536-1.536H11.446a1.536,1.536,0,0,0-1.536,1.536V23.4H4.536V12.651l8.832-8.765v0l9.6,8.767Z" transform="translate(0 0)"/>
  </g>
</svg>
