<svg height="24" width="24" viewBox="0 0 24 24" fill="currentColor" aria-hidden="true" class="Icon___StyledSvg-sc-h17bjp-0 sc-csKIKE nSGpO sc-iuOPfm hBKzqR" data-testid="arrowUpDown"><path d="M11.44,7.45a.71.71,0,0,1-.53.22.74.74,0,0,1-.53-.22L8.75,5.81v9.51a.75.75,0,0,1-1.5,0V5.81L5.61,7.45A.75.75,0,0,1,4.55,6.39L7.47,3.47a.78.78,0,0,1,.24-.16.73.73,0,0,1,.58,0,.78.78,0,0,1,.24.16l2.91,2.92A.74.74,0,0,1,11.44,7.45Zm5.09,13.08a.74.74,0,0,1-.53.22.71.71,0,0,1-.53-.22l-.18-.18a.74.74,0,0,0,1.41,0Zm2.91-4a.75.75,0,0,0-1.06,0l-1.63,1.63V8.8a.75.75,0,0,0-1.5,0v9.39l-1.64-1.63a.75.75,0,0,0-1.06,1.06l2.74,2.73.18.18a.71.71,0,0,0,.53.22.74.74,0,0,0,.53-.22l.17-.17,2.74-2.74A.74.74,0,0,0,19.44,16.56Z" fill="currentColor"></path></svg>