<svg height="24" width="24" viewBox="0 0 24 24" data-testid="lock"><g ><path d="M17.08,10.18h-.82v-3a3.75,3.75,0,0,0-3.75-3.75h-1A3.75,3.75,0,0,0,7.76,7.13v3.05H6.94a2.75,2.75,0,0,0-2.75,2.75v5.14a2.75,2.75,0,0,0,2.75,2.75H17.08a2.75,2.75,0,0,0,2.75-2.75V12.93A2.75,2.75,0,0,0,17.08,10.18Zm-7.82-3a2.25,2.25,0,0,1,2.25-2.25h1a2.25,2.25,0,0,1,2.25,2.25v3.05H9.26Zm9.07,10.94a1.25,1.25,0,0,1-1.25,1.25H6.94a1.25,1.25,0,0,1-1.25-1.25V12.93a1.25,1.25,0,0,1,1.25-1.25H17.08a1.25,1.25,0,0,1,1.25,1.25Z"></path></g></svg>