<svg xmlns="http://www.w3.org/2000/svg" width="17.487" height="18.673" viewBox="0 0 17.487 18.673" fill="currentColor">
  <g id="outline_-_fill" data-name="outline - fill" transform="translate(-3.273 -2.697)">
    <path id="Контур_37" data-name="Контур 37" d="M3.59,6.58ZM20.72,7a.41.41,0,0,0-.07-.17.61.61,0,0,0-.07-.1.43.43,0,0,0-.12-.11h-.05L12.4,2.79h-.08a.74.74,0,0,0-.72,0L3.68,6.53h0a.49.49,0,0,0-.18.2A.71.71,0,0,0,3.28,7a.69.69,0,0,0,0,.2v9.9a.75.75,0,0,0,.45.68l7.89,3.49.11.05.14.05h.45l.1-.05,7.9-3.49a.75.75,0,0,0,.44-.68V7.21A.69.69,0,0,0,20.72,7ZM11.25,19.48l-6.5-2.87V8.36l6.5,2.88ZM12,9.93,5.81,7.18,12,4.25l6.19,2.94Zm7.24,6.68-6.5,2.87V11.24l6.5-2.88Zm1.14-10Z"/>
  </g>
</svg>
