<svg height="24" width="24" viewBox="0 0 24 24" fill="currentColor" aria-hidden="true" class="Icon___StyledSvg-sc-h17bjp-0 sc-csKIKE nSGpO sc-iuOPfm hBKzqR" data-testid="folderArrowRight"><path d="M18,20.45H13.17V19H18a2.1,2.1,0,0,0,2.1-2.1V9.48A2.1,2.1,0,0,0,18,7.37H13.17a.75.75,0,0,1-.53-.22l-2.12-2.1H6a2.1,2.1,0,0,0-2.1,2.1v6.53H2.39V7.15A3.6,3.6,0,0,1,6,3.55h4.84a.71.71,0,0,1,.53.22l2.12,2.1H18a3.61,3.61,0,0,1,3.6,3.61v7.37A3.6,3.6,0,0,1,18,20.45ZM11.1,16.72,8.17,13.9a.75.75,0,0,0-1,1.08l1.58,1.53H3.22a.75.75,0,1,0,0,1.5H8.71L7.13,19.54a.76.76,0,0,0,0,1.07.75.75,0,0,0,.54.22.71.71,0,0,0,.52-.21L11.1,17.8a.76.76,0,0,0,.22-.54A.77.77,0,0,0,11.1,16.72Z" fill="currentColor"></path></svg>