<svg xmlns="http://www.w3.org/2000/svg" width="16.45" height="20.698" viewBox="0 0 16.45 20.698" fill="currentColor">
  <path id="notifications" d="M12,22.36a1.8,1.8,0,0,1-2-2h4a1.8,1.8,0,0,1-2,2Zm8.19-3.67a.75.75,0,0,1-.72.57H4.53a.75.75,0,0,1-.35-1.42,3.21,3.21,0,0,0,1.56-2.73V10.59a6.75,6.75,0,0,1,5.77-6.73,1.15,1.15,0,1,1,1,0,6.75,6.75,0,0,1,5.76,6.73v4.52a3.2,3.2,0,0,0,1.57,2.73.75.75,0,0,1,.35.85Zm-2.61-.93a4.561,4.561,0,0,1-.83-2.65V10.59A5.15,5.15,0,0,0,12,5.33a5.16,5.16,0,0,0-4.76,5.26v4.52a4.56,4.56,0,0,1-.83,2.65Z" transform="translate(-3.767 -1.674)"/>
</svg>
