<svg height="24" width="24" viewBox="0 0 24 24" fill="currentColor" aria-hidden="true" class="Icon___StyledSvg-sc-h17bjp-0 sc-csKIKE nSGpO sc-iuOPfm hBKzqR" data-testid="personAdmin"><path d="M22.39,15.48a.31.31,0,0,1-.07.39l-.76.65a1.12,1.12,0,0,0,0,1.69l.75.64a.31.31,0,0,1,.07.39l-.72,1.24-.05.07a.39.39,0,0,1-.21.08H21.3l-.94-.34-.18,0H20a1.17,1.17,0,0,0-.52.12l0,0a1.23,1.23,0,0,0-.54.77l-.18,1a.31.31,0,0,1-.3.26H17a.31.31,0,0,1-.3-.26l-.19-1a1.19,1.19,0,0,0-.53-.75l0,0a1.25,1.25,0,0,0-.9-.06l-.93.33H14a.39.39,0,0,1-.21-.08l0-.07L13,19.24a.31.31,0,0,1,.06-.38l.73-.69a1.19,1.19,0,0,0,.42-.81,1.27,1.27,0,0,0-.4-.86l-.16-.14-.58-.49a.31.31,0,0,1-.07-.39l.36-.62.36-.62a.13.13,0,0,1,0-.06l.06,0a.29.29,0,0,1,.16,0h.08l1,.28a1.65,1.65,0,0,0,.46.08.91.91,0,0,0,.41-.09l0,0a1.23,1.23,0,0,0,.54-.77l.18-1a.31.31,0,0,1,.3-.26h1.44a.32.32,0,0,1,.3.24l.23,1a1.2,1.2,0,0,0,.49.77l0,0a1.24,1.24,0,0,0,.52.12,1.43,1.43,0,0,0,.39-.06l.92-.33h.1a.24.24,0,0,1,.15,0h0a.57.57,0,0,1,.11.11Zm-2.94,1.88a1.75,1.75,0,1,0-1.75,1.75A1.75,1.75,0,0,0,19.45,17.36Zm-9.8-6.23a4.23,4.23,0,1,1,4.22-4.22A4.23,4.23,0,0,1,9.65,11.13Zm0-7a2.73,2.73,0,1,0,2.72,2.73A2.73,2.73,0,0,0,9.65,4.18Zm1.74,15.3a.75.75,0,0,0-.75-.75H2.79c.25-2.36,1.64-3.9,3.62-3.9h4.33a.75.75,0,0,0,0-1.5H6.41c-3,0-5.15,2.53-5.15,6.15a.74.74,0,0,0,.75.75h8.63A.74.74,0,0,0,11.39,19.48Z" fill="currentColor"></path></svg>