<svg xmlns="http://www.w3.org/2000/svg" width="17.5" height="17.5" viewBox="0 0 17.5 17.5" fill="currentColor">
  <path id="project" d="M18,20.75H6A2.75,2.75,0,0,1,3.25,18V6A2.75,2.75,0,0,1,6,3.25h4A2.75,2.75,0,0,1,12.75,6V7.25H18A2.75,2.75,0,0,1,20.75,10v8A2.75,2.75,0,0,1,18,20.75Zm-5.25-1.5H18A1.25,1.25,0,0,0,19.25,18V10A1.25,1.25,0,0,0,18,8.75H12.75ZM6,4.75A1.25,1.25,0,0,0,4.75,6V18A1.25,1.25,0,0,0,6,19.25h5.25V6A1.25,1.25,0,0,0,10,4.75ZM17,15.08H15v2h2Zm0-4.16H15v2h2ZM9,15.08H7v2H9Zm0-4.16H7v2H9ZM9,6.79H7v2H9Z" transform="translate(-3.25 -3.25)"/>
</svg>
