<svg xmlns="http://www.w3.org/2000/svg" width="20.07" height="18.67" viewBox="0 0 20.07 18.67" fill="currentColor">
  <g id="outline_-_fill" data-name="outline - fill" transform="translate(-1.85 -2.55)">
    <path id="Контур_39" data-name="Контур 39" d="M18.17,4.55H5.85v-2c-2.26,0-4,.82-4,3.25V17.47A3.75,3.75,0,0,0,5.6,21.22H18.17a3.75,3.75,0,0,0,3.75-3.75V8.3a3.75,3.75,0,0,0-3.75-3.75Zm2.25,12.92a2.25,2.25,0,0,1-2.25,2.25H5.6a2.25,2.25,0,0,1-2.25-2.25v-.21A1.65,1.65,0,0,1,5.1,15.51h.75V6.05H18.17A2.25,2.25,0,0,1,20.42,8.3Zm-4-.9H9.51a.75.75,0,0,1,0-1.5h6.16V10.36a.75.75,0,0,1,1.5,0v5.46a.75.75,0,0,1-.75.75Zm-6.65-3.3A.76.76,0,0,1,9,12.52V10.36a.76.76,0,0,1,.75-.75H12.5a.75.75,0,1,1,0,1.5h-2v1.41a.75.75,0,0,1-.73.75Z"/>
  </g>
</svg>
