<svg height="24" width="24" viewBox="0 0 24 24" fill="currentColor" aria-hidden="true" class="Icon___StyledSvg-sc-h17bjp-0 sc-csKIKE nSGpO sc-iuOPfm hBKzqR" data-testid="trashCan"><path d="M16,20.82H8a2.75,2.75,0,0,1-2.75-2.75V8.65a.75.75,0,0,1,1.5,0v9.42A1.25,1.25,0,0,0,8,19.32h8a1.25,1.25,0,0,0,1.25-1.25V8.65a.75.75,0,1,1,1.5,0v9.42A2.75,2.75,0,0,1,16,20.82ZM20.73,6a.74.74,0,0,1-.75.75H4a.75.75,0,0,1,0-1.5H8.25A2.75,2.75,0,0,1,11,2.54h2a2.76,2.76,0,0,1,2.75,2.72H20A.75.75,0,0,1,20.73,6Zm-6.48-.75A1.26,1.26,0,0,0,13,4H11A1.25,1.25,0,0,0,9.75,5.26Zm.5,10.44V10.64a.75.75,0,0,0-1.5,0V15.7a.75.75,0,0,0,1.5,0Zm-4,0V10.64a.75.75,0,0,0-1.5,0V15.7a.75.75,0,0,0,1.5,0Z" fill="currentColor"></path></svg>