<svg xmlns="http://www.w3.org/2000/svg" viewBox="0 0 24 24"><g id="outline_-_strokes" data-name="outline - strokes"><path d="M16,15.09H8a.75.75,0,0,1,0-1.5h8a.75.75,0,0,1,0,1.5ZM14.75,18a.76.76,0,0,0-.75-.75H8a.75.75,0,0,0,0,1.5h6A.76.76,0,0,0,14.75,18ZM20.7,5.63V18.37A3.76,3.76,0,0,1,17,22.12H7a3.76,3.76,0,0,1-3.75-3.75V5.63A3.76,3.76,0,0,1,7,1.88H17A3.76,3.76,0,0,1,20.7,5.63Zm-1.5,0A2.25,2.25,0,0,0,17,3.38H7A2.25,2.25,0,0,0,4.75,5.63V18.37A2.25,2.25,0,0,0,7,20.62H17a2.25,2.25,0,0,0,2.25-2.25ZM16.12,5.4a.75.75,0,0,0-1.05.15L13,8.33,11.22,7h0a.74.74,0,0,0-.83,0,.24.24,0,0,0-.09.06.8.8,0,0,0-.13.13h0L7.67,10.54a.74.74,0,0,0,.16,1.05.74.74,0,0,0,1-.15l2.06-2.77,1.75,1.27.05,0a.72.72,0,0,0,.44.14.74.74,0,0,0,.61-.31v0l2.48-3.33A.75.75,0,0,0,16.12,5.4Z"/></g></svg>