<svg xmlns="http://www.w3.org/2000/svg" width="21.17" height="19.77" viewBox="0 0 21.17 19.77" fill="currentColor">
  <path id="role" d="M22.39,15.48a.31.31,0,0,1-.07.39l-.76.65a1.12,1.12,0,0,0,0,1.69l.75.64a.31.31,0,0,1,.07.39l-.72,1.24-.05.07a.39.39,0,0,1-.21.08h-.1l-.94-.34H20a1.17,1.17,0,0,0-.52.12h0a1.23,1.23,0,0,0-.54.77l-.18,1a.31.31,0,0,1-.3.26H17a.31.31,0,0,1-.3-.26l-.19-1a1.19,1.19,0,0,0-.53-.75h0a1.25,1.25,0,0,0-.9-.06l-.93.33H14a.39.39,0,0,1-.21-.08v-.07L13,19.24a.31.31,0,0,1,.06-.38l.73-.69a1.19,1.19,0,0,0,.42-.81,1.27,1.27,0,0,0-.4-.86l-.16-.14-.58-.49a.31.31,0,0,1-.07-.39l.36-.62.36-.62a.13.13,0,0,1,0-.06h.06a.29.29,0,0,1,.16,0h.08l1,.28a1.65,1.65,0,0,0,.46.08.91.91,0,0,0,.41-.09h0a1.23,1.23,0,0,0,.54-.77l.18-1a.31.31,0,0,1,.3-.26h1.44a.32.32,0,0,1,.3.24l.23,1a1.2,1.2,0,0,0,.49.77h0a1.24,1.24,0,0,0,.52.12,1.43,1.43,0,0,0,.39-.06l.92-.33h.1a.24.24,0,0,1,.15,0h0a.57.57,0,0,1,.11.11Zm-2.94,1.88a1.75,1.75,0,1,0-1.75,1.75,1.75,1.75,0,0,0,1.75-1.75Zm-9.8-6.23a4.23,4.23,0,1,1,4.22-4.22,4.23,4.23,0,0,1-4.22,4.22Zm0-7a2.705,2.705,0,1,1,0,.05Zm1.74,15.3a.75.75,0,0,0-.75-.75H2.79c.25-2.36,1.64-3.9,3.62-3.9h4.33a.75.75,0,1,0,0-1.5H6.41c-3,0-5.15,2.53-5.15,6.15a.74.74,0,0,0,.75.75h8.63a.74.74,0,0,0,.75-.7Z" transform="translate(-1.26 -2.67)" />
</svg>
