<svg xmlns="http://www.w3.org/2000/svg" width="24" height="24" viewBox="0 0 24 24" fill="currentColor"><g id="outline_-_strokes" data-name="outline - strokes"><path d="M2,8.86s0,0,0-.08a.53.53,0,0,0,0,.13S2,9,2,9ZM21.74,14.8a3.24,3.24,0,0,1-1.43-3.39,3.2,3.2,0,0,1,1.43-2.05.75.75,0,0,0,.25-1L20.14,5.19a.75.75,0,0,0-1-.3,3.25,3.25,0,0,1-2,.24,3.21,3.21,0,0,1-2.54-2.92.75.75,0,0,0-.75-.7H10.17a.74.74,0,0,0-.75.69,2.44,2.44,0,0,1-.07.46A3.17,3.17,0,0,1,8,4.68a3.24,3.24,0,0,1-2.41.45,3.7,3.7,0,0,1-.71-.23.75.75,0,0,0-1,.29L2,8.33a.72.72,0,0,0-.1.38v.07s0,.06,0,.08A.5.5,0,0,0,2,9a.58.58,0,0,0,.14.24.61.61,0,0,0,.15.12l.14.1a3.18,3.18,0,0,1,1.31,3.3A3.15,3.15,0,0,1,2.28,14.8a.75.75,0,0,0-.25,1v0L3.87,19a.75.75,0,0,0,1,.29,3.26,3.26,0,0,1,2-.24,3.21,3.21,0,0,1,2.53,2.8.75.75,0,0,0,.74.67h3.71a.76.76,0,0,0,.75-.67c0-.11,0-.22.05-.33A3.22,3.22,0,0,1,18.46,19a4.56,4.56,0,0,1,.71.24.75.75,0,0,0,1-.3L22,15.81A.75.75,0,0,0,21.74,14.8Zm-2.58,2.87a2.79,2.79,0,0,0-.39-.1A4.7,4.7,0,0,0,13.24,21H10.78a4.68,4.68,0,0,0-3.59-3.43,4.57,4.57,0,0,0-2.35.1l-1.17-2A4.69,4.69,0,0,0,5.2,13.06,4.72,4.72,0,0,0,3.66,8.51l1.19-2,.39.09A4.69,4.69,0,0,0,10.81,3h2.38a4.71,4.71,0,0,0,3.63,3.58,4.64,4.64,0,0,0,2.34-.1l1.2,2a4.7,4.7,0,0,0,0,7.1ZM12,8a4.09,4.09,0,1,0,4.09,4.09A4.1,4.1,0,0,0,12,8Zm0,6.68a2.59,2.59,0,1,1,2.59-2.59A2.6,2.6,0,0,1,12,14.67ZM2.42,9.45a.38.38,0,0,1-.13-.06.71.71,0,0,1-.35-.48.53.53,0,0,1,0-.13s0,.06,0,.08L2,9H2a.58.58,0,0,0,.14.24.61.61,0,0,0,.15.12Z"/></g></svg>