<svg height="24" width="24" viewBox="0 0 24 24" fill="currentColor" aria-hidden="true" class="Icon___StyledSvg-sc-h17bjp-0 sc-csKIKE nSGpO sc-iuOPfm hBKzqR" data-testid="share"><path d="M18.49,15.25A3.23,3.23,0,0,0,16,16.49c-1.28-.61-2.91-1.36-4.52-2.1-1.34-.61-2.68-1.23-3.76-1.74a3.05,3.05,0,0,0,0-1.3l4.55-2.11C13.57,8.62,14.89,8,16,7.51a3.2,3.2,0,0,0,2.54,1.24,3.25,3.25,0,1,0-3.24-3.24,2.81,2.81,0,0,0,.07.65L11.6,7.88C10,8.62,8.33,9.38,7,10a3.25,3.25,0,1,0,0,4l3.76,1.74c1.61.73,3.24,1.48,4.52,2.09h0a2.73,2.73,0,0,0-.07.64,3.25,3.25,0,1,0,3.24-3.25Zm0-11.49a1.75,1.75,0,1,1-1.58,2.48,1.77,1.77,0,0,1-.16-.73A1.74,1.74,0,0,1,18.49,3.76Zm-14,10a1.75,1.75,0,1,1,1.59-2.47s0,0,0,0a1.72,1.72,0,0,1,.14.68,1.77,1.77,0,0,1-.16.73A1.73,1.73,0,0,1,4.49,13.75Zm14,6.5a1.75,1.75,0,1,1,1.75-1.75A1.74,1.74,0,0,1,18.49,20.25Z" fill="currentColor"></path></svg>