<svg height="24" width="24" viewBox="0 0 24 24" fill="currentColor" aria-hidden="true" class="Icon___StyledSvg-sc-h17bjp-0 sc-csKIKE nSGpO sc-iuOPfm hBKzqR" data-testid="storageBox"><path d="M22,5.52H2A.75.75,0,0,1,2,4H22a.75.75,0,0,1,0,1.5ZM20.46,17.11V8.23a.74.74,0,0,0-.75-.75H4.28a.74.74,0,0,0-.75.75v8.88c0,2.28,1.29,3.64,3.47,3.64H17C19.17,20.75,20.46,19.39,20.46,17.11ZM19,9v8.13c0,1.44-.64,2.14-2,2.14H7c-1.33,0-2-.7-2-2.14V9Zm-3.71,3.58a.75.75,0,0,0-.75-.75h-5a.75.75,0,0,0,0,1.5h5A.74.74,0,0,0,15.25,12.56Z" fill="currentColor"></path></svg>