<svg width="24" height="24" viewBox="0 0 20 20" data-testid="submit-review" class="sc-irLwvL irTMFg sc-iuOPfm hBKzqR"><g fill="currentColor" fill-rule="evenodd"><path d="M15.444 8.222h-.888V2.89H3.889v13.333h4.444v.89H3.997A1 1 0 013 16.12V2.99C3 2.444 3.443 2 3.997 2h10.45a1 1 0 01.997.991v5.231zM5.667 4.667h7.11v.889h-7.11v-.89zm0 2.666h7.11v.89h-7.11v-.89z"></path><path d="M8.552 10.13a.444.444 0 01.629.629l-1.778 1.777a.444.444 0 01-.628 0l-.89-.888a.444.444 0 11.63-.629l.574.575 1.463-1.464z" fill-rule="nonzero"></path><path d="M17.22 17.111h-.889a2.667 2.667 0 00-5.334 0h-.886s0 .002-.003.005v-.005a3.556 3.556 0 017.112 0zm-3.553-3.555a2.222 2.222 0 110-4.445 2.222 2.222 0 010 4.445zm0-.89a1.333 1.333 0 100-2.666 1.333 1.333 0 000 2.667z"></path><path d="M10.111 17.111h7.111c0 .491-.398.889-.889.889H11a.889.889 0 01-.889-.889z"></path></g></svg>