<?xml version="1.0" standalone="no"?>
<!DOCTYPE svg PUBLIC "-//W3C//DTD SVG 20010904//EN"
 "http://www.w3.org/TR/2001/REC-SVG-20010904/DTD/svg10.dtd">
<svg version="1.0" xmlns="http://www.w3.org/2000/svg"
 width="80.000000pt" height="80.000000pt" viewBox="0 0 80.000000 80.000000"
 preserveAspectRatio="xMidYMid meet">

<g transform="translate(0.000000,80.000000) scale(0.100000,-0.100000)"
fill="#000000" stroke="none">
<path d="M525 657 l-120 -52 -3 -293 c-1 -160 1 -292 5 -291 5 0 63 75 131
165 121 162 122 164 121 216 l0 53 -18 -62 c-10 -34 -26 -74 -36 -90 -23 -35
-165 -212 -177 -219 -4 -3 -8 109 -8 249 l0 254 90 42 c49 24 97 41 105 37 25
-9 37 -56 28 -106 -6 -32 -5 -52 4 -70 11 -22 13 -8 13 98 0 67 -3 122 -7 121
-5 0 -62 -24 -128 -52z"/>
<path d="M160 567 c0 -181 31 -277 116 -362 42 -42 68 -44 91 -8 15 23 19 56
22 210 l3 183 -36 15 c-19 8 -38 15 -41 15 -3 0 -5 -62 -5 -137 0 -188 -9
-212 -58 -160 -42 44 -52 88 -52 226 0 108 -3 130 -16 135 -9 3 -18 6 -20 6
-2 0 -4 -55 -4 -123z"/>
<path d="M546 556 c-35 -21 -39 -28 -40 -65 0 -22 1 -41 3 -41 2 0 24 16 47
36 34 27 44 42 44 65 0 35 -4 35 -54 5z"/>
<path d="M546 399 c-43 -38 -46 -44 -46 -91 l0 -51 43 48 c51 59 66 83 67 113
0 31 -10 28 -64 -19z"/>
</g>
</svg>
