<svg height="24" width="24" viewBox="0 0 24 24" fill="currentColor" aria-hidden="true" class="Icon___StyledSvg-sc-h17bjp-0 sc-csKIKE nSGpO sc-iuOPfm hBKzqR" data-testid="cloudUpArrow"><path d="M15.52,15.81A.78.78,0,0,1,15,16a.72.72,0,0,1-.55-.24l-1.71-1.85V19.6a.75.75,0,0,1-1.5,0V13.92L9.54,15.77a.76.76,0,0,1-1.06,0,.74.74,0,0,1,0-1.06l3-3.25a.76.76,0,0,1,.55-.24.77.77,0,0,1,.55.24l3,3.25A.76.76,0,0,1,15.52,15.81ZM14.79,3.44A7.94,7.94,0,0,0,7.27,8.8a5.81,5.81,0,0,0-.72-.05,5.3,5.3,0,0,0,0,10.6.75.75,0,1,0,0-1.5,3.8,3.8,0,1,1,1-7.48.65.65,0,0,0,.31,0,.75.75,0,0,0,.72-.57,6.46,6.46,0,1,1,8.21,7.74.77.77,0,0,0-.49.95A.75.75,0,0,0,17,19a.57.57,0,0,0,.22,0,8,8,0,0,0-2.4-15.54Z" fill="currentColor"></path></svg>