<svg xmlns="http://www.w3.org/2000/svg" width="20.64" height="20.64" viewBox="0 0 20.64 20.64" fill="currentColor">
  <path id="users" d="M12,13.65a4,4,0,1,1,4-4A4,4,0,0,1,12,13.65Zm0-6.57a2.54,2.54,0,1,0,2.54,2.54A2.54,2.54,0,0,0,12,7.08Zm0-5.4A10.32,10.32,0,1,0,22.32,12,10.32,10.32,0,0,0,12,1.68Zm0,19.14a8.72,8.72,0,0,1-5-1.6,2.84,2.84,0,0,1,2.8-2.47h4.5a2.84,2.84,0,0,1,2.8,2.47,8.72,8.72,0,0,1-5.1,1.6Zm6.32-2.68a4.32,4.32,0,0,0-4.07-2.89H9.75a4.32,4.32,0,0,0-4.07,2.89A8.816,8.816,0,1,1,20.82,12,8.74,8.74,0,0,1,18.32,18.14Z" transform="translate(-1.68 -1.68)" />
</svg>
