<svg height="24" width="24" viewBox="0 0 24 24" data-testid="newspaper"><g ><path d="M18.81,20.75H5.26a3,3,0,0,1-3-3V7.87A.75.75,0,0,1,3,7.12H5.27V4.28A.75.75,0,0,1,6,3.53H21.08a.74.74,0,0,1,.75.75V17.73A3,3,0,0,1,18.81,20.75ZM4.51,19.06a1.58,1.58,0,0,0,.75.19H18.81a1.52,1.52,0,0,0,1.52-1.52V5H6.77V16.79A2.27,2.27,0,0,1,4.51,19.06ZM3.74,8.62v8.17a.77.77,0,1,0,1.53,0V8.62Zm15.17-.1a.75.75,0,0,0-.75-.75H9.06a.75.75,0,1,0,0,1.5h9.1A.76.76,0,0,0,18.91,8.52Zm0,3.56a.75.75,0,0,0-.75-.75H15.3a.75.75,0,0,0,0,1.5h2.86A.76.76,0,0,0,18.91,12.08Zm0,2.92a.76.76,0,0,0-.75-.75H15.3a.75.75,0,0,0,0,1.5h2.86A.75.75,0,0,0,18.91,15Zm-6.14-3.48H9.06v4.24h3.71Z"></path></g></svg>
