<?xml version="1.0" encoding="UTF-8"?>
<svg width="18px" height="18px" viewBox="0 0 18 18" version="1.1" xmlns="http://www.w3.org/2000/svg" xmlns:xlink="http://www.w3.org/1999/xlink">
    <!-- Generator: sketchtool 41 (35326) - http://www.bohemiancoding.com/sketch -->
    <title>CF50332A-1766-4D14-AA06-EF6CA6746FD3</title>
    <desc>Created with sketchtool.</desc>
    <defs></defs>
    <g id="iphone" stroke="none" stroke-width="1" fill="none" fill-rule="evenodd">
        <g id="resources" transform="translate(-357.000000, -462.000000)" fill="#007ED5">
            <path d="M360.364068,462.005487 C360.123709,462.027458 359.870462,462.117064 359.63304,462.286651 C359.358032,462.483086 358.727799,462.983521 358.148493,463.53502 C357.85884,463.81077 357.583931,464.098852 357.37248,464.378513 C357.161028,464.658174 356.982688,464.912542 357.001343,465.266992 C357.018292,465.589032 357.044199,466.571011 357.754863,468.089882 C358.465527,469.608752 359.85841,471.700469 362.579642,474.421701 C365.300874,477.142933 367.392591,478.535816 368.911461,479.24648 C370.430332,479.957144 371.412311,479.983051 371.734351,480 L371.745597,480 L371.756844,480 C372.101423,480 372.356078,479.818413 372.634076,479.60637 C372.912075,479.394327 373.190831,479.12867 373.466323,478.841603 C374.017306,478.267469 374.515901,477.646609 374.714692,477.368302 L374.725938,477.345809 C375.159839,476.71792 375.043346,476.004436 374.59098,475.681317 C374.253187,475.440036 371.364747,473.535342 370.913351,473.263304 C370.910076,473.261109 370.90539,473.265427 370.902104,473.263304 C370.495998,472.999581 369.995922,473.09915 369.530023,473.353277 C369.164831,473.552472 368.16406,474.123313 367.89927,474.275495 C367.7083,474.151904 366.875146,473.611262 365.132614,471.868729 L365.132614,471.857483 C363.354223,470.11085 362.828406,469.298401 362.714601,469.113319 C362.85875,468.862525 363.443428,467.857101 363.648066,467.482567 C363.649146,467.480623 363.647023,467.473228 363.648066,467.47132 C363.910245,467.02898 363.996169,466.52285 363.760532,466.110485 L363.749285,466.110485 L363.749285,466.099238 C363.620442,465.8845 363.084137,465.070042 362.534656,464.232308 C362.259915,463.813441 361.989903,463.39325 361.769889,463.062664 C361.55243,462.735918 361.397872,462.514726 361.320026,462.410363 C361.319126,462.409136 361.320926,462.400309 361.320026,462.399117 L361.30878,462.399117 C361.14468,462.1779 360.896849,462.034156 360.600246,462.005487 C360.524643,461.998179 360.444187,461.998163 360.364068,462.005487 L360.364068,462.005487 Z M369.192626,462.005487 C369.112031,462.0142 369.036738,462.049865 368.978941,462.106706 L366.459709,464.625938 L366.212284,464.884609 L366.459709,465.14328 L368.978941,467.662512 C369.071353,467.754936 369.206055,467.791035 369.332301,467.75721 C369.458547,467.723386 369.557157,467.624776 369.590982,467.49853 C369.624806,467.372284 369.588707,467.237582 369.496283,467.14517 L367.595613,465.244499 L370.677173,465.244499 C372.064386,465.244499 373.196405,466.376518 373.196405,467.763731 L373.196405,471.362634 L373.916185,471.362634 L373.916185,467.763731 C373.916185,465.98391 372.456994,464.524719 370.677173,464.524719 L367.595613,464.524719 L369.496283,462.624048 C369.612406,462.515908 369.644011,462.34448 369.574086,462.202039 C369.50416,462.059599 369.349204,461.979755 369.192626,462.005487 L369.192626,462.005487 Z M360.4203,462.736514 C360.455599,462.735051 360.491405,462.732575 360.52152,462.736514 C360.64198,462.75227 360.718728,462.80342 360.735204,462.826486 L360.746451,462.826486 L360.746451,462.837733 C360.777402,462.879 360.955219,463.127831 361.173821,463.456294 C361.392423,463.784758 361.664496,464.20806 361.938587,464.625938 C362.486771,465.461693 363.043633,466.325224 363.130724,466.470375 C363.181282,466.558851 363.19461,466.836254 363.029505,467.11143 L363.018258,467.11143 L363.018258,467.122676 C362.811837,467.501115 361.983574,468.955867 361.983574,468.955867 L361.882355,469.135813 L361.983574,469.304511 C361.983574,469.304511 362.592017,470.376655 364.626518,472.374825 C366.62288,474.371187 367.685585,475.017769 367.685585,475.017769 L367.86553,475.130235 L368.045475,475.017769 C368.045475,475.017769 369.500228,474.189506 369.878666,473.983085 C370.200758,473.807398 370.484494,473.843385 370.508474,473.859372 L370.519721,473.859372 L370.530968,473.870619 C370.81522,474.04117 374.009998,476.148383 374.174857,476.266138 C374.22099,476.29909 374.397419,476.577611 374.12987,476.952179 C373.96877,477.177719 373.46867,477.793982 372.94898,478.335508 C372.689136,478.60627 372.424682,478.857956 372.19546,479.032795 C371.966238,479.207634 371.75416,479.280219 371.756844,479.280219 C371.389351,479.261638 370.620567,479.251774 369.215119,478.594179 C367.809383,477.936449 365.80417,476.617212 363.17571,474.005578 L363.085738,473.915605 C360.408616,471.238483 359.07308,469.209457 358.407164,467.786224 C357.741248,466.362992 357.740163,465.583758 357.721123,465.222006 C357.721784,465.23456 357.773998,465.033442 357.946055,464.805883 C358.118112,464.578324 358.370667,464.31195 358.643342,464.052363 C359.188694,463.533188 359.820326,463.034928 360.049164,462.871473 C360.189627,462.771142 360.314405,462.740902 360.4203,462.736514 L360.4203,462.736514 Z" id="callback"></path>
        </g>
    </g>
</svg>