<?xml version="1.0" encoding="UTF-8"?>
<svg width="40px" height="31px" viewBox="0 0 40 31" version="1.1" xmlns="http://www.w3.org/2000/svg" xmlns:xlink="http://www.w3.org/1999/xlink">
    <!-- Generator: sketchtool 41 (35326) - http://www.bohemiancoding.com/sketch -->
    <title>0972D203-0C4D-4F00-A483-AEAF91923738</title>
    <desc>Created with sketchtool.</desc>
    <defs></defs>
    <g id="iphone" stroke="none" stroke-width="1" fill="none" fill-rule="evenodd" fill-opacity="0.154381793">
        <g id="resources" transform="translate(-176.000000, -550.000000)" fill="#000000">
            <path d="M179.673469,551.632653 L184.571429,551.632653 L184.571429,553.265306 L179.673469,553.265306 L179.673469,551.632653 L179.673469,551.632653 Z M206.612245,554.897959 L203.923198,551.312563 C203.379516,550.587655 202.212197,550 201.306036,550 L190.693964,550 C189.792227,550 188.625404,550.581094 188.076802,551.312563 L185.387755,554.897959 L178.442016,554.897959 C177.093328,554.897959 176,556.001604 176,557.34741 L176,577.754631 C176,579.107425 177.090648,580.204082 178.441966,580.204082 L213.558034,580.204082 C214.906695,580.204082 216,579.100437 216,577.754631 L216,557.34741 C216,555.994616 214.904732,554.897959 213.557984,554.897959 L206.612245,554.897959 L206.612245,554.897959 Z M206.612245,558.163265 L208.244898,558.163265 L208.244898,559.795918 L206.612245,559.795918 L206.612245,558.163265 L206.612245,558.163265 Z M196,576.122449 C200.959292,576.122449 204.979592,572.102149 204.979592,567.142857 C204.979592,562.183566 200.959292,558.163265 196,558.163265 C191.040708,558.163265 187.020408,562.183566 187.020408,567.142857 C187.020408,572.102149 191.040708,576.122449 196,576.122449 L196,576.122449 L196,576.122449 Z M196,574.489796 C200.057602,574.489796 203.346939,571.200459 203.346939,567.142857 C203.346939,563.085255 200.057602,559.795918 196,559.795918 C191.942398,559.795918 188.653061,563.085255 188.653061,567.142857 C188.653061,571.200459 191.942398,574.489796 196,574.489796 L196,574.489796 L196,574.489796 Z" id="camera"></path>
        </g>
    </g>
</svg>