<?xml version="1.0" encoding="UTF-8"?>
<svg width="24px" height="18px" viewBox="0 0 24 18" version="1.1" xmlns="http://www.w3.org/2000/svg" xmlns:xlink="http://www.w3.org/1999/xlink">
    <!-- Generator: sketchtool 41 (35326) - http://www.bohemiancoding.com/sketch -->
    <title>CA1D775C-454D-47BF-82BA-59AB56D1ECBE</title>
    <desc>Created with sketchtool.</desc>
    <defs></defs>
    <g id="iphone" stroke="none" stroke-width="1" fill="none" fill-rule="evenodd">
        <g id="resources" transform="translate(-47.000000, -94.000000)" fill="#FFFFFF">
            <path d="M53.9230769,94 C51.0699437,94 49.1057692,94.9663462 49.1057692,94.9663462 C48.9458992,95.0441354 48.844917,95.2068288 48.8461538,95.3846154 L48.8461538,96.7692308 L48.3846154,96.7692308 C47.6253986,96.7692308 47,97.3946292 47,98.1538462 L47,110.153846 C47,110.913063 47.6253986,111.538462 48.3846154,111.538462 L57.5144231,111.538462 C57.7678317,111.819487 58.1302095,112 58.5384615,112 C58.9467135,112 59.3090914,111.819487 59.5625,111.538462 L68.6923077,111.538462 C69.4515246,111.538462 70.0769231,110.913063 70.0769231,110.153846 L70.0769231,98.1538462 C70.0769231,97.3946292 69.4515246,96.7692308 68.6923077,96.7692308 L68.2307692,96.7692308 L68.2307692,95.3846154 C68.232006,95.2068288 68.1310239,95.0441354 67.9711538,94.9663462 C67.9711538,94.9663462 66.0069795,94 63.1538462,94 C60.7185532,94 59.0098303,94.6735978 58.5384615,94.8798077 C58.0670928,94.6735978 56.3583698,94 53.9230769,94 Z M53.9230769,94.9230769 C56.2842486,94.9230769 57.7466309,95.5516829 58.0769231,95.7019231 L58.0769231,109.028846 C57.3922829,108.755225 56.0737769,108.307692 53.9230769,108.307692 C51.7723769,108.307692 50.4538711,108.755225 49.7692308,109.028846 L49.7692308,97.3173077 C49.7820585,97.2554659 49.7820585,97.1916495 49.7692308,97.1298077 L49.7692308,95.7019231 C50.0995231,95.5516829 51.5619052,94.9230769 53.9230769,94.9230769 Z M63.1538462,94.9230769 C65.5150178,94.9230769 66.9774002,95.5516829 67.3076923,95.7019231 L67.3076923,97.1442308 C67.2948646,97.2060726 67.2948646,97.269889 67.3076923,97.3317308 L67.3076923,109.028846 C66.6230522,108.755225 65.3045462,108.307692 63.1538462,108.307692 C61.0031462,108.307692 59.6846402,108.755225 59,109.028846 L59,95.7019231 C59.3302922,95.5516829 60.7926745,94.9230769 63.1538462,94.9230769 Z M48.3846154,97.6923077 L48.8461538,97.6923077 L48.8461538,109.692308 C48.8450551,109.851944 48.9265207,110.000815 49.061564,110.085951 C49.1966073,110.171087 49.3660551,110.1804 49.5096154,110.110577 C49.5096154,110.110577 51.2573675,109.230769 53.9230769,109.230769 C56.5271646,109.230769 58.2291897,110.057337 58.3076923,110.096154 C58.3123932,110.101067 58.317202,110.105876 58.3221154,110.110577 C58.3224246,110.110732 58.3365385,110.110577 58.3365385,110.110577 C58.3507151,110.116095 58.3651558,110.120908 58.3798077,110.125 C58.3892521,110.130142 58.3988734,110.134953 58.4086538,110.139423 C58.4134612,110.139498 58.4182695,110.139498 58.4230769,110.139423 C58.4325214,110.144565 58.4421426,110.149376 58.4519231,110.153846 C58.4567305,110.153921 58.4615388,110.153921 58.4663462,110.153846 C58.4951287,110.156556 58.5241021,110.156556 58.5528846,110.153846 C58.557692,110.153921 58.5625003,110.153921 58.5673077,110.153846 C58.5965463,110.151797 58.6255234,110.146967 58.6538462,110.139423 C58.6684981,110.135331 58.6829388,110.130518 58.6971154,110.125 C58.7117673,110.120908 58.726208,110.116095 58.7403846,110.110577 C58.7403846,110.110577 58.7799823,110.097956 58.7836538,110.096154 C58.7936896,110.086968 58.8033144,110.077343 58.8125,110.067308 C59.0066337,109.974113 60.6478968,109.230769 63.1538462,109.230769 C65.8195557,109.230769 67.5673077,110.110577 67.5673077,110.110577 C67.710868,110.1804 67.8803157,110.171087 68.015359,110.085951 C68.1504024,110.000815 68.231868,109.851944 68.2307692,109.692308 L68.2307692,97.6923077 L68.6923077,97.6923077 C68.9530908,97.6923077 69.1538462,97.8930631 69.1538462,98.1538462 L69.1538462,110.153846 C69.1538462,110.414629 68.9530908,110.615385 68.6923077,110.615385 L48.3846154,110.615385 C48.1238322,110.615385 47.9230769,110.414629 47.9230769,110.153846 L47.9230769,98.1538462 C47.9230769,97.8930631 48.1238322,97.6923077 48.3846154,97.6923077 Z" id="catalog"></path>
        </g>
    </g>
</svg>