<?xml version="1.0" encoding="UTF-8"?>
<svg width="67px" height="67px" viewBox="0 0 67 67" version="1.1" xmlns="http://www.w3.org/2000/svg" xmlns:xlink="http://www.w3.org/1999/xlink">
    <!-- Generator: sketchtool 41 (35326) - http://www.bohemiancoding.com/sketch -->
    <title>B251BC06-B885-4FCB-8F16-05BE597972D6</title>
    <desc>Created with sketchtool.</desc>
    <defs></defs>
    <g id="iphone" stroke="none" stroke-width="1" fill="none" fill-rule="evenodd">
        <g id="resources" transform="translate(-54.000000, -533.000000)" fill="#C4C4C4">
            <path d="M87.4132555,533 C78.8511817,533 70.2881882,536.258232 63.7702337,542.775391 C50.9630273,555.58416 50.7506007,576.277014 63.1114979,589.362305 L55.2346335,597.239169 L57.5215653,599.526101 L120.517837,536.52983 L118.230905,534.242898 L110.360255,542.113548 C103.935179,536.043222 95.6765996,533 87.4132555,533 Z M87.4132555,536.228427 C94.8477901,536.228427 102.263307,538.977968 108.057788,544.416016 L65.4108587,587.062943 C54.313718,575.239857 54.5084271,556.607967 66.0540585,545.059216 C71.942013,539.172852 79.6782555,536.228427 87.4132555,536.228427 Z M114.564356,546.976385 L112.258782,549.285068 C120.372418,561.046659 119.226391,577.318973 108.769346,587.77761 C98.3107092,598.234655 82.0399855,599.380682 70.2768037,591.267046 L67.968121,593.575727 C73.7622119,597.726411 80.5771939,599.836825 87.4101485,599.836825 C95.9724212,599.836825 104.5337,596.576282 111.050063,590.058327 C122.7687,578.3381 123.91572,560.029794 114.564356,546.976385 Z" id="checkout-empty"></path>
        </g>
    </g>
</svg>