<?xml version="1.0" encoding="UTF-8"?>
<svg width="20px" height="20px" viewBox="0 0 20 20" version="1.1" xmlns="http://www.w3.org/2000/svg" xmlns:xlink="http://www.w3.org/1999/xlink">
    <!-- Generator: sketchtool 41 (35326) - http://www.bohemiancoding.com/sketch -->
    <title>DF99BE85-9EB0-4810-B49A-E9A26E1AC425</title>
    <desc>Created with sketchtool.</desc>
    <defs></defs>
    <g id="iphone" stroke="none" stroke-width="1" fill="none" fill-rule="evenodd">
        <g id="resources" transform="translate(-49.000000, -464.000000)" fill="#FF6F00">
            <path d="M53.7135417,464 C52.9089983,464 52.3108816,464.268322 51.9557292,464.690104 C51.6005768,465.111886 51.5,465.635791 51.5,466.083333 C51.5,467.14797 52.075701,468.011983 52.8671875,468.570312 C53.1106167,468.742032 53.3707383,468.879934 53.6484375,469 L49.4166667,469 L49,469 L49,469.416667 L49,473.166667 L49,473.583333 L49.4166667,473.583333 L49.8333333,473.583333 L49.8333333,483.583333 L49.8333333,484 L50.25,484 L67.75,484 L68.1666667,484 L68.1666667,483.583333 L68.1666667,473.583333 L68.5833333,473.583333 L69,473.583333 L69,473.166667 L69,469.416667 L69,469 L68.5833333,469 L64.3515625,469 C64.6292617,468.879934 64.8893833,468.742032 65.1328125,468.570312 C65.9242987,468.011983 66.5,467.14797 66.5,466.083333 C66.5,465.635791 66.3994233,465.111886 66.0442708,464.690104 C65.6891183,464.268322 65.0910017,464 64.2864583,464 C63.4555012,464 62.7832075,464.350766 62.28125,464.833333 C61.7792925,465.3159 61.4199117,465.921868 61.0833333,466.5 C60.746755,467.078132 60.4283463,467.632355 60.09375,468.010417 C59.7591537,468.388478 59.4516742,468.583333 59,468.583333 C58.5483258,468.583333 58.2408463,468.388478 57.90625,468.010417 C57.5716537,467.632355 57.253245,467.078132 56.9166667,466.5 C56.5800883,465.921868 56.2207075,465.3159 55.71875,464.833333 C55.2167925,464.350766 54.5444988,464 53.7135417,464 Z M53.7135417,464.833333 C54.3236263,464.833333 54.7408638,465.055484 55.1328125,465.432292 C55.5247613,465.8091 55.8700158,466.348966 56.2005208,466.916667 C56.5310258,467.484368 56.8552733,468.075978 57.28125,468.557292 C57.2893667,468.566463 57.2990667,468.574242 57.3072917,468.583333 L55.6666667,468.583333 C54.8273892,468.583333 53.9592429,468.33292 53.3359375,467.893229 C52.7126323,467.453538 52.3333333,466.859946 52.3333333,466.083333 C52.3333333,465.769209 52.4075483,465.458114 52.59375,465.236979 C52.7799517,465.015844 53.084335,464.833333 53.7135417,464.833333 Z M64.2864583,464.833333 C64.915665,464.833333 65.2200483,465.015844 65.40625,465.236979 C65.5924517,465.458114 65.6666667,465.769209 65.6666667,466.083333 C65.6666667,466.859946 65.2873679,467.453538 64.6640625,467.893229 C64.0407571,468.33292 63.1726108,468.583333 62.3333333,468.583333 L60.6927083,468.583333 C60.7009333,468.574242 60.7106333,468.566463 60.71875,468.557292 C61.1447267,468.075978 61.4689742,467.484368 61.7994792,466.916667 C62.1299842,466.348966 62.4752388,465.8091 62.8671875,465.432292 C63.2591363,465.055484 63.6763738,464.833333 64.2864583,464.833333 Z M49.8333333,469.833333 L56.5,469.833333 L56.5,472.75 L49.8333333,472.75 L49.8333333,469.833333 Z M57.3333333,469.833333 L60.6666667,469.833333 L60.6666667,473.088542 C60.666056,473.101555 60.666056,473.11459 60.6666667,473.127604 C60.666056,473.140618 60.666056,473.153653 60.6666667,473.166667 C60.663334,473.196957 60.663334,473.227522 60.6666667,473.257813 L60.6666667,483.166667 L57.3333333,483.166667 L57.3333333,473.244792 C57.3357799,473.218807 57.3357799,473.192651 57.3333333,473.166667 C57.3344194,473.149323 57.3344194,473.131927 57.3333333,473.114583 C57.333944,473.10157 57.333944,473.088535 57.3333333,473.075521 L57.3333333,469.833333 Z M61.5,469.833333 L68.1666667,469.833333 L68.1666667,472.75 L67.75,472.75 L61.5,472.75 L61.5,469.833333 Z M50.6666667,473.583333 L56.5,473.583333 L56.5,483.166667 L50.6666667,483.166667 L50.6666667,473.583333 Z M61.5,473.583333 L67.3333333,473.583333 L67.3333333,483.166667 L61.5,483.166667 L61.5,473.583333 Z" id="gift"></path>
        </g>
    </g>
</svg>