<?xml version="1.0" encoding="UTF-8"?>
<svg width="15px" height="16px" viewBox="0 0 15 16" version="1.1" xmlns="http://www.w3.org/2000/svg" xmlns:xlink="http://www.w3.org/1999/xlink">
    <!-- Generator: sketchtool 41 (35326) - http://www.bohemiancoding.com/sketch -->
    <title>14D28E49-AEA3-417D-AB86-2A35D14BD499</title>
    <desc>Created with sketchtool.</desc>
    <defs></defs>
    <g id="iphone" stroke="none" stroke-width="1" fill="none" fill-rule="evenodd">
        <g id="resources" transform="translate(-247.000000, -262.000000)" fill="#FFFFFF">
            <path d="M261.842105,264.170211 L261.842105,275.815632 C261.842105,276.600158 261.206,277.236211 260.421526,277.236211 L248.420579,277.236211 C247.636053,277.236211 247,276.600105 247,275.815632 L247,264.170211 C247,263.385684 247.636105,262.749632 248.420579,262.749632 L260.421474,262.749632 C261.206,262.749579 261.842105,263.385684 261.842105,264.170211 L261.842105,264.170211 Z M260.147684,266.636632 L260.147684,265.052632 C260.147684,264.720842 259.878895,264.452105 259.547158,264.452105 L257.963158,264.452105 C257.631368,264.452105 257.362632,264.720895 257.362632,265.052632 L257.362632,266.636632 C257.362632,266.968421 257.631421,267.237789 257.963158,267.237789 L259.547158,267.237789 C259.878947,267.237789 260.147684,266.968368 260.147684,266.636632 L260.147684,266.636632 Z M260.137737,274.951947 L260.137737,268.942105 L258.862421,268.942105 C258.942263,269.279474 258.984053,269.631211 258.984053,269.992895 C258.984053,272.512947 256.941105,274.555895 254.421053,274.555895 C251.901,274.555895 249.858053,272.512947 249.858053,269.992895 C249.858053,269.631211 249.899842,269.279474 249.979684,268.942105 L248.704368,268.942105 L248.704368,274.951895 C248.704368,275.283684 248.973789,275.552421 249.305526,275.552421 L259.536579,275.552421 C259.868316,275.552474 260.137737,275.283684 260.137737,274.951947 L260.137737,274.951947 Z M257.237895,269.992947 C257.237895,268.437632 255.976316,267.176053 254.421,267.176053 C252.865684,267.176053 251.604105,268.437632 251.604105,269.992947 C251.604105,271.548263 252.865684,272.809842 254.421,272.809842 C255.976316,272.809842 257.237895,271.548211 257.237895,269.992947 L257.237895,269.992947 Z" id="instagramm"></path>
        </g>
    </g>
</svg>