<?xml version="1.0" encoding="UTF-8"?>
<svg width="21px" height="20px" viewBox="0 0 21 20" version="1.1" xmlns="http://www.w3.org/2000/svg" xmlns:xlink="http://www.w3.org/1999/xlink">
    <!-- Generator: sketchtool 41 (35326) - http://www.bohemiancoding.com/sketch -->
    <title>35679A52-C79C-4309-8253-1BCD75875B19</title>
    <desc>Created with sketchtool.</desc>
    <defs></defs>
    <g id="iphone" stroke="none" stroke-width="1" fill="none" fill-rule="evenodd">
        <g id="resources" transform="translate(-91.000000, -414.000000)" fill="#FFFFFF">
            <path d="M100.315351,432.564195 C100.315351,433.35594 99.671258,434 98.8795468,434 C98.0878356,434 97.4437422,433.355907 97.4437422,432.564195 C97.4437422,431.772484 98.0878356,431.128391 98.8795468,431.128391 C99.671258,431.128391 100.315351,431.772352 100.315351,432.564195 L100.315351,432.564195 Z M107.785513,431.128358 C106.993802,431.128358 106.349709,431.772451 106.349709,432.564162 C106.349709,433.355907 106.993802,433.999967 107.785513,433.999967 C108.577224,433.999967 109.221318,433.355874 109.221318,432.564162 C109.221318,431.772451 108.577224,431.128358 107.785513,431.128358 L107.785513,431.128358 Z M111.100769,418.723737 C111.003304,418.606548 110.858759,418.538785 110.706383,418.538587 L95.3936123,418.522134 L94.3767409,414.391181 C94.3200792,414.161494 94.1140817,414 93.8776223,414 L91.5140523,414 C91.2300829,414 91,414.230083 91,414.514052 C91,414.798022 91.2300829,415.028105 91.5140523,415.028105 L93.4746137,415.028105 L96.4015631,426.918805 L96.8408483,428.989452 C97.0187958,429.828872 97.7708603,430.438109 98.6289797,430.438109 L108.531267,430.438109 C108.815237,430.438109 109.045319,430.208026 109.045319,429.924057 C109.045319,429.640087 108.815237,429.410005 108.531267,429.410005 L98.6289797,429.410005 C98.2535257,429.410005 97.9244252,429.143414 97.8467177,428.776087 L97.5374735,427.318279 L109.287627,427.318279 C109.535815,427.318279 109.748519,427.140827 109.793254,426.896669 L111.211383,419.145016 C111.238838,418.995152 111.198333,418.840728 111.100769,418.723737 L111.100769,418.723737 Z" id="large-button-cart"></path>
        </g>
    </g>
</svg>