<?xml version="1.0" encoding="UTF-8"?>
<svg width="12px" height="20px" viewBox="0 0 12 20" version="1.1" xmlns="http://www.w3.org/2000/svg" xmlns:xlink="http://www.w3.org/1999/xlink">
    <!-- Generator: sketchtool 41 (35326) - http://www.bohemiancoding.com/sketch -->
    <title>E99F273F-27F8-4F52-8FCB-9ED9A829A213</title>
    <desc>Created with sketchtool.</desc>
    <defs></defs>
    <g id="iphone" stroke="none" stroke-width="1" fill="none" fill-rule="evenodd">
        <g id="resources" transform="translate(-146.000000, -260.000000)" fill="#FFFFFF">
            <path d="M151.883487,260.238128 C154.615147,260.245021 156.808338,262.480085 156.794807,265.242894 C156.780253,267.941617 154.551317,270.129191 151.823998,270.12 C149.123743,270.110809 146.909615,267.872426 146.924934,265.16783 C146.941019,262.433617 149.156679,260.229957 151.883487,260.238128 Z M157.417019,272.060936 C156.812934,272.681617 156.085785,273.129957 155.277955,273.443745 C154.514296,273.738894 153.677615,273.888511 152.84936,273.987574 C152.974466,274.123915 153.033445,274.190043 153.111062,274.268936 C154.235487,275.398723 155.364509,276.523915 156.485104,277.657021 C156.866551,278.042809 156.947232,278.521532 156.736594,278.970638 C156.506551,279.462128 155.992083,279.784596 155.487062,279.749872 C155.167402,279.727404 154.918211,279.56834 154.697104,279.345957 C153.848424,278.491915 152.983658,277.653957 152.152849,276.784851 C151.911062,276.531574 151.794636,276.578809 151.580679,276.799149 C150.727147,277.677957 149.860338,278.543234 148.987913,279.403404 C148.595998,279.789957 148.130041,279.859149 147.674807,279.638809 C147.191743,279.404681 146.884849,278.91166 146.908594,278.415574 C146.924934,278.080596 147.08987,277.824766 147.319913,277.594979 C148.432083,276.484085 149.5417,275.370383 150.651828,274.257447 C150.725615,274.183915 150.794041,274.105021 150.901019,273.990638 C149.387232,273.832596 148.022296,273.46034 146.854211,272.546298 C146.709445,272.432681 146.559572,272.322894 146.426807,272.195745 C145.915658,271.704511 145.864338,271.142553 146.269019,270.562723 C146.614721,270.066894 147.196338,269.933617 147.800168,270.218298 C147.91736,270.273191 148.028679,270.342383 148.135402,270.41617 C150.312764,271.91234 153.304338,271.953957 155.490126,270.484085 C155.706381,270.318894 155.937955,270.182043 156.206551,270.114128 C156.728679,269.980085 157.214296,270.171319 157.494636,270.62783 C157.815572,271.147915 157.811232,271.656511 157.417019,272.060936 Z M151.876083,267.597447 C153.215743,267.593106 154.282721,266.517447 154.27787,265.174723 C154.272509,263.832 153.203743,262.762468 151.863572,262.761447 C150.512168,262.76017 149.432934,263.848851 149.443402,265.20383 C149.45336,266.541447 150.532338,267.603064 151.876083,267.597447 L151.876083,267.597447 Z" id="odnoklassniki"></path>
        </g>
    </g>
</svg>