<?xml version="1.0" encoding="UTF-8"?>
<svg width="21px" height="20px" viewBox="0 0 21 20" version="1.1" xmlns="http://www.w3.org/2000/svg" xmlns:xlink="http://www.w3.org/1999/xlink">
    <!-- Generator: sketchtool 41 (35326) - http://www.bohemiancoding.com/sketch -->
    <title>2CF088DB-2F69-4681-AE74-195136788D57</title>
    <desc>Created with sketchtool.</desc>
    <defs></defs>
    <g id="iphone" stroke="none" stroke-width="1" fill="none" fill-rule="evenodd">
        <g id="resources" transform="translate(-99.000000, -463.000000)" fill="#000000">
            <path d="M99.8333333,463 C99.3778905,463 99,463.37789 99,463.833333 L99,478.833333 C99,479.288776 99.3778905,479.666667 99.8333333,479.666667 L106.916667,479.666667 L106.916667,480.5 L105.197917,480.5 C104.524547,480.5 104,481.07708 104,481.75 L104,482.583333 L104,483 L104.416667,483 L114.416667,483 L114.833333,483 L114.833333,482.583333 L114.833333,481.75 C114.833333,481.07708 114.308787,480.5 113.635417,480.5 L111.916667,480.5 L111.916667,479.666667 L119,479.666667 C119.455443,479.666667 119.833333,479.288776 119.833333,478.833333 L119.833333,463.833333 C119.833333,463.37789 119.455443,463 119,463 L99.8333333,463 Z M99.8333333,463.833333 L119,463.833333 L119,478.833333 L111.578125,478.833333 C111.522296,478.821753 111.464684,478.821753 111.408854,478.833333 L107.411458,478.833333 C107.355629,478.821753 107.298017,478.821753 107.242188,478.833333 L99.8333333,478.833333 L99.8333333,463.833333 Z M101.5,464.666667 C101.044557,464.666667 100.666667,465.044557 100.666667,465.5 L100.666667,475.5 C100.666667,475.955443 101.044557,476.333333 101.5,476.333333 L117.333333,476.333333 C117.788776,476.333333 118.166667,475.955443 118.166667,475.5 L118.166667,465.5 C118.166667,465.044557 117.788776,464.666667 117.333333,464.666667 L101.5,464.666667 Z M101.5,465.5 L117.333333,465.5 L117.333333,475.5 L101.5,475.5 L101.5,465.5 Z M112.684896,467.830729 L112.424479,468.15625 L109.039063,472.479167 L106.356771,470.109375 L106.044271,469.822917 L105.497396,470.447917 L105.809896,470.734375 L108.804688,473.390625 L109.143229,473.690104 L109.416667,473.338542 L113.075521,468.677083 L113.335938,468.351563 L112.684896,467.830729 Z M116.916667,476.75 C116.456667,476.75 116.083333,477.122917 116.083333,477.583333 C116.083333,478.04375 116.456667,478.416667 116.916667,478.416667 C117.376667,478.416667 117.75,478.04375 117.75,477.583333 C117.75,477.122917 117.376667,476.75 116.916667,476.75 Z M107.75,479.666667 L111.083333,479.666667 L111.083333,480.5 L107.75,480.5 L107.75,479.666667 Z M105.197917,481.333333 L107.255208,481.333333 L107.424479,481.333333 L113.635417,481.333333 C113.829547,481.333333 114,481.504586 114,481.75 L114,482.166667 L104.833333,482.166667 L104.833333,481.75 C104.833333,481.504586 105.003787,481.333333 105.197917,481.333333 Z" id="services"></path>
        </g>
    </g>
</svg>