<?xml version="1.0" encoding="UTF-8"?>
<svg width="16px" height="14px" viewBox="0 0 16 14" version="1.1" xmlns="http://www.w3.org/2000/svg" xmlns:xlink="http://www.w3.org/1999/xlink">
    <!-- Generator: sketchtool 41 (35326) - http://www.bohemiancoding.com/sketch -->
    <title>61BF43FF-26F5-4AD1-8043-591318A6F367</title>
    <desc>Created with sketchtool.</desc>
    <defs></defs>
    <g id="iphone" stroke="none" stroke-width="1" fill="none" fill-rule="evenodd">
        <g id="resources" transform="translate(-520.000000, -137.000000)" fill="#007ED5">
            <path d="M534.629314,137.206128 L526.389596,149.98147 L520.720066,144.866294 C520.620513,144.739801 520.455263,144.684641 520.29969,144.725973 C520.144117,144.767304 520.028034,144.897207 520.004387,145.05643 C519.980741,145.215654 520.054063,145.373686 520.19091,145.458445 L526.200612,150.901194 C526.289247,150.978184 526.407036,151.012719 526.523211,150.995777 C526.639386,150.978835 526.742407,150.912098 526.805362,150.813001 L535.309657,137.634493 C535.40217,137.502374 535.407047,137.327835 535.322058,137.190755 C535.237068,137.053675 535.078566,136.980432 534.91909,137.004545 C534.775151,137.04337 534.68421,137.111576 534.629314,137.206128 Z" id="Shape"></path>
        </g>
    </g>
</svg>