<?xml version="1.0" encoding="UTF-8"?>
<svg width="17px" height="17px" viewBox="0 0 17 17" version="1.1" xmlns="http://www.w3.org/2000/svg" xmlns:xlink="http://www.w3.org/1999/xlink">
    <!-- Generator: sketchtool 41 (35326) - http://www.bohemiancoding.com/sketch -->
    <title>4FBA6F84-AEB6-487E-87E0-0ACB154A1094</title>
    <desc>Created with sketchtool.</desc>
    <defs></defs>
    <g id="iphone" stroke="none" stroke-width="1" fill="none" fill-rule="evenodd">
        <g id="resources" transform="translate(-51.000000, -418.000000)" fill="#FFFFFF">
            <path d="M58.8342158,433.612488 C58.8342158,434.278345 58.2925329,434.82 57.6267033,434.82 C56.9608738,434.82 56.4191909,434.278317 56.4191909,433.612488 C56.4191909,432.946659 56.9608738,432.404976 57.6267033,432.404976 C58.2925329,432.404976 58.8342158,432.946548 58.8342158,433.612488 L58.8342158,433.612488 Z M65.1166261,432.404949 C64.4507965,432.404949 63.9091136,432.946631 63.9091136,433.61246 C63.9091136,434.278317 64.4507965,434.819972 65.1166261,434.819972 C65.7824557,434.819972 66.3241386,434.278289 66.3241386,433.61246 C66.3241386,432.946631 65.7824557,432.404949 65.1166261,432.404949 L65.1166261,432.404949 Z M67.9047579,421.972663 C67.82279,421.874107 67.7012274,421.817118 67.5730796,421.816952 L54.6950304,421.803114 L53.8398411,418.328983 C53.7921885,418.135817 53.6189445,418 53.420082,418 L51.4323183,418 C51.1934999,418 51,418.1935 51,418.432318 C51,418.671136 51.1934999,418.864636 51.4323183,418.864636 L53.0811516,418.864636 L55.5427176,428.864715 L55.9121568,430.606129 C56.0618107,431.312081 56.6942974,431.824449 57.4159763,431.824449 L65.7438057,431.824449 C65.9826241,431.824449 66.176124,431.63095 66.176124,431.392132 C66.176124,431.153313 65.9826241,430.959814 65.7438057,430.959814 L57.4159763,430.959814 C57.1002192,430.959814 56.8234455,430.735611 56.7580935,430.426689 L56.498019,429.200672 L66.3799046,429.200672 C66.588631,429.200672 66.7675156,429.051435 66.8051375,428.846099 L67.9977846,422.326958 C68.0208745,422.200922 67.9868092,422.071052 67.9047579,421.972663 L67.9047579,421.972663 Z" id="small-button-cart"></path>
        </g>
    </g>
</svg>