<?xml version="1.0" encoding="UTF-8"?>
<svg width="18px" height="15px" viewBox="0 0 18 15" version="1.1" xmlns="http://www.w3.org/2000/svg" xmlns:xlink="http://www.w3.org/1999/xlink">
    <!-- Generator: sketchtool 41 (35326) - http://www.bohemiancoding.com/sketch -->
    <title>623E6E93-5A94-4B0F-B032-EE5176BE01A8</title>
    <desc>Created with sketchtool.</desc>
    <defs></defs>
    <g id="iphone" stroke="none" stroke-width="1" fill="none" fill-rule="evenodd">
        <g id="resources" transform="translate(-194.000000, -263.000000)" fill="#FFFFFF">
            <path d="M194.001,275.780105 C195.597316,276.792526 197.490895,277.378421 199.520737,277.378421 C205.223316,277.378421 209.846,272.755211 209.846,267.053158 C209.846,266.910789 209.843,266.769474 209.837526,266.628579 C210.043789,266.466263 211.319474,265.443789 211.632158,264.786474 C211.632158,264.786474 210.596211,265.217 209.582316,265.318421 C209.580316,265.318421 209.577842,265.318895 209.575842,265.318895 C209.575842,265.318895 209.577842,265.317895 209.581316,265.315421 C209.674737,265.253 210.980842,264.363895 211.157684,263.304526 C211.157684,263.304526 210.424947,263.695632 209.399,264.037789 C209.229158,264.094211 209.051368,264.149684 208.868053,264.201105 C208.206737,263.495316 207.266737,263.054789 206.223316,263.054789 C204.221895,263.054789 202.600105,264.676105 202.600105,266.676 C202.600105,266.958211 202.632579,267.232895 202.694,267.496632 C202.414316,267.485158 198.155211,267.246368 195.257737,263.737526 C195.257737,263.737526 193.526053,266.101579 196.289684,268.532526 C196.289684,268.532526 195.449579,268.499053 194.724789,268.066 C194.724789,268.066 194.458579,270.93 197.588316,271.662263 C197.588316,271.662263 196.972474,271.895526 195.99,271.729211 C195.99,271.729211 196.539421,274.043316 199.320053,274.259579 C199.320053,274.259579 197.121263,276.245895 194,275.779842 L194.001,275.780105 L194.001,275.780105 Z" id="twitter"></path>
        </g>
    </g>
</svg>