<?xml version="1.0" encoding="UTF-8"?>
<svg width="16px" height="20px" viewBox="0 0 16 20" version="1.1" xmlns="http://www.w3.org/2000/svg" xmlns:xlink="http://www.w3.org/1999/xlink">
    <!-- Generator: sketchtool 41 (35326) - http://www.bohemiancoding.com/sketch -->
    <title>CFF920B2-2FD2-4EF5-89E4-0D80881174A3</title>
    <desc>Created with sketchtool.</desc>
    <defs></defs>
    <g id="iphone" stroke="none" stroke-width="1" fill="none" fill-rule="evenodd">
        <g id="resources" transform="translate(-298.000000, -260.000000)" fill="#FFFFFF">
            <g id="youtube" transform="translate(298.000000, 260.000000)">
                <path d="M10.0151462,13.3762573 C10.0145614,13.2768421 9.98532164,13.1733333 9.94847953,13.0803509 C9.89935673,12.9581287 9.79409357,12.8973099 9.66192982,12.8844444 C9.50695906,12.8692398 9.38298246,12.9318129 9.27070175,13.0312281 C9.22567251,13.0704094 9.20520468,13.1288889 9.20520468,13.1288889 L9.20754386,16.2850292 L9.20754386,16.362807 C9.20754386,16.362807 9.23444444,16.3990643 9.23853801,16.4037427 C9.32976608,16.5025731 9.43619883,16.5809357 9.57245614,16.6090058 C9.79701754,16.6552047 9.95549708,16.5616374 9.99935673,16.3534503 C10.0104678,16.3014035 10.0169006,16.2476023 10.0169006,16.194386 C10.0180702,15.2546199 10.0198246,14.3154386 10.0151462,13.3762573 L10.0151462,13.3762573 Z M10.0151462,13.3762573 C10.0145614,13.2768421 9.98532164,13.1733333 9.94847953,13.0803509 C9.89935673,12.9581287 9.79409357,12.8973099 9.66192982,12.8844444 C9.50695906,12.8692398 9.38298246,12.9318129 9.27070175,13.0312281 C9.22567251,13.0704094 9.20520468,13.1288889 9.20520468,13.1288889 L9.20754386,16.2850292 L9.20754386,16.362807 C9.20754386,16.362807 9.23444444,16.3990643 9.23853801,16.4037427 C9.32976608,16.5025731 9.43619883,16.5809357 9.57245614,16.6090058 C9.79701754,16.6552047 9.95549708,16.5616374 9.99935673,16.3534503 C10.0104678,16.3014035 10.0169006,16.2476023 10.0169006,16.194386 C10.0180702,15.2546199 10.0198246,14.3154386 10.0151462,13.3762573 L10.0151462,13.3762573 Z M13.5490643,8.61660819 C9.81397661,8.53649123 6.0771345,8.53649123 2.34146199,8.61660819 C1.04555556,8.64409357 0.00929824561,9.70374269 0.00929824561,11.0002339 L0.00929824561,16.834152 C0.00929824561,18.1312281 1.04555556,19.1908772 2.34146199,19.2183626 C6.0771345,19.2984795 9.81397661,19.2984795 13.5490643,19.2183626 C14.8455556,19.1908772 15.8818129,18.1312281 15.8818129,16.834152 L15.8818129,11.0002339 C15.8818129,9.70380117 14.8455556,8.64409357 13.5490643,8.61660819 L13.5490643,8.61660819 Z M3.43853801,17.3657895 L2.36134503,17.3657895 L2.36134503,11.2763158 L1.24614035,11.2763158 L1.24614035,10.2576023 L4.55608187,10.2576023 L4.55608187,11.2739766 L3.43853801,11.2739766 L3.43853801,17.3657895 L3.43853801,17.3657895 Z M7.29350877,14.8382456 L7.29350877,17.3663158 L6.3397076,17.3663158 L6.3397076,16.788538 C6.30520468,16.8253801 6.28590643,16.8452632 6.26777778,16.865731 C6.06251462,17.0973099 5.82976608,17.2902924 5.53269006,17.3926316 C5.38766082,17.4423392 5.23853801,17.4592982 5.08590643,17.4329825 C4.8777193,17.3984795 4.73795322,17.2785965 4.65374269,17.0891228 C4.57538012,16.914269 4.55549708,16.7271345 4.55491228,16.5388304 C4.5525731,15.842924 4.55374269,12.159883 4.55374269,12.1242105 L5.50520468,12.1242105 C5.50695906,12.1563743 5.51046784,14.8002339 5.51105263,16.0897076 C5.51105263,16.159883 5.51163743,16.2318129 5.52567251,16.3002339 C5.56076023,16.4733333 5.69350877,16.5476023 5.86017544,16.4867836 C6.0519883,16.4166082 6.19818713,16.2844444 6.32099415,16.1259649 C6.33912281,16.1031579 6.33912281,16.0622222 6.33912281,16.0294737 L6.33912281,12.1183626 L7.29350877,12.1160234 C7.29350877,12.1160819 7.29350877,13.9622222 7.29350877,14.8382456 L7.29350877,14.8382456 Z M10.9221637,16.8610526 C10.7946784,17.2446784 10.5139766,17.44 10.1104678,17.4359064 C9.78239766,17.4329825 9.51631579,17.3025731 9.29701754,17.0645614 C9.27245614,17.0382456 9.20461988,16.9663158 9.20461988,16.9663158 L9.20461988,17.3651462 L8.24906433,17.3651462 L8.24906433,10.2569591 L9.20461988,10.2569591 L9.20461988,12.5967251 C9.20461988,12.5967251 9.25842105,12.4891228 9.30754386,12.4335673 C9.45549708,12.2680702 9.63561404,12.14 9.85783626,12.0838596 C10.2245029,11.9920468 10.6473099,12.1054971 10.8484795,12.534152 C10.967193,12.7873684 11.0005263,13.0575439 11.0005263,13.3323977 C11.0022807,14.3259649 11.0022807,15.3195322 11.0011111,16.3130994 C11.0005263,16.4990643 10.9812281,16.6827485 10.9221637,16.8610526 L10.9221637,16.8610526 Z M14.4514035,16.6611111 C14.2859064,17.1459064 13.9438012,17.4149123 13.4420468,17.4885965 C13.1309357,17.5342105 12.8227485,17.5277778 12.5309357,17.395614 C12.1315205,17.2154971 11.9052047,16.8897661 11.8081287,16.4751462 C11.7630994,16.2821637 11.7408772,16.0798246 11.738538,15.8815789 C11.7309357,15.1032164 11.7344444,14.324269 11.7361988,13.5459064 C11.7367836,13.1388889 11.8338596,12.7634503 12.112807,12.4517544 C12.4309357,12.095614 12.8379532,11.9628655 13.3028655,11.9926901 C13.4426316,12.001462 13.5853216,12.024269 13.7180702,12.0681287 C14.170117,12.2166667 14.4116374,12.5552632 14.5063743,13.004386 C14.5426316,13.1774854 14.5560819,13.3570175 14.5590058,13.5342105 C14.5666082,13.9494152 14.5560819,14.8646199 14.5560819,14.8646199 L12.7262573,14.8646199 L12.7262573,16.1763158 C12.7262573,16.4119883 12.9169006,16.6026316 13.1525731,16.6026316 C13.3876608,16.6026316 13.5783041,16.4119883 13.5783041,16.1763158 L13.5783041,15.5020468 L14.561345,15.5020468 C14.561345,15.5019883 14.5759649,16.2979532 14.4514035,16.6611111 L14.4514035,16.6611111 Z M13.5783041,13.3149123 C13.5783041,13.0798246 13.3876608,12.8885965 13.1525731,12.8885965 C12.9169006,12.8885965 12.7262573,13.0798246 12.7262573,13.3149123 L12.7262573,14.0511696 L13.5783041,14.0511696 L13.5783041,13.3149123 L13.5783041,13.3149123 Z M9.94847953,13.0804094 C9.89935673,12.9581871 9.79409357,12.8973684 9.66192982,12.8845029 C9.50695906,12.8692982 9.38298246,12.9318713 9.27070175,13.0312865 C9.22567251,13.0704678 9.20520468,13.1289474 9.20520468,13.1289474 L9.20754386,16.2850877 L9.20754386,16.3628655 C9.20754386,16.3628655 9.23444444,16.3991228 9.23853801,16.4038012 C9.32976608,16.5026316 9.43619883,16.5809942 9.57245614,16.6090643 C9.79701754,16.6552632 9.95549708,16.5616959 9.99935673,16.3535088 C10.0104678,16.301462 10.0169006,16.2476608 10.0169006,16.1944444 C10.0180702,15.2546784 10.0198246,14.3154971 10.0151462,13.3763158 C10.0145614,13.2768421 9.98532164,13.1733333 9.94847953,13.0804094 L9.94847953,13.0804094 Z" id="Shape"></path>
                <path d="M12.3910526,1.87076023 L12.3907602,7.14818713 L11.4128655,7.14818713 L11.4140351,6.58122807 C11.3059064,6.6877193 11.2136257,6.78719298 11.1122222,6.87654971 C10.9324561,7.03491228 10.7288304,7.15298246 10.4906433,7.19959064 C10.1249708,7.27111111 9.81350877,7.15549708 9.69690058,6.77678363 C9.65807018,6.65064327 9.63461988,6.51467836 9.63362573,6.38298246 L9.63362573,1.87076023 L10.604152,1.87076023 L10.604152,5.89538012 C10.604152,5.94871345 10.6084211,6.00263158 10.6177778,6.05491228 C10.6472515,6.22076023 10.7698246,6.29883041 10.9295322,6.24345029 C11.1242105,6.17608187 11.2727485,6.04128655 11.3987719,5.88245614 C11.4166667,5.85976608 11.4134503,5.8174269 11.4134503,5.78415205 L11.4134503,1.87076023 L12.3910526,1.87076023 L12.3910526,1.87076023 Z" id="Shape"></path>
                <path d="M4.30280702,2.78783626 C4.09052632,1.89304094 3.64578947,0.00409356725 3.64578947,0.00409356725 L2.53298246,0.00409356725 C2.53298246,0.00409356725 3.38795322,2.83959064 3.7702924,4.10415205 C3.78403509,4.14988304 3.79035088,4.19953216 3.79035088,4.2474269 L3.78994152,7.14707602 L4.81608187,7.14707602 L4.81567251,4.2474269 C4.81567251,4.19953216 4.8219883,4.14988304 4.83573099,4.10415205 C5.21807018,2.83959064 6.07304094,0.00409356725 6.07304094,0.00409356725 L4.96023392,0.00409356725 C4.96023392,0.00409356725 4.5154386,1.89304094 4.30321637,2.78783626 L4.30280702,2.78783626 L4.30280702,2.78783626 Z" id="Shape"></path>
                <path d="M7.41239766,1.73865497 L7.41239766,1.73865497 C6.63906433,1.73865497 6.01216374,2.36555556 6.01216374,3.13888889 L6.01216374,5.87918129 C6.01216374,6.65251462 6.63906433,7.2794152 7.41239766,7.2794152 L7.41239766,7.2794152 C8.18573099,7.2794152 8.81263158,6.65251462 8.81263158,5.87918129 L8.81263158,3.13888889 C8.81269006,2.36555556 8.18573099,1.73865497 7.41239766,1.73865497 L7.41239766,1.73865497 Z M7.81649123,5.93450292 C7.81649123,6.15730994 7.63520468,6.33853801 7.41245614,6.33853801 C7.1897076,6.33853801 7.00842105,6.15730994 7.00842105,5.93450292 L7.00842105,3.08350877 C7.00842105,2.86070175 7.1897076,2.67947368 7.41245614,2.67947368 C7.63520468,2.67947368 7.81649123,2.86076023 7.81649123,3.08350877 L7.81649123,5.93450292 L7.81649123,5.93450292 Z" id="Shape"></path>
            </g>
        </g>
    </g>
</svg>