<?xml version="1.0" encoding="utf-8"?>
<!-- Generator: Adobe Illustrator 18.0.0, SVG Export Plug-In . SVG Version: 6.00 Build 0)  -->
<!DOCTYPE svg PUBLIC "-//W3C//DTD SVG 1.1//EN" "http://www.w3.org/Graphics/SVG/1.1/DTD/svg11.dtd">
<svg version="1.1" xmlns="http://www.w3.org/2000/svg" xmlns:xlink="http://www.w3.org/1999/xlink" x="0px" y="0px"
	 viewBox="0 0 39.7 40.4" enable-background="new 0 0 39.7 40.4" xml:space="preserve">
<g id="Background">
</g>
<g id="Layer_1">
	<g>
		<g>
			<g>
				<path fill="#A16942" d="M20,0c-3.5,0-7,1.1-10.2,3.5c-12,10-14,26,0,34.1c2.9,2,6.3,2.8,9.8,2.8c10.7,0,21.7-8.5,20.1-19.9
					c0.1-5.3-2-10.1-5.5-13.6C30.4,2.5,25.2,0,20,0L20,0z"/>
			</g>
		</g>
		<g>
			<path fill="#E6D0A1" d="M19.5,37.9c-3.1,0-5.9-0.8-8.3-2.4L11,35.4c-5.1-2.9-8-7-8.4-11.9c-0.5-6.1,2.8-12.9,8.9-18
				c2.7-2,5.5-2.9,8.5-2.9c4.4,0,8.8,2.2,12.1,6.1l0.2,0.3c3.1,3.1,4.8,7.3,4.7,11.7l0,0.4l0,0.3c0.7,4.7-1.4,8.2-3.2,10.3
				C30.6,35.4,24.9,37.9,19.5,37.9z M20,4.5c-2.6,0-5,0.8-7.3,2.5c-5.6,4.7-8.7,10.8-8.2,16.3c0.4,4.2,2.9,7.8,7.4,10.4l0.4,0.2
				c2,1.3,4.5,2,7.1,2c4.8,0,9.9-2.3,13-5.8c1.6-1.8,3.3-4.7,2.7-8.7L35.1,21l0-0.5c0.1-3.8-1.4-7.5-4.1-10.2l-0.4-0.4
				C27.7,6.5,23.9,4.5,20,4.5z"/>
		</g>
		<g>
			<path fill="#E6D0A1" d="M16.3,32c-0.1,0-0.3,0-0.4-0.1c-0.3-0.2-0.6-0.5-0.6-0.9l-0.4-6.8l-5.8-3.6c-0.3-0.2-0.5-0.6-0.5-0.9
				c0-0.4,0.3-0.7,0.6-0.8l6.4-2.5l1.6-6.7C17.3,9.3,17.6,9.1,18,9c0.4-0.1,0.8,0.1,1,0.3l4.3,5.3l6.8-0.5c0.4,0,0.7,0.2,0.9,0.5
				c0.2,0.3,0.2,0.7,0,1.1l-3.7,5.8l2.6,6.2c0.1,0.2,0.2,0.3,0.2,0.6c0,0.6-0.4,1-1,1c0,0,0,0,0,0c-0.1,0-0.2,0-0.3,0l-6.6-1.8
				l-5.2,4.5C16.8,31.9,16.5,32,16.3,32z M11.9,20l4.6,2.8c0.3,0.2,0.5,0.5,0.5,0.8l0.3,5.4l4.1-3.5c0.3-0.2,0.6-0.3,0.9-0.2
				l5.2,1.4l-2-5c-0.1-0.3-0.1-0.7,0.1-0.9l2.9-4.5l-5.3,0.4c-0.3,0-0.6-0.1-0.9-0.4l-3.4-4.2l-1.3,5.2c-0.1,0.3-0.3,0.6-0.6,0.7
				L11.9,20z"/>
		</g>
		<g>
			<path fill="#E6D0A1" d="M20.6,25c-2.2,0-4-1.8-4-4s1.8-4,4-4c2.2,0,4,1.8,4,4S22.8,25,20.6,25z M20.6,19c-1.1,0-2,0.9-2,2
				s0.9,2,2,2c1.1,0,2-0.9,2-2S21.7,19,20.6,19z"/>
		</g>
		<g>
			<path fill="#E6D0A1" d="M13.2,14.7c-0.2,0-0.5-0.1-0.7-0.3l-1.4-1.2c-0.4-0.4-0.4-1-0.1-1.4c0.4-0.4,1-0.4,1.4-0.1l1.4,1.2
				c0.4,0.4,0.4,1,0.1,1.4C13.7,14.6,13.4,14.7,13.2,14.7z"/>
		</g>
		<g>
			<path fill="#E6D0A1" d="M24.5,11.9c-0.2,0-0.3,0-0.5-0.1c-0.5-0.3-0.7-0.9-0.4-1.4l0.9-1.6c0.3-0.5,0.9-0.7,1.4-0.4
				c0.5,0.3,0.7,0.9,0.4,1.4l-0.9,1.6C25.2,11.7,24.8,11.9,24.5,11.9z"/>
		</g>
		<g>
			<path fill="#E6D0A1" d="M33.2,22h-2.1c-0.6,0-1-0.4-1-1s0.4-1,1-1h2.1c0.6,0,1,0.4,1,1S33.8,22,33.2,22z"/>
		</g>
		<g>
			<path fill="#E6D0A1" d="M23.6,33.2c-0.4,0-0.8-0.3-1-0.7l-0.5-1.8c-0.2-0.5,0.1-1.1,0.7-1.2c0.5-0.2,1.1,0.1,1.2,0.7l0.5,1.8
				c0.2,0.5-0.1,1.1-0.7,1.2C23.8,33.2,23.7,33.2,23.6,33.2z"/>
		</g>
		<g>
			<path fill="#E6D0A1" d="M8.9,27.9c-0.4,0-0.8-0.2-0.9-0.6c-0.2-0.5,0.1-1.1,0.6-1.3l2.1-0.8c0.5-0.2,1.1,0.1,1.3,0.6
				c0.2,0.5-0.1,1.1-0.6,1.3l-2.1,0.8C9.1,27.9,9,27.9,8.9,27.9z"/>
		</g>
	</g>
</g>
</svg>
